<svg width="230" height="48" viewBox="0 0 230 48" fill="none" xmlns="http://www.w3.org/2000/svg">
<rect width="230" height="48" rx="5" fill="#8B6AD3"/>
<path d="M68.118 23.926C68.118 22.158 68.5167 20.572 69.314 19.168C70.1113 17.7467 71.1947 16.6373 72.564 15.84C73.9507 15.0427 75.4847 14.644 77.166 14.644C79.142 14.644 80.8667 15.1207 82.34 16.074C83.8133 17.0273 84.888 18.3793 85.564 20.13H82.73C82.2273 19.038 81.4993 18.1973 80.546 17.608C79.61 17.0187 78.4833 16.724 77.166 16.724C75.9007 16.724 74.7653 17.0187 73.76 17.608C72.7547 18.1973 71.966 19.038 71.394 20.13C70.822 21.2047 70.536 22.47 70.536 23.926C70.536 25.3647 70.822 26.63 71.394 27.722C71.966 28.7967 72.7547 29.6287 73.76 30.218C74.7653 30.8073 75.9007 31.102 77.166 31.102C78.4833 31.102 79.61 30.816 80.546 30.244C81.4993 29.6547 82.2273 28.814 82.73 27.722H85.564C84.888 29.4553 83.8133 30.7987 82.34 31.752C80.8667 32.688 79.142 33.156 77.166 33.156C75.4847 33.156 73.9507 32.766 72.564 31.986C71.1947 31.1887 70.1113 30.088 69.314 28.684C68.5167 27.28 68.118 25.694 68.118 23.926ZM91.452 13.76V33H89.086V13.76H91.452ZM101.698 33.234C100.364 33.234 99.1504 32.9307 98.0584 32.324C96.9838 31.7173 96.1344 30.8593 95.5104 29.75C94.9038 28.6233 94.6004 27.3233 94.6004 25.85C94.6004 24.394 94.9124 23.1113 95.5364 22.002C96.1778 20.8753 97.0444 20.0173 98.1364 19.428C99.2284 18.8213 100.45 18.518 101.802 18.518C103.154 18.518 104.376 18.8213 105.468 19.428C106.56 20.0173 107.418 20.8667 108.042 21.976C108.684 23.0853 109.004 24.3767 109.004 25.85C109.004 27.3233 108.675 28.6233 108.016 29.75C107.375 30.8593 106.5 31.7173 105.39 32.324C104.281 32.9307 103.05 33.234 101.698 33.234ZM101.698 31.154C102.548 31.154 103.345 30.9547 104.09 30.556C104.836 30.1573 105.434 29.5593 105.884 28.762C106.352 27.9647 106.586 26.994 106.586 25.85C106.586 24.706 106.361 23.7353 105.91 22.938C105.46 22.1407 104.87 21.5513 104.142 21.17C103.414 20.7713 102.626 20.572 101.776 20.572C100.91 20.572 100.112 20.7713 99.3844 21.17C98.6738 21.5513 98.1018 22.1407 97.6684 22.938C97.2351 23.7353 97.0184 24.706 97.0184 25.85C97.0184 27.0113 97.2264 27.9907 97.6424 28.788C98.0758 29.5853 98.6478 30.1833 99.3584 30.582C100.069 30.9633 100.849 31.154 101.698 31.154ZM124.751 18.752V33H122.385V30.894C121.935 31.622 121.302 32.194 120.487 32.61C119.69 33.0087 118.806 33.208 117.835 33.208C116.726 33.208 115.729 32.9827 114.845 32.532C113.961 32.064 113.259 31.3707 112.739 30.452C112.237 29.5333 111.985 28.4153 111.985 27.098V18.752H114.325V26.786C114.325 28.19 114.681 29.2733 115.391 30.036C116.102 30.7813 117.073 31.154 118.303 31.154C119.569 31.154 120.565 30.764 121.293 29.984C122.021 29.204 122.385 28.0687 122.385 26.578V18.752H124.751ZM127.862 25.824C127.862 24.368 128.157 23.094 128.746 22.002C129.335 20.8927 130.141 20.0347 131.164 19.428C132.204 18.8213 133.365 18.518 134.648 18.518C135.757 18.518 136.789 18.778 137.742 19.298C138.695 19.8007 139.423 20.468 139.926 21.3V13.76H142.318V33H139.926V30.322C139.458 31.1713 138.765 31.8733 137.846 32.428C136.927 32.9653 135.853 33.234 134.622 33.234C133.357 33.234 132.204 32.922 131.164 32.298C130.141 31.674 129.335 30.7987 128.746 29.672C128.157 28.5453 127.862 27.2627 127.862 25.824ZM139.926 25.85C139.926 24.7753 139.709 23.8393 139.276 23.042C138.843 22.2447 138.253 21.638 137.508 21.222C136.78 20.7887 135.974 20.572 135.09 20.572C134.206 20.572 133.4 20.78 132.672 21.196C131.944 21.612 131.363 22.2187 130.93 23.016C130.497 23.8133 130.28 24.7493 130.28 25.824C130.28 26.916 130.497 27.8693 130.93 28.684C131.363 29.4813 131.944 30.0967 132.672 30.53C133.4 30.946 134.206 31.154 135.09 31.154C135.974 31.154 136.78 30.946 137.508 30.53C138.253 30.0967 138.843 29.4813 139.276 28.684C139.709 27.8693 139.926 26.9247 139.926 25.85ZM165.296 18.752L160.85 33H158.406L154.974 21.69L151.542 33H149.098L144.626 18.752H147.044L150.32 30.712L153.856 18.752H156.274L159.732 30.738L162.956 18.752H165.296ZM166.761 25.824C166.761 24.368 167.055 23.094 167.645 22.002C168.234 20.8927 169.04 20.0347 170.063 19.428C171.103 18.8213 172.255 18.518 173.521 18.518C174.769 18.518 175.852 18.7867 176.771 19.324C177.689 19.8613 178.374 20.5373 178.825 21.352V18.752H181.217V33H178.825V30.348C178.357 31.18 177.655 31.8733 176.719 32.428C175.8 32.9653 174.725 33.234 173.495 33.234C172.229 33.234 171.085 32.922 170.063 32.298C169.04 31.674 168.234 30.7987 167.645 29.672C167.055 28.5453 166.761 27.2627 166.761 25.824ZM178.825 25.85C178.825 24.7753 178.608 23.8393 178.175 23.042C177.741 22.2447 177.152 21.638 176.407 21.222C175.679 20.7887 174.873 20.572 173.989 20.572C173.105 20.572 172.299 20.78 171.571 21.196C170.843 21.612 170.262 22.2187 169.829 23.016C169.395 23.8133 169.179 24.7493 169.179 25.824C169.179 26.916 169.395 27.8693 169.829 28.684C170.262 29.4813 170.843 30.0967 171.571 30.53C172.299 30.946 173.105 31.154 173.989 31.154C174.873 31.154 175.679 30.946 176.407 30.53C177.152 30.0967 177.741 29.4813 178.175 28.684C178.608 27.8693 178.825 26.9247 178.825 25.85ZM197.487 18.752L188.907 39.708H186.463L189.271 32.844L183.525 18.752H186.151L190.623 30.296L195.043 18.752H197.487ZM204.909 33.234C203.817 33.234 202.838 33.052 201.971 32.688C201.105 32.3067 200.42 31.7867 199.917 31.128C199.415 30.452 199.137 29.6807 199.085 28.814H201.529C201.599 29.5247 201.928 30.1053 202.517 30.556C203.124 31.0067 203.913 31.232 204.883 31.232C205.785 31.232 206.495 31.0327 207.015 30.634C207.535 30.2353 207.795 29.7327 207.795 29.126C207.795 28.502 207.518 28.0427 206.963 27.748C206.409 27.436 205.551 27.1327 204.389 26.838C203.332 26.5607 202.465 26.2833 201.789 26.006C201.131 25.7113 200.559 25.2867 200.073 24.732C199.605 24.16 199.371 23.4147 199.371 22.496C199.371 21.768 199.588 21.1007 200.021 20.494C200.455 19.8873 201.07 19.4107 201.867 19.064C202.665 18.7 203.575 18.518 204.597 18.518C206.175 18.518 207.449 18.9167 208.419 19.714C209.39 20.5113 209.91 21.6033 209.979 22.99H207.613C207.561 22.2447 207.258 21.6467 206.703 21.196C206.166 20.7453 205.438 20.52 204.519 20.52C203.67 20.52 202.994 20.702 202.491 21.066C201.989 21.43 201.737 21.9067 201.737 22.496C201.737 22.964 201.885 23.354 202.179 23.666C202.491 23.9607 202.873 24.2033 203.323 24.394C203.791 24.5673 204.433 24.7667 205.247 24.992C206.27 25.2693 207.102 25.5467 207.743 25.824C208.385 26.084 208.931 26.4827 209.381 27.02C209.849 27.5573 210.092 28.2593 210.109 29.126C210.109 29.906 209.893 30.608 209.459 31.232C209.026 31.856 208.411 32.35 207.613 32.714C206.833 33.0607 205.932 33.234 204.909 33.234Z" fill="white"/>
<path d="M42.9314 13.0019C41.2133 13.0254 39.5336 13.4424 38.065 14.2101C37.9266 14.2846 37.7661 14.3232 37.6028 14.3213C32.2821 14.3179 26.9613 14.3179 21.6406 14.3179C21.3753 14.3111 21.1152 14.3826 20.9036 14.5206C20.692 14.6585 20.5416 14.8546 20.4774 15.0762C20.4088 15.2883 20.4265 15.5143 20.5277 15.7166C20.6289 15.9189 20.8073 16.0853 21.0335 16.1883C21.2529 16.2827 21.5231 16.3265 21.7718 16.3265C26.178 16.3349 30.5823 16.3316 34.9885 16.3333C35.0746 16.3333 35.1647 16.3383 35.2861 16.3434L35.1099 16.5624C34.5456 17.2332 34.1007 17.9727 33.79 18.7564C33.7312 18.9081 33.6431 18.9468 33.4649 18.9468C28.481 18.9418 23.9788 18.9418 19.3788 18.9434C19.1169 18.9446 18.8628 19.0207 18.6568 19.1599C18.4508 19.299 18.3045 19.4932 18.241 19.7118C18.1769 19.9313 18.2027 20.1631 18.3139 20.3681C18.4252 20.5731 18.6152 20.7389 18.852 20.8375C19.0687 20.9163 19.302 20.9559 19.5374 20.9537C23.3052 20.9605 27.073 20.9588 30.8388 20.9588H31.0797C31.0466 21.0166 30.9967 21.0659 30.9348 21.102C29.9556 21.7204 29.1566 22.4821 28.5495 23.387C28.4595 23.5218 28.3635 23.5707 28.1814 23.5707C23.1635 23.5662 18.1457 23.5651 13.1278 23.5673C12.9598 23.5726 12.7951 23.609 12.6449 23.674C12.4947 23.739 12.3625 23.8311 12.2574 23.944C12.1522 24.0568 12.0765 24.1879 12.0355 24.3282C11.9944 24.4684 11.9889 24.6147 12.0194 24.757C12.1369 25.2625 12.6069 25.5826 13.2414 25.5826H27.5449C27.3384 26.4511 27.2895 27.3418 27.4 28.2232H26.2368C25.7805 28.2232 25.5377 28.4203 25.5239 28.8113C25.5143 29.0774 25.5143 29.3438 25.5239 29.61C25.5357 30.0077 25.7824 30.2065 26.2485 30.2082C26.7753 30.2099 27.3021 30.2132 27.8289 30.2065C27.9758 30.2031 28.0482 30.2453 28.107 30.3615C28.4712 31.0827 28.9667 31.7366 29.5757 32.3246C29.7363 32.4797 29.9047 32.628 30.1123 32.8167H20.3011C20.0352 32.8226 19.7794 32.9057 19.5753 33.0526C19.3712 33.1994 19.2309 33.4013 19.177 33.6255C19.1207 33.8516 19.1584 34.0875 19.2837 34.292C19.409 34.4966 19.6139 34.6567 19.8625 34.7444C20.0537 34.8046 20.2562 34.8337 20.4597 34.8304C31.1482 34.8371 40.7185 34.8472 50.561 34.8C51.305 34.7929 52.044 34.6953 52.7563 34.5102C57.325 33.3509 60.0099 29.187 58.643 25.131C57.7931 22.6102 55.8759 20.9116 52.9873 20.0421C52.8561 20.0017 52.8013 19.9511 52.7759 19.8332C52.7245 19.6115 52.6604 19.3922 52.5839 19.176C51.3208 15.4958 47.3885 12.921 42.9314 13.0019ZM13.4842 28.2248C13.4016 28.2219 13.319 28.2334 13.2418 28.2589C13.1645 28.2843 13.0941 28.3231 13.0348 28.3728C12.9756 28.4225 12.9288 28.4821 12.8973 28.5479C12.8658 28.6138 12.8503 28.6845 12.8517 28.7557C12.8439 29.0219 12.8478 29.2881 12.8478 29.5544C12.8497 30.0161 13.0808 30.2082 13.6233 30.2082H21.7757C22.1733 30.2082 22.4631 29.9976 22.4748 29.6926C22.4854 29.3871 22.4854 29.0814 22.4748 28.7759C22.4631 28.4523 22.2007 28.2248 21.8345 28.2248H13.4842Z" fill="#D9D9D9"/>
</svg>
