<svg width="157" height="45" viewBox="0 0 157 45" fill="none" xmlns="http://www.w3.org/2000/svg">
<rect width="157" height="45" rx="5" fill="#8B6AD3"/>
<path d="M68.118 23.926C68.118 22.158 68.5167 20.572 69.314 19.168C70.1113 17.7467 71.1947 16.6373 72.564 15.84C73.9507 15.0427 75.4847 14.644 77.166 14.644C79.142 14.644 80.8667 15.1207 82.34 16.074C83.8133 17.0273 84.888 18.3793 85.564 20.13H82.73C82.2273 19.038 81.4993 18.1973 80.546 17.608C79.61 17.0187 78.4833 16.724 77.166 16.724C75.9007 16.724 74.7653 17.0187 73.76 17.608C72.7547 18.1973 71.966 19.038 71.394 20.13C70.822 21.2047 70.536 22.47 70.536 23.926C70.536 25.3647 70.822 26.63 71.394 27.722C71.966 28.7967 72.7547 29.6287 73.76 30.218C74.7653 30.8073 75.9007 31.102 77.166 31.102C78.4833 31.102 79.61 30.816 80.546 30.244C81.4993 29.6547 82.2273 28.814 82.73 27.722H85.564C84.888 29.4553 83.8133 30.7987 82.34 31.752C80.8667 32.688 79.142 33.156 77.166 33.156C75.4847 33.156 73.9507 32.766 72.564 31.986C71.1947 31.1887 70.1113 30.088 69.314 28.684C68.5167 27.28 68.118 25.694 68.118 23.926ZM94.832 33.182C93.636 33.182 92.5613 32.974 91.608 32.558C90.672 32.1247 89.9353 31.5353 89.398 30.79C88.8607 30.0273 88.5833 29.152 88.566 28.164H91.088C91.1747 29.0133 91.5213 29.7327 92.128 30.322C92.752 30.894 93.6533 31.18 94.832 31.18C95.9587 31.18 96.8427 30.9027 97.484 30.348C98.1427 29.776 98.472 29.048 98.472 28.164C98.472 27.4707 98.2813 26.9073 97.9 26.474C97.5187 26.0407 97.042 25.7113 96.47 25.486C95.898 25.2607 95.1267 25.018 94.156 24.758C92.96 24.446 91.998 24.134 91.27 23.822C90.5593 23.51 89.944 23.0247 89.424 22.366C88.9213 21.69 88.67 20.7887 88.67 19.662C88.67 18.674 88.9213 17.7987 89.424 17.036C89.9267 16.2733 90.6287 15.684 91.53 15.268C92.4487 14.852 93.4973 14.644 94.676 14.644C96.3747 14.644 97.7613 15.0687 98.836 15.918C99.928 16.7673 100.543 17.894 100.682 19.298H98.082C97.9953 18.6047 97.6313 17.998 96.99 17.478C96.3487 16.9407 95.4993 16.672 94.442 16.672C93.454 16.672 92.648 16.932 92.024 17.452C91.4 17.9547 91.088 18.6653 91.088 19.584C91.088 20.2427 91.27 20.78 91.634 21.196C92.0153 21.612 92.4747 21.9327 93.012 22.158C93.5667 22.366 94.338 22.6087 95.326 22.886C96.522 23.2153 97.484 23.5447 98.212 23.874C98.94 24.186 99.564 24.68 100.084 25.356C100.604 26.0147 100.864 26.916 100.864 28.06C100.864 28.944 100.63 29.776 100.162 30.556C99.694 31.336 99.0007 31.9687 98.082 32.454C97.1633 32.9393 96.08 33.182 94.832 33.182ZM110.092 33.182C108.896 33.182 107.821 32.974 106.868 32.558C105.932 32.1247 105.195 31.5353 104.658 30.79C104.12 30.0273 103.843 29.152 103.826 28.164H106.348C106.434 29.0133 106.781 29.7327 107.388 30.322C108.012 30.894 108.913 31.18 110.092 31.18C111.218 31.18 112.102 30.9027 112.744 30.348C113.402 29.776 113.732 29.048 113.732 28.164C113.732 27.4707 113.541 26.9073 113.16 26.474C112.778 26.0407 112.302 25.7113 111.73 25.486C111.158 25.2607 110.386 25.018 109.416 24.758C108.22 24.446 107.258 24.134 106.53 23.822C105.819 23.51 105.204 23.0247 104.684 22.366C104.181 21.69 103.93 20.7887 103.93 19.662C103.93 18.674 104.181 17.7987 104.684 17.036C105.186 16.2733 105.888 15.684 106.79 15.268C107.708 14.852 108.757 14.644 109.936 14.644C111.634 14.644 113.021 15.0687 114.096 15.918C115.188 16.7673 115.803 17.894 115.942 19.298H113.342C113.255 18.6047 112.891 17.998 112.25 17.478C111.608 16.9407 110.759 16.672 109.702 16.672C108.714 16.672 107.908 16.932 107.284 17.452C106.66 17.9547 106.348 18.6653 106.348 19.584C106.348 20.2427 106.53 20.78 106.894 21.196C107.275 21.612 107.734 21.9327 108.272 22.158C108.826 22.366 109.598 22.6087 110.586 22.886C111.782 23.2153 112.744 23.5447 113.472 23.874C114.2 24.186 114.824 24.68 115.344 25.356C115.864 26.0147 116.124 26.916 116.124 28.06C116.124 28.944 115.89 29.776 115.422 30.556C114.954 31.336 114.26 31.9687 113.342 32.454C112.423 32.9393 111.34 33.182 110.092 33.182ZM119.164 18.934C119.285 17.3393 119.9 16.0913 121.01 15.19C122.119 14.2887 123.558 13.838 125.326 13.838C126.504 13.838 127.518 14.0547 128.368 14.488C129.234 14.904 129.884 15.476 130.318 16.204C130.768 16.932 130.994 17.7553 130.994 18.674C130.994 19.7487 130.682 20.676 130.058 21.456C129.451 22.236 128.654 22.7387 127.666 22.964V23.094C128.792 23.3713 129.685 23.9173 130.344 24.732C131.002 25.5467 131.332 26.6127 131.332 27.93C131.332 28.918 131.106 29.8107 130.656 30.608C130.205 31.388 129.529 32.0033 128.628 32.454C127.726 32.9047 126.643 33.13 125.378 33.13C123.54 33.13 122.032 32.6533 120.854 31.7C119.675 30.7293 119.016 29.36 118.878 27.592H121.166C121.287 28.632 121.712 29.4813 122.44 30.14C123.168 30.7987 124.138 31.128 125.352 31.128C126.565 31.128 127.484 30.816 128.108 30.192C128.749 29.5507 129.07 28.7273 129.07 27.722C129.07 26.422 128.636 25.486 127.77 24.914C126.903 24.342 125.594 24.056 123.844 24.056H123.246V22.08H123.87C125.464 22.0627 126.669 21.8027 127.484 21.3C128.298 20.78 128.706 19.9827 128.706 18.908C128.706 17.9893 128.402 17.2527 127.796 16.698C127.206 16.1433 126.357 15.866 125.248 15.866C124.173 15.866 123.306 16.1433 122.648 16.698C121.989 17.2527 121.599 17.998 121.478 18.934H119.164Z" fill="white"/>
<path d="M47.2056 13.3153L32.7944 13.3114L33.0271 16.486L44.0985 16.4879L43.8194 19.7759H36.5586L36.8211 22.8904H43.5805L43.1806 27.1558L39.9991 28.1294L36.7669 27.149L36.5612 24.5944H33.707L34.0237 29.2609L39.9991 31.3224L45.8739 29.4702L47.2047 13.3163L47.2056 13.3153ZM28.5191 7.97263H51.4809L49.3922 34.0766L39.9746 37.0264L30.6095 34.0746L28.5191 7.97263Z" fill="#D9D9D9"/>
</svg>
