<svg width="183" height="45" viewBox="0 0 183 45" fill="none" xmlns="http://www.w3.org/2000/svg">
<rect width="183" height="45" rx="5" fill="#8B6AD3"/>
<path d="M71.644 13.878C73.62 13.878 75.3273 14.2507 76.766 14.996C78.222 15.724 79.3313 16.7727 80.094 18.142C80.874 19.5113 81.264 21.1233 81.264 22.978C81.264 24.8327 80.874 26.4447 80.094 27.814C79.3313 29.166 78.222 30.206 76.766 30.934C75.3273 31.6447 73.62 32 71.644 32H66.002V13.878H71.644ZM71.644 30.05C73.984 30.05 75.7693 29.4347 77 28.204C78.2307 26.956 78.846 25.214 78.846 22.978C78.846 20.7247 78.222 18.9653 76.974 17.7C75.7433 16.4347 73.9667 15.802 71.644 15.802H68.368V30.05H71.644ZM90.5988 32.234C89.2641 32.234 88.0508 31.9307 86.9588 31.324C85.8841 30.7173 85.0348 29.8593 84.4108 28.75C83.8041 27.6233 83.5008 26.3233 83.5008 24.85C83.5008 23.394 83.8128 22.1113 84.4368 21.002C85.0781 19.8753 85.9448 19.0173 87.0368 18.428C88.1288 17.8213 89.3508 17.518 90.7028 17.518C92.0548 17.518 93.2768 17.8213 94.3688 18.428C95.4608 19.0173 96.3188 19.8667 96.9428 20.976C97.5841 22.0853 97.9048 23.3767 97.9048 24.85C97.9048 26.3233 97.5755 27.6233 96.9168 28.75C96.2755 29.8593 95.4001 30.7173 94.2908 31.324C93.1815 31.9307 91.9508 32.234 90.5988 32.234ZM90.5988 30.154C91.4481 30.154 92.2455 29.9547 92.9908 29.556C93.7361 29.1573 94.3341 28.5593 94.7848 27.762C95.2528 26.9647 95.4868 25.994 95.4868 24.85C95.4868 23.706 95.2615 22.7353 94.8108 21.938C94.3601 21.1407 93.7708 20.5513 93.0428 20.17C92.3148 19.7713 91.5261 19.572 90.6768 19.572C89.8101 19.572 89.0128 19.7713 88.2848 20.17C87.5741 20.5513 87.0021 21.1407 86.5688 21.938C86.1355 22.7353 85.9188 23.706 85.9188 24.85C85.9188 26.0113 86.1268 26.9907 86.5428 27.788C86.9761 28.5853 87.5481 29.1833 88.2588 29.582C88.9695 29.9633 89.7495 30.154 90.5988 30.154ZM100.132 24.85C100.132 23.3767 100.426 22.094 101.016 21.002C101.605 19.8927 102.42 19.0347 103.46 18.428C104.517 17.8213 105.722 17.518 107.074 17.518C108.824 17.518 110.263 17.9427 111.39 18.792C112.534 19.6413 113.288 20.82 113.652 22.328H111.104C110.861 21.4613 110.384 20.7767 109.674 20.274C108.98 19.7713 108.114 19.52 107.074 19.52C105.722 19.52 104.63 19.988 103.798 20.924C102.966 21.8427 102.55 23.1513 102.55 24.85C102.55 26.566 102.966 27.892 103.798 28.828C104.63 29.764 105.722 30.232 107.074 30.232C108.114 30.232 108.98 29.9893 109.674 29.504C110.367 29.0187 110.844 28.3253 111.104 27.424H113.652C113.27 28.88 112.508 30.05 111.364 30.934C110.22 31.8007 108.79 32.234 107.074 32.234C105.722 32.234 104.517 31.9307 103.46 31.324C102.42 30.7173 101.605 29.8593 101.016 28.75C100.426 27.6407 100.132 26.3407 100.132 24.85ZM124.765 32L119.175 25.708V32H116.809V12.76H119.175V24.07L124.661 17.752H127.963L121.255 24.85L127.989 32H124.765ZM143.19 24.33C143.19 24.7807 143.164 25.2573 143.112 25.76H131.724C131.81 27.164 132.287 28.2647 133.154 29.062C134.038 29.842 135.104 30.232 136.352 30.232C137.374 30.232 138.224 29.998 138.9 29.53C139.593 29.0447 140.078 28.4033 140.356 27.606H142.904C142.522 28.9753 141.76 30.0933 140.616 30.96C139.472 31.8093 138.05 32.234 136.352 32.234C135 32.234 133.786 31.9307 132.712 31.324C131.654 30.7173 130.822 29.8593 130.216 28.75C129.609 27.6233 129.306 26.3233 129.306 24.85C129.306 23.3767 129.6 22.0853 130.19 20.976C130.779 19.8667 131.602 19.0173 132.66 18.428C133.734 17.8213 134.965 17.518 136.352 17.518C137.704 17.518 138.9 17.8127 139.94 18.402C140.98 18.9913 141.777 19.806 142.332 20.846C142.904 21.8687 143.19 23.03 143.19 24.33ZM140.746 23.836C140.746 22.9347 140.546 22.1633 140.148 21.522C139.749 20.8633 139.203 20.3693 138.51 20.04C137.834 19.6933 137.08 19.52 136.248 19.52C135.052 19.52 134.029 19.9013 133.18 20.664C132.348 21.4267 131.871 22.484 131.75 23.836H140.746ZM148.679 20.066C149.095 19.2513 149.684 18.6187 150.447 18.168C151.227 17.7173 152.171 17.492 153.281 17.492V19.936H152.657C150.005 19.936 148.679 21.3747 148.679 24.252V32H146.313V17.752H148.679V20.066Z" fill="white"/>
<path d="M46.9125 15.072L47.2031 14.618L47.7108 14.936L47.9355 15.102C48.478 15.534 49.6192 16.638 49.8653 18.47C50.2974 18.39 50.7333 18.35 51.1693 18.35C52.2039 18.35 52.8995 18.598 53.2947 18.804L53.4982 18.918L53.6299 19.008L54 19.32L53.8721 19.72C53.6734 20.2683 53.3628 20.7662 52.9615 21.18C52.3996 21.778 51.4115 22.484 49.844 22.576L49.4991 22.586H49.2124C48.4955 24.5399 47.5325 26.7419 45.9147 28.7179C44.9547 29.8921 43.8161 30.8973 42.5434 31.6939C41.0175 32.6283 39.3467 33.2833 37.6046 33.6299C36.3568 33.8799 35.0897 34.0039 33.8206 33.9999C31.0112 33.9999 28.5311 33.4239 27.0063 32.4159C25.6442 31.5179 24.5979 30.0519 23.8946 28.0619C23.2791 26.2435 22.9768 24.328 23.0014 22.402C22.9982 22.155 23.0809 21.9151 23.2345 21.7257C23.3881 21.5364 23.6023 21.4101 23.8384 21.37L23.9702 21.36H44.3918L44.57 21.346L44.8587 21.314C45.3547 21.246 46.1104 21.094 46.6412 20.774C46.0057 19.688 45.8255 18.418 46.122 17.066C46.2461 16.502 46.4416 15.9574 46.7032 15.446L46.9125 15.072ZM28.5989 17.568L28.6764 17.582C28.7118 17.5956 28.7437 17.6175 28.7696 17.646C28.7954 17.6744 28.8146 17.7086 28.8256 17.746L28.8372 17.826V20.456L28.8256 20.538C28.8144 20.5755 28.795 20.6098 28.7687 20.6383C28.7425 20.6668 28.7102 20.6885 28.6745 20.702L28.5989 20.714H25.8631C25.8121 20.7133 25.7627 20.6958 25.7219 20.6642C25.6812 20.6325 25.6512 20.5883 25.6364 20.538L25.6229 20.458V17.824L25.6364 17.744C25.6474 17.7061 25.6667 17.6713 25.693 17.6425C25.7192 17.6137 25.7516 17.5916 25.7876 17.578L25.8631 17.566L28.5989 17.568ZM32.3713 17.568L32.4469 17.582C32.4826 17.5954 32.5149 17.6172 32.5411 17.6456C32.5673 17.6741 32.5868 17.7084 32.598 17.746L32.6096 17.826V20.456L32.5961 20.538C32.5849 20.5755 32.5654 20.6098 32.5392 20.6383C32.5129 20.6668 32.4807 20.6885 32.4449 20.702L32.3694 20.714H29.6336C29.5827 20.7129 29.5333 20.6954 29.4927 20.6638C29.452 20.6322 29.4219 20.5882 29.4069 20.538L29.3933 20.46V17.826C29.3929 17.7725 29.4085 17.7201 29.438 17.6761C29.4674 17.6321 29.5094 17.5985 29.558 17.58L29.6336 17.566L32.3713 17.568ZM36.1999 17.568L36.2754 17.582C36.3108 17.5956 36.3427 17.6175 36.3686 17.646C36.3945 17.6744 36.4136 17.7086 36.4246 17.746L36.4382 17.826V20.456L36.4246 20.538C36.4134 20.5755 36.394 20.6098 36.3677 20.6383C36.3415 20.6668 36.3093 20.6885 36.2735 20.702L36.1979 20.714H33.4621C33.4111 20.7133 33.3617 20.6958 33.3209 20.6642C33.2802 20.6325 33.2502 20.5883 33.2354 20.538L33.2238 20.458V17.824L33.2354 17.744C33.2464 17.7061 33.2657 17.6713 33.292 17.6425C33.3182 17.6137 33.3506 17.5916 33.3866 17.578L33.4621 17.566L36.1999 17.568ZM39.9819 17.568L40.0575 17.582C40.0933 17.5954 40.1255 17.6172 40.1517 17.6456C40.178 17.6741 40.1974 17.7084 40.2086 17.746L40.2222 17.826V20.456C40.2226 20.5095 40.207 20.5618 40.1775 20.6058C40.1481 20.6499 40.1061 20.6834 40.0575 20.702L39.98 20.714H37.2461C37.1952 20.7133 37.1457 20.6958 37.1049 20.6642C37.0642 20.6325 37.0343 20.5883 37.0194 20.538L37.0078 20.458V17.824L37.0194 17.744C37.0304 17.7061 37.0497 17.6713 37.076 17.6425C37.1022 17.6137 37.1346 17.5916 37.1706 17.578L37.2481 17.566H39.9839L39.9819 17.568ZM43.7989 17.568L43.8744 17.582C43.9102 17.5954 43.9425 17.6172 43.9687 17.6456C43.9949 17.6741 44.0144 17.7084 44.0256 17.746L44.0372 17.826V20.456C44.0376 20.5095 44.022 20.5618 43.9925 20.6058C43.9631 20.6499 43.9211 20.6834 43.8725 20.702L43.7969 20.714H41.0611C41.0102 20.7133 40.9607 20.6958 40.92 20.6642C40.8792 20.6325 40.8493 20.5883 40.8345 20.538L40.8228 20.458V17.824L40.8345 17.744C40.8454 17.7061 40.8647 17.6713 40.891 17.6425C40.9172 17.6137 40.9496 17.5916 40.9856 17.578L41.0631 17.566H43.7969L43.7989 17.568ZM32.3674 13.784L32.4449 13.798C32.4801 13.8115 32.5119 13.8331 32.5377 13.8611C32.5636 13.8892 32.5829 13.923 32.5941 13.96L32.6077 14.042V16.672C32.6081 16.7255 32.5925 16.7778 32.563 16.8219C32.5336 16.8659 32.4916 16.8995 32.443 16.918L32.3674 16.932H29.6336C29.5822 16.9307 29.5325 16.9126 29.4917 16.8802C29.451 16.8478 29.4213 16.8029 29.4069 16.752L29.3933 16.672V14.042C29.3933 13.9888 29.4091 13.9369 29.4385 13.8933C29.468 13.8497 29.5097 13.8164 29.558 13.798L29.6336 13.784H32.3674ZM36.196 13.784L36.2735 13.798C36.3087 13.8115 36.3404 13.8331 36.3663 13.8611C36.3921 13.8892 36.4114 13.923 36.4227 13.96L36.4363 14.042V16.672C36.4367 16.7255 36.4211 16.7778 36.3916 16.8219C36.3621 16.8659 36.3202 16.8995 36.2716 16.918L36.196 16.932H33.4621C33.4107 16.9307 33.3611 16.9126 33.3203 16.8802C33.2795 16.8478 33.2498 16.8029 33.2354 16.752L33.2238 16.672V14.042L33.2354 13.962C33.2466 13.9244 33.2661 13.8901 33.2923 13.8616C33.3186 13.8332 33.3508 13.8114 33.3866 13.798L33.4621 13.784H36.196ZM39.98 13.784C40.0846 13.784 40.1738 13.858 40.2067 13.96L40.2203 14.042V16.672C40.2207 16.7255 40.2051 16.7778 40.1756 16.8219C40.1461 16.8659 40.1042 16.8995 40.0556 16.918L39.9781 16.932H37.2461C37.1947 16.9307 37.1451 16.9126 37.1043 16.8802C37.0636 16.8478 37.0338 16.8029 37.0194 16.752L37.0078 16.672V14.042L37.0194 13.962C37.0306 13.9244 37.0501 13.8901 37.0763 13.8616C37.1026 13.8332 37.1348 13.8114 37.1706 13.798L37.2481 13.784H39.9839H39.98ZM39.98 10C40.0846 10 40.1738 10.074 40.2067 10.176L40.2203 10.256V12.888C40.2207 12.9415 40.2051 12.9938 40.1756 13.0379C40.1461 13.0819 40.1042 13.1155 40.0556 13.134L39.9781 13.146H37.2461C37.1952 13.1453 37.1457 13.1278 37.1049 13.0962C37.0642 13.0646 37.0343 13.0204 37.0194 12.97L37.0078 12.89V10.256L37.0194 10.176C37.0306 10.1385 37.0501 10.1041 37.0763 10.0757C37.1026 10.0472 37.1348 10.0254 37.1706 10.012L37.2461 10H39.9819H39.98Z" fill="#D9D9D9"/>
</svg>
