<svg width="170" height="45" viewBox="0 0 170 45" fill="none" xmlns="http://www.w3.org/2000/svg">
<rect width="170" height="45" rx="5" fill="#8B6AD3"/>
<path d="M82.964 14.878V33H80.598V24.784H71.368V33H69.002V14.878H71.368V22.834H80.598V14.878H82.964ZM98.158 14.878V16.802H93.218V33H90.852V16.802H85.886V14.878H98.158ZM119.452 15.008V33H117.086V19.584L111.106 33H109.442L103.436 19.558V33H101.07V15.008H103.618L110.274 29.88L116.93 15.008H119.452ZM125.831 31.076H132.175V33H123.465V14.878H125.831V31.076ZM146.284 16.256H137.158V22.184C137.556 21.6293 138.146 21.1787 138.926 20.832C139.706 20.468 140.546 20.286 141.448 20.286C142.886 20.286 144.056 20.5893 144.958 21.196C145.859 21.7853 146.5 22.5567 146.882 23.51C147.28 24.446 147.48 25.4427 147.48 26.5C147.48 27.748 147.246 28.866 146.778 29.854C146.31 30.842 145.59 31.622 144.62 32.194C143.666 32.766 142.479 33.052 141.058 33.052C139.238 33.052 137.764 32.584 136.638 31.648C135.511 30.712 134.826 29.464 134.584 27.904H136.898C137.123 28.892 137.6 29.6633 138.328 30.218C139.056 30.7727 139.974 31.05 141.084 31.05C142.453 31.05 143.484 30.6427 144.178 29.828C144.871 28.996 145.218 27.904 145.218 26.552C145.218 25.2 144.871 24.16 144.178 23.432C143.484 22.6867 142.462 22.314 141.11 22.314C140.191 22.314 139.385 22.5393 138.692 22.99C138.016 23.4233 137.522 24.0213 137.21 24.784H134.974V14.176H146.284V16.256Z" fill="white"/>
<path d="M50 9L47.8182 33.2646L37.9659 36L28.1818 33.2646L26 9H50ZM45.5341 13.9596H30.4659L31.267 22.9708H41.7006L41.3222 26.8166L37.9659 27.7144L34.625 26.8183L34.4034 24.4575H31.4222L31.7972 29.1471L37.9676 30.8346H38.0341V30.8177L44.1551 29.1471L45.0074 19.9671H34.0284L33.7727 16.9127H45.2614L45.5341 13.9596Z" fill="#D9D9D9"/>
</svg>
