<svg width="239" height="47" viewBox="0 0 239 47" fill="none" xmlns="http://www.w3.org/2000/svg">
<rect width="239" height="47" rx="5" fill="#8B6AD3"/>
<path d="M78.128 14.878V28.268C78.128 29.7587 77.6687 30.9547 76.75 31.856C75.8313 32.74 74.618 33.182 73.11 33.182C71.5847 33.182 70.3627 32.7313 69.444 31.83C68.5253 30.9113 68.066 29.6633 68.066 28.086H70.432C70.4493 28.97 70.6747 29.6893 71.108 30.244C71.5587 30.7987 72.226 31.076 73.11 31.076C73.994 31.076 74.6527 30.816 75.086 30.296C75.5193 29.7587 75.736 29.0827 75.736 28.268V14.878H78.128ZM81.9051 25.824C81.9051 24.368 82.1998 23.094 82.7891 22.002C83.3784 20.8927 84.1844 20.0347 85.2071 19.428C86.2471 18.8213 87.3998 18.518 88.6651 18.518C89.9131 18.518 90.9964 18.7867 91.9151 19.324C92.8338 19.8613 93.5184 20.5373 93.9691 21.352V18.752H96.3611V33H93.9691V30.348C93.5011 31.18 92.7991 31.8733 91.8631 32.428C90.9444 32.9653 89.8698 33.234 88.6391 33.234C87.3738 33.234 86.2298 32.922 85.2071 32.298C84.1844 31.674 83.3784 30.7987 82.7891 29.672C82.1998 28.5453 81.9051 27.2627 81.9051 25.824ZM93.9691 25.85C93.9691 24.7753 93.7524 23.8393 93.3191 23.042C92.8858 22.2447 92.2964 21.638 91.5511 21.222C90.8231 20.7887 90.0171 20.572 89.1331 20.572C88.2491 20.572 87.4431 20.78 86.7151 21.196C85.9871 21.612 85.4064 22.2187 84.9731 23.016C84.5398 23.8133 84.3231 24.7493 84.3231 25.824C84.3231 26.916 84.5398 27.8693 84.9731 28.684C85.4064 29.4813 85.9871 30.0967 86.7151 30.53C87.4431 30.946 88.2491 31.154 89.1331 31.154C90.0171 31.154 90.8231 30.946 91.5511 30.53C92.2964 30.0967 92.8858 29.4813 93.3191 28.684C93.7524 27.8693 93.9691 26.9247 93.9691 25.85ZM105.663 30.816L110.083 18.752H112.605L107.015 33H104.259L98.6694 18.752H101.217L105.663 30.816ZM114.05 25.824C114.05 24.368 114.344 23.094 114.934 22.002C115.523 20.8927 116.329 20.0347 117.352 19.428C118.392 18.8213 119.544 18.518 120.81 18.518C122.058 18.518 123.141 18.7867 124.06 19.324C124.978 19.8613 125.663 20.5373 126.114 21.352V18.752H128.506V33H126.114V30.348C125.646 31.18 124.944 31.8733 124.008 32.428C123.089 32.9653 122.014 33.234 120.784 33.234C119.518 33.234 118.374 32.922 117.352 32.298C116.329 31.674 115.523 30.7987 114.934 29.672C114.344 28.5453 114.05 27.2627 114.05 25.824ZM126.114 25.85C126.114 24.7753 125.897 23.8393 125.464 23.042C125.03 22.2447 124.441 21.638 123.696 21.222C122.968 20.7887 122.162 20.572 121.278 20.572C120.394 20.572 119.588 20.78 118.86 21.196C118.132 21.612 117.551 22.2187 117.118 23.016C116.684 23.8133 116.468 24.7493 116.468 25.824C116.468 26.916 116.684 27.8693 117.118 28.684C117.551 29.4813 118.132 30.0967 118.86 30.53C119.588 30.946 120.394 31.154 121.278 31.154C122.162 31.154 122.968 30.946 123.696 30.53C124.441 30.0967 125.03 29.4813 125.464 28.684C125.897 27.8693 126.114 26.9247 126.114 25.85ZM137.548 33.234C136.456 33.234 135.477 33.052 134.61 32.688C133.743 32.3067 133.059 31.7867 132.556 31.128C132.053 30.452 131.776 29.6807 131.724 28.814H134.168C134.237 29.5247 134.567 30.1053 135.156 30.556C135.763 31.0067 136.551 31.232 137.522 31.232C138.423 31.232 139.134 31.0327 139.654 30.634C140.174 30.2353 140.434 29.7327 140.434 29.126C140.434 28.502 140.157 28.0427 139.602 27.748C139.047 27.436 138.189 27.1327 137.028 26.838C135.971 26.5607 135.104 26.2833 134.428 26.006C133.769 25.7113 133.197 25.2867 132.712 24.732C132.244 24.16 132.01 23.4147 132.01 22.496C132.01 21.768 132.227 21.1007 132.66 20.494C133.093 19.8873 133.709 19.4107 134.506 19.064C135.303 18.7 136.213 18.518 137.236 18.518C138.813 18.518 140.087 18.9167 141.058 19.714C142.029 20.5113 142.549 21.6033 142.618 22.99H140.252C140.2 22.2447 139.897 21.6467 139.342 21.196C138.805 20.7453 138.077 20.52 137.158 20.52C136.309 20.52 135.633 20.702 135.13 21.066C134.627 21.43 134.376 21.9067 134.376 22.496C134.376 22.964 134.523 23.354 134.818 23.666C135.13 23.9607 135.511 24.2033 135.962 24.394C136.43 24.5673 137.071 24.7667 137.886 24.992C138.909 25.2693 139.741 25.5467 140.382 25.824C141.023 26.084 141.569 26.4827 142.02 27.02C142.488 27.5573 142.731 28.2593 142.748 29.126C142.748 29.906 142.531 30.608 142.098 31.232C141.665 31.856 141.049 32.35 140.252 32.714C139.472 33.0607 138.571 33.234 137.548 33.234ZM145.204 25.85C145.204 24.3767 145.499 23.094 146.088 22.002C146.677 20.8927 147.492 20.0347 148.532 19.428C149.589 18.8213 150.794 18.518 152.146 18.518C153.897 18.518 155.335 18.9427 156.462 19.792C157.606 20.6413 158.36 21.82 158.724 23.328H156.176C155.933 22.4613 155.457 21.7767 154.746 21.274C154.053 20.7713 153.186 20.52 152.146 20.52C150.794 20.52 149.702 20.988 148.87 21.924C148.038 22.8427 147.622 24.1513 147.622 25.85C147.622 27.566 148.038 28.892 148.87 29.828C149.702 30.764 150.794 31.232 152.146 31.232C153.186 31.232 154.053 30.9893 154.746 30.504C155.439 30.0187 155.916 29.3253 156.176 28.424H158.724C158.343 29.88 157.58 31.05 156.436 31.934C155.292 32.8007 153.862 33.234 152.146 33.234C150.794 33.234 149.589 32.9307 148.532 32.324C147.492 31.7173 146.677 30.8593 146.088 29.75C145.499 28.6407 145.204 27.3407 145.204 25.85ZM164.247 21.066C164.663 20.2513 165.252 19.6187 166.015 19.168C166.795 18.7173 167.74 18.492 168.849 18.492V20.936H168.225C165.573 20.936 164.247 22.3747 164.247 25.252V33H161.881V18.752H164.247V21.066ZM172.802 16.438C172.351 16.438 171.97 16.282 171.658 15.97C171.346 15.658 171.19 15.2767 171.19 14.826C171.19 14.3753 171.346 13.994 171.658 13.682C171.97 13.37 172.351 13.214 172.802 13.214C173.235 13.214 173.599 13.37 173.894 13.682C174.206 13.994 174.362 14.3753 174.362 14.826C174.362 15.2767 174.206 15.658 173.894 15.97C173.599 16.282 173.235 16.438 172.802 16.438ZM173.946 18.752V33H171.58V18.752H173.946ZM180.345 21.378C180.813 20.5633 181.506 19.8873 182.425 19.35C183.361 18.7953 184.444 18.518 185.675 18.518C186.94 18.518 188.084 18.8213 189.107 19.428C190.147 20.0347 190.961 20.8927 191.551 22.002C192.14 23.094 192.435 24.368 192.435 25.824C192.435 27.2627 192.14 28.5453 191.551 29.672C190.961 30.7987 190.147 31.674 189.107 32.298C188.084 32.922 186.94 33.234 185.675 33.234C184.461 33.234 183.387 32.9653 182.451 32.428C181.532 31.8733 180.83 31.1887 180.345 30.374V39.76H177.979V18.752H180.345V21.378ZM190.017 25.824C190.017 24.7493 189.8 23.8133 189.367 23.016C188.933 22.2187 188.344 21.612 187.599 21.196C186.871 20.78 186.065 20.572 185.181 20.572C184.314 20.572 183.508 20.7887 182.763 21.222C182.035 21.638 181.445 22.2533 180.995 23.068C180.561 23.8653 180.345 24.7927 180.345 25.85C180.345 26.9247 180.561 27.8693 180.995 28.684C181.445 29.4813 182.035 30.0967 182.763 30.53C183.508 30.946 184.314 31.154 185.181 31.154C186.065 31.154 186.871 30.946 187.599 30.53C188.344 30.0967 188.933 29.4813 189.367 28.684C189.8 27.8693 190.017 26.916 190.017 25.824ZM198.435 20.702V29.1C198.435 29.7933 198.582 30.2873 198.877 30.582C199.172 30.8593 199.683 30.998 200.411 30.998H202.153V33H200.021C198.704 33 197.716 32.6967 197.057 32.09C196.398 31.4833 196.069 30.4867 196.069 29.1V20.702H194.223V18.752H196.069V15.164H198.435V18.752H202.153V20.702H198.435Z" fill="white"/>
<g clip-path="url(#clip0_1_16)">
<path fill-rule="evenodd" clip-rule="evenodd" d="M54 10H26V37H54V10ZM40.9333 24.4C40.9333 22.4118 42.6048 20.8 44.6667 20.8H46.8445C48.7345 20.8 50.2667 22.2775 50.2667 24.1V24.4H48.4V24.1C48.4 23.2716 47.7035 22.6 46.8445 22.6H44.6667C43.6357 22.6 42.8 23.4059 42.8 24.4C42.8 25.3941 43.6357 26.2 44.6667 26.2H46.5333C48.5953 26.2 50.2667 27.8118 50.2667 29.8C50.2667 31.7883 48.5953 33.4 46.5333 33.4H44.6667C42.6048 33.4 40.9333 31.7883 40.9333 29.8H42.8C42.8 30.7941 43.6357 31.6 44.6667 31.6H46.5333C47.5643 31.6 48.4 30.7941 48.4 29.8C48.4 28.8059 47.5643 28 46.5333 28H44.6667C42.6048 28 40.9333 26.3882 40.9333 24.4ZM37.2 20.8V29.8C37.2 30.7941 36.3643 31.6 35.3333 31.6C34.3024 31.6 33.4667 30.7941 33.4667 29.8H31.6C31.6 31.7883 33.2715 33.4 35.3333 33.4C37.3952 33.4 39.0667 31.7883 39.0667 29.8V20.8H37.2Z" fill="#D9D9D9"/>
</g>
<defs>
<clipPath id="clip0_1_16">
<rect width="28" height="27" fill="white" transform="translate(26 10)"/>
</clipPath>
</defs>
</svg>
