<svg width="157" height="46" viewBox="0 0 157 46" fill="none" xmlns="http://www.w3.org/2000/svg">
<rect width="157" height="46" rx="5" fill="#8B6AD3"/>
<path d="M74.128 15.878V29.268C74.128 30.7587 73.6687 31.9547 72.75 32.856C71.8313 33.74 70.618 34.182 69.11 34.182C67.5847 34.182 66.3627 33.7313 65.444 32.83C64.5253 31.9113 64.066 30.6633 64.066 29.086H66.432C66.4493 29.97 66.6747 30.6893 67.108 31.244C67.5587 31.7987 68.226 32.076 69.11 32.076C69.994 32.076 70.6527 31.816 71.086 31.296C71.5193 30.7587 71.736 30.0827 71.736 29.268V15.878H74.128ZM77.9051 26.824C77.9051 25.368 78.1998 24.094 78.7891 23.002C79.3784 21.8927 80.1844 21.0347 81.2071 20.428C82.2471 19.8213 83.3998 19.518 84.6651 19.518C85.9131 19.518 86.9964 19.7867 87.9151 20.324C88.8338 20.8613 89.5184 21.5373 89.9691 22.352V19.752H92.3611V34H89.9691V31.348C89.5011 32.18 88.7991 32.8733 87.8631 33.428C86.9444 33.9653 85.8698 34.234 84.6391 34.234C83.3738 34.234 82.2298 33.922 81.2071 33.298C80.1844 32.674 79.3784 31.7987 78.7891 30.672C78.1998 29.5453 77.9051 28.2627 77.9051 26.824ZM89.9691 26.85C89.9691 25.7753 89.7524 24.8393 89.3191 24.042C88.8858 23.2447 88.2964 22.638 87.5511 22.222C86.8231 21.7887 86.0171 21.572 85.1331 21.572C84.2491 21.572 83.4431 21.78 82.7151 22.196C81.9871 22.612 81.4064 23.2187 80.9731 24.016C80.5398 24.8133 80.3231 25.7493 80.3231 26.824C80.3231 27.916 80.5398 28.8693 80.9731 29.684C81.4064 30.4813 81.9871 31.0967 82.7151 31.53C83.4431 31.946 84.2491 32.154 85.1331 32.154C86.0171 32.154 86.8231 31.946 87.5511 31.53C88.2964 31.0967 88.8858 30.4813 89.3191 29.684C89.7524 28.8693 89.9691 27.9247 89.9691 26.85ZM101.663 31.816L106.083 19.752H108.605L103.015 34H100.259L94.6694 19.752H97.2174L101.663 31.816ZM110.05 26.824C110.05 25.368 110.344 24.094 110.934 23.002C111.523 21.8927 112.329 21.0347 113.352 20.428C114.392 19.8213 115.544 19.518 116.81 19.518C118.058 19.518 119.141 19.7867 120.06 20.324C120.978 20.8613 121.663 21.5373 122.114 22.352V19.752H124.506V34H122.114V31.348C121.646 32.18 120.944 32.8733 120.008 33.428C119.089 33.9653 118.014 34.234 116.784 34.234C115.518 34.234 114.374 33.922 113.352 33.298C112.329 32.674 111.523 31.7987 110.934 30.672C110.344 29.5453 110.05 28.2627 110.05 26.824ZM122.114 26.85C122.114 25.7753 121.897 24.8393 121.464 24.042C121.03 23.2447 120.441 22.638 119.696 22.222C118.968 21.7887 118.162 21.572 117.278 21.572C116.394 21.572 115.588 21.78 114.86 22.196C114.132 22.612 113.551 23.2187 113.118 24.016C112.684 24.8133 112.468 25.7493 112.468 26.824C112.468 27.916 112.684 28.8693 113.118 29.684C113.551 30.4813 114.132 31.0967 114.86 31.53C115.588 31.946 116.394 32.154 117.278 32.154C118.162 32.154 118.968 31.946 119.696 31.53C120.441 31.0967 121.03 30.4813 121.464 29.684C121.897 28.8693 122.114 27.9247 122.114 26.85Z" fill="white"/>
<path d="M39.5227 22.3307C39.5227 22.3307 37.5158 18.4636 37.5899 15.6379C37.644 13.6186 42.1971 11.6225 43.9846 8.72414C45.769 5.82418 43.7621 3 43.7621 3C43.7621 3 44.2086 5.08259 43.0189 7.23631C41.8293 9.3931 37.4385 10.6584 35.7313 14.3757C34.0242 18.0929 39.5227 22.3307 39.5227 22.3307Z" fill="#D9D9D9"/>
<path d="M47.0344 10.5827C47.0344 10.5827 40.1948 13.186 40.1948 16.1585C40.1948 19.1341 42.0518 20.0997 42.3516 21.0654C42.6482 22.0341 41.8309 23.6686 41.8309 23.6686C41.8309 23.6686 44.5069 21.81 44.0588 19.6533C43.6123 17.4965 41.5312 16.826 42.7224 14.6723C43.518 13.2277 47.0344 10.5827 47.0344 10.5827Z" fill="#D9D9D9"/>
<path d="M38.7811 26.2596C45.1016 26.034 47.4067 24.0394 47.4067 24.0394C43.3188 25.1534 32.4622 25.0808 32.3865 24.2635C32.3139 23.4462 35.7314 22.7756 35.7314 22.7756C35.7314 22.7756 30.3796 22.7756 29.9331 24.1136C29.4866 25.4516 32.4652 26.4805 38.7811 26.2596Z" fill="#D9D9D9"/>
<path d="M47.9258 29.3928C47.9258 29.3928 54.1118 28.0734 53.5 24.7131C52.7584 20.622 48.4448 22.9271 48.4448 22.9271C48.4448 22.9271 51.4962 22.9271 51.7912 24.7841C52.0895 26.6427 47.9258 29.3928 47.9258 29.3928Z" fill="#D9D9D9"/>
<path d="M44.8776 27.6099C44.8776 27.6099 43.3187 28.0193 41.009 28.2788C37.9128 28.6264 34.1694 28.3515 33.8712 27.8308C33.5777 27.3101 34.3918 27.0135 34.3918 27.0135C30.6731 27.9065 32.7078 29.4653 37.0662 29.7651C40.8019 30.02 46.3622 28.6496 46.3622 28.6496L44.8776 27.6099Z" fill="#D9D9D9"/>
<path d="M35.2879 30.8574C35.2879 30.8574 33.6008 30.9053 33.5019 31.7983C33.4046 32.6852 34.5402 33.4823 38.7053 33.7296C42.869 33.9768 45.7952 32.5909 45.7952 32.5909L43.9119 31.4477C43.9119 31.4477 42.7207 31.6979 40.8868 31.9452C39.0514 32.1939 35.2878 31.7458 35.1395 31.4013C34.9882 31.0536 35.2879 30.8574 35.2879 30.8574Z" fill="#D9D9D9"/>
<path d="M51.4931 34.8728C52.1374 34.1775 51.2938 33.6322 51.2938 33.6322C51.2938 33.6322 51.5905 33.9798 51.198 34.3753C50.801 34.7708 47.1811 35.7612 41.3813 36.0593C35.583 36.3575 29.2872 35.5139 29.0879 34.7708C28.8948 34.0277 32.3122 33.4344 32.3122 33.4344C31.9167 33.4838 27.1582 33.5828 27.0068 34.8728C26.8585 36.1597 29.0879 37.201 38.0132 37.201C46.9339 37.1995 50.852 35.5634 51.4931 34.8728Z" fill="#D9D9D9"/>
<path d="M48.0247 37.7959C44.1082 38.5869 32.215 38.0879 32.215 38.0879C32.215 38.0879 39.9445 39.9233 48.7678 38.3876C52.9855 37.6522 53.2312 35.6113 53.2312 35.6113C53.2312 35.6113 51.9412 37.0002 48.0247 37.7959Z" fill="#D9D9D9"/>
</svg>
