<svg width="178" height="45" viewBox="0 0 178 45" fill="none" xmlns="http://www.w3.org/2000/svg">
<rect width="178" height="45" rx="5" fill="#8B6AD3"/>
<path d="M64.368 32.076H70.712V34H62.002V15.878H64.368V32.076ZM74.4467 17.438C73.996 17.438 73.6147 17.282 73.3027 16.97C72.9907 16.658 72.8347 16.2767 72.8347 15.826C72.8347 15.3753 72.9907 14.994 73.3027 14.682C73.6147 14.37 73.996 14.214 74.4467 14.214C74.88 14.214 75.244 14.37 75.5387 14.682C75.8507 14.994 76.0067 15.3753 76.0067 15.826C76.0067 16.2767 75.8507 16.658 75.5387 16.97C75.244 17.282 74.88 17.438 74.4467 17.438ZM75.5907 19.752V34H73.2247V19.752H75.5907ZM86.5651 19.492C88.2984 19.492 89.7024 20.0207 90.7771 21.078C91.8518 22.118 92.3891 23.626 92.3891 25.602V34H90.0491V25.94C90.0491 24.5187 89.6938 23.4353 88.9831 22.69C88.2724 21.9273 87.3018 21.546 86.0711 21.546C84.8231 21.546 83.8264 21.936 83.0811 22.716C82.3531 23.496 81.9891 24.6313 81.9891 26.122V34H79.6231V19.752H81.9891V21.78C82.4571 21.052 83.0898 20.4887 83.8871 20.09C84.7018 19.6913 85.5944 19.492 86.5651 19.492ZM104.21 34L98.62 27.708V34H96.254V14.76H98.62V26.07L104.106 19.752H107.408L100.7 26.85L107.434 34H104.21ZM122.635 26.33C122.635 26.7807 122.609 27.2573 122.557 27.76H111.169C111.255 29.164 111.732 30.2647 112.599 31.062C113.483 31.842 114.549 32.232 115.797 32.232C116.819 32.232 117.669 31.998 118.345 31.53C119.038 31.0447 119.523 30.4033 119.801 29.606H122.349C121.967 30.9753 121.205 32.0933 120.061 32.96C118.917 33.8093 117.495 34.234 115.797 34.234C114.445 34.234 113.231 33.9307 112.157 33.324C111.099 32.7173 110.267 31.8593 109.661 30.75C109.054 29.6233 108.751 28.3233 108.751 26.85C108.751 25.3767 109.045 24.0853 109.635 22.976C110.224 21.8667 111.047 21.0173 112.105 20.428C113.179 19.8213 114.41 19.518 115.797 19.518C117.149 19.518 118.345 19.8127 119.385 20.402C120.425 20.9913 121.222 21.806 121.777 22.846C122.349 23.8687 122.635 25.03 122.635 26.33ZM120.191 25.836C120.191 24.9347 119.991 24.1633 119.593 23.522C119.194 22.8633 118.648 22.3693 117.955 22.04C117.279 21.6933 116.525 21.52 115.693 21.52C114.497 21.52 113.474 21.9013 112.625 22.664C111.793 23.4267 111.316 24.484 111.195 25.836H120.191ZM124.874 26.824C124.874 25.368 125.169 24.094 125.758 23.002C126.347 21.8927 127.153 21.0347 128.176 20.428C129.216 19.8213 130.377 19.518 131.66 19.518C132.769 19.518 133.801 19.778 134.754 20.298C135.707 20.8007 136.435 21.468 136.938 22.3V14.76H139.33V34H136.938V31.322C136.47 32.1713 135.777 32.8733 134.858 33.428C133.939 33.9653 132.865 34.234 131.634 34.234C130.369 34.234 129.216 33.922 128.176 33.298C127.153 32.674 126.347 31.7987 125.758 30.672C125.169 29.5453 124.874 28.2627 124.874 26.824ZM136.938 26.85C136.938 25.7753 136.721 24.8393 136.288 24.042C135.855 23.2447 135.265 22.638 134.52 22.222C133.792 21.7887 132.986 21.572 132.102 21.572C131.218 21.572 130.412 21.78 129.684 22.196C128.956 22.612 128.375 23.2187 127.942 24.016C127.509 24.8133 127.292 25.7493 127.292 26.824C127.292 27.916 127.509 28.8693 127.942 29.684C128.375 30.4813 128.956 31.0967 129.684 31.53C130.412 31.946 131.218 32.154 132.102 32.154C132.986 32.154 133.792 31.946 134.52 31.53C135.265 31.0967 135.855 30.4813 136.288 29.684C136.721 28.8693 136.938 27.9247 136.938 26.85ZM144.55 17.438C144.1 17.438 143.718 17.282 143.406 16.97C143.094 16.658 142.938 16.2767 142.938 15.826C142.938 15.3753 143.094 14.994 143.406 14.682C143.718 14.37 144.1 14.214 144.55 14.214C144.984 14.214 145.348 14.37 145.642 14.682C145.954 14.994 146.11 15.3753 146.11 15.826C146.11 16.2767 145.954 16.658 145.642 16.97C145.348 17.282 144.984 17.438 144.55 17.438ZM145.694 19.752V34H143.328V19.752H145.694ZM156.669 19.492C158.402 19.492 159.806 20.0207 160.881 21.078C161.955 22.118 162.493 23.626 162.493 25.602V34H160.153V25.94C160.153 24.5187 159.797 23.4353 159.087 22.69C158.376 21.9273 157.405 21.546 156.175 21.546C154.927 21.546 153.93 21.936 153.185 22.716C152.457 23.496 152.093 24.6313 152.093 26.122V34H149.727V19.752H152.093V21.78C152.561 21.052 153.193 20.4887 153.991 20.09C154.805 19.6913 155.698 19.492 156.669 19.492Z" fill="white"/>
<path d="M31.3958 18.3333C32.4659 18.3333 33.3333 17.4659 33.3333 16.3958C33.3333 15.3258 32.4659 14.4583 31.3958 14.4583C30.3258 14.4583 29.4583 15.3258 29.4583 16.3958C29.4583 17.4659 30.3258 18.3333 31.3958 18.3333Z" fill="#D9D9D9"/>
<path d="M29.4583 20.9167C29.4583 20.2033 30.0366 19.625 30.75 19.625H32.0417C32.755 19.625 33.3333 20.2033 33.3333 20.9167V31.25C33.3333 31.9634 32.755 32.5417 32.0417 32.5417H30.75C30.0366 32.5417 29.4583 31.9634 29.4583 31.25V20.9167Z" fill="#D9D9D9"/>
<path d="M37.2083 32.5417H38.5C39.2134 32.5417 39.7917 31.9634 39.7917 31.25V25.4375C39.7917 23.5 43.6667 22.2083 43.6667 24.7917V31.2505C43.6667 31.9639 44.245 32.5417 44.9583 32.5417H46.25C46.9634 32.5417 47.5417 31.9634 47.5417 31.25V23.5C47.5417 20.9167 45.6042 19.625 43.0208 19.625C40.4375 19.625 39.7917 21.5625 39.7917 21.5625V20.9167C39.7917 20.2033 39.2134 19.625 38.5 19.625H37.2083C36.495 19.625 35.9167 20.2033 35.9167 20.9167V31.25C35.9167 31.9634 36.495 32.5417 37.2083 32.5417Z" fill="#D9D9D9"/>
<path fill-rule="evenodd" clip-rule="evenodd" d="M48.8333 9.29167C50.9735 9.29167 52.7083 11.0266 52.7083 13.1667V33.8333C52.7083 35.9735 50.9735 37.7083 48.8333 37.7083H28.1667C26.0266 37.7083 24.2917 35.9735 24.2917 33.8333V13.1667C24.2917 11.0266 26.0266 9.29167 28.1667 9.29167H48.8333ZM48.8333 11.875C49.5467 11.875 50.125 12.4533 50.125 13.1667V33.8333C50.125 34.5467 49.5467 35.125 48.8333 35.125H28.1667C27.4533 35.125 26.875 34.5467 26.875 33.8333V13.1667C26.875 12.4533 27.4533 11.875 28.1667 11.875H48.8333Z" fill="#D9D9D9"/>
</svg>
