<svg width="164" height="48" viewBox="0 0 164 48" fill="none" xmlns="http://www.w3.org/2000/svg">
<rect width="164" height="48" rx="5" fill="#8B6AD3"/>
<path d="M71.368 31.076H77.712V33H69.002V14.878H71.368V31.076ZM81.4467 16.438C80.996 16.438 80.6147 16.282 80.3027 15.97C79.9907 15.658 79.8347 15.2767 79.8347 14.826C79.8347 14.3753 79.9907 13.994 80.3027 13.682C80.6147 13.37 80.996 13.214 81.4467 13.214C81.88 13.214 82.244 13.37 82.5387 13.682C82.8507 13.994 83.0067 14.3753 83.0067 14.826C83.0067 15.2767 82.8507 15.658 82.5387 15.97C82.244 16.282 81.88 16.438 81.4467 16.438ZM82.5907 18.752V33H80.2247V18.752H82.5907ZM93.5651 18.492C95.2984 18.492 96.7024 19.0207 97.7771 20.078C98.8518 21.118 99.3891 22.626 99.3891 24.602V33H97.0491V24.94C97.0491 23.5187 96.6938 22.4353 95.9831 21.69C95.2724 20.9273 94.3018 20.546 93.0711 20.546C91.8231 20.546 90.8264 20.936 90.0811 21.716C89.3531 22.496 88.9891 23.6313 88.9891 25.122V33H86.6231V18.752H88.9891V20.78C89.4571 20.052 90.0898 19.4887 90.8871 19.09C91.7018 18.6913 92.5944 18.492 93.5651 18.492ZM115.89 18.752V33H113.524V30.894C113.073 31.622 112.441 32.194 111.626 32.61C110.829 33.0087 109.945 33.208 108.974 33.208C107.865 33.208 106.868 32.9827 105.984 32.532C105.1 32.064 104.398 31.3707 103.878 30.452C103.375 29.5333 103.124 28.4153 103.124 27.098V18.752H105.464V26.786C105.464 28.19 105.819 29.2733 106.53 30.036C107.241 30.7813 108.211 31.154 109.442 31.154C110.707 31.154 111.704 30.764 112.432 29.984C113.16 29.204 113.524 28.0687 113.524 26.578V18.752H115.89ZM127.321 33L123.941 27.696L120.691 33H118.221L122.823 25.928L118.221 18.752H120.899L124.279 24.03L127.503 18.752H129.973L125.397 25.798L129.999 33H127.321Z" fill="white"/>
<path d="M38.322 14.8375C38.2947 14.9162 38.1678 14.9042 38.0956 14.9272C38.0311 14.9611 37.9786 15.0201 37.9042 15.0201C37.8364 15.0201 37.727 14.9928 37.7183 14.9272C37.7052 14.8375 37.8386 14.7456 37.9228 14.7456C37.9775 14.7194 38.0409 14.7051 38.1077 14.7051C38.1689 14.7051 38.2269 14.7172 38.2794 14.7401L38.2761 14.7391C38.3002 14.7489 38.3177 14.7719 38.3177 14.7992C38.3177 14.8025 38.3177 14.8047 38.3166 14.808V14.8353H38.3209L38.322 14.8375ZM39.0745 14.8375V14.808C39.0658 14.7806 39.092 14.7511 39.1139 14.7401C39.1642 14.7183 39.2233 14.7051 39.2856 14.7051C39.3523 14.7051 39.4158 14.7205 39.4716 14.7467L39.4694 14.7456C39.5558 14.7456 39.6881 14.8375 39.6739 14.9305C39.6663 14.9972 39.558 15.0201 39.4891 15.0201C39.4136 15.0201 39.3633 14.9611 39.2966 14.9272C39.2255 14.902 39.0975 14.9162 39.0734 14.8386L39.0745 14.8375ZM40.5533 17.0009C39.9714 17.3695 39.2834 17.6287 38.5463 17.7294L38.52 17.7326C37.8572 17.6944 37.2545 17.4614 36.7623 17.0895L36.77 17.095C36.56 16.9123 36.3872 16.7286 36.2603 16.6367C36.0361 16.4541 36.0634 16.1817 36.1597 16.1817C36.3084 16.2036 36.3358 16.3644 36.432 16.4551C36.5633 16.5448 36.7263 16.7286 36.9242 16.9101C37.3584 17.2689 37.9075 17.5019 38.5102 17.5478L38.52 17.5489C39.2353 17.4866 39.8861 17.2569 40.4483 16.9014L40.4308 16.9123C40.6977 16.7275 41.0389 16.4562 41.3167 16.2736C41.53 16.0876 41.5202 15.9083 41.6984 15.9083C41.8734 15.9301 41.7455 16.0909 41.4972 16.3622C41.2281 16.5678 40.9208 16.7789 40.6025 16.9747L40.5544 17.002L40.5533 17.0009ZM30.7686 29.403H30.7817C30.8572 29.403 30.9316 29.4106 31.0038 29.4237L30.9961 29.4226C31.5911 29.5758 32.0811 29.9455 32.3884 30.4409L32.3939 30.4508L33.6375 32.7247L33.6419 32.729C34.1417 33.5745 34.6788 34.3062 35.2792 34.9811L35.2672 34.9669C35.8031 35.5356 36.1641 36.275 36.2614 37.0953L36.2636 37.1128V37.1215C36.2505 38.0151 35.5931 38.7523 34.7367 38.889L34.7269 38.8901C34.5081 38.924 34.2544 38.9426 33.9973 38.9426C33.06 38.9426 32.1828 38.6878 31.4303 38.2426L31.4533 38.2558C30.3016 37.7734 28.965 37.4748 27.565 37.4333H27.5486C27.1417 37.4059 26.7873 37.1981 26.5631 36.8908L26.5609 36.8875C26.5019 36.6972 26.468 36.4784 26.468 36.2509C26.468 35.8681 26.5642 35.5083 26.7348 35.1944L26.7294 35.2064V35.2009L26.7327 35.1965C26.7775 34.9909 26.8038 34.7536 26.8038 34.5108C26.8038 34.2111 26.7644 33.9212 26.69 33.6456L26.6955 33.6686C26.6506 33.5045 26.6244 33.3153 26.6244 33.1195C26.6244 32.8548 26.6714 32.6022 26.7589 32.3681L26.7545 32.3834C26.9733 31.9273 27.2959 31.8365 27.6973 31.655C28.1764 31.5095 28.5931 31.2897 28.9563 31.0064L28.9475 31.013H28.9497V31.0097C29.2997 30.6433 29.5578 30.1883 29.863 29.8645C30.0763 29.5922 30.4011 29.4161 30.7675 29.4051H30.7697L30.7686 29.403ZM45.5495 29.3362C45.5484 29.3548 45.5484 29.3778 45.5484 29.4008C45.5484 30.2134 46.0395 30.9112 46.7417 31.2142L46.7548 31.2197C46.8073 31.223 46.8686 31.2251 46.9298 31.2251C47.8388 31.2251 48.6525 30.8194 49.1994 30.1784L49.2027 30.174L49.4914 30.1609C49.5494 30.1522 49.6161 30.1478 49.6839 30.1478C50.0569 30.1478 50.397 30.2922 50.6497 30.5284L50.6486 30.5273L50.653 30.5317C50.9253 30.8609 51.1145 31.2678 51.1856 31.7151L51.1878 31.7294C51.248 32.2817 51.4481 32.7794 51.7533 33.195L51.7478 33.1862C52.2028 33.5756 52.5189 34.1159 52.6152 34.7295L52.6173 34.7437L52.6217 34.7339V34.758L52.6173 34.7415C52.5966 35.0992 52.3647 35.283 51.937 35.5553C50.642 36.0989 49.5297 36.8219 48.5716 37.7078L48.5792 37.7012C47.9142 38.5675 46.9375 39.1658 45.8197 39.3265L45.7967 39.3287C45.7158 39.3397 45.6217 39.3462 45.5266 39.3462C44.6866 39.3462 43.9647 38.8387 43.6497 38.1147L43.6442 38.1015L43.6377 38.0972C43.5359 37.7844 43.478 37.4245 43.478 37.0515C43.478 36.5965 43.5644 36.1623 43.723 35.7631L43.7142 35.7872C43.9702 35.0565 44.19 34.1837 44.3355 33.2847L44.3475 33.1939C44.365 32.3058 44.4613 31.4515 44.6297 30.6236L44.6144 30.7144C44.7074 30.1478 45.0311 29.6709 45.4828 29.3745L45.4905 29.3701L45.5517 29.3406L45.5495 29.3362ZM42.5625 17.0928C43.2188 19.4411 44.027 21.47 45.0202 23.3895L44.9338 23.2069C45.6042 24.3991 46.1259 25.7826 46.4245 27.2483L46.4398 27.3401C46.4497 27.3401 46.4617 27.3401 46.4738 27.3401C46.7111 27.3401 46.9408 27.3719 47.1595 27.432L47.1409 27.4276C47.2613 26.9956 47.3302 26.5001 47.3302 25.9883C47.3302 24.4286 46.6881 23.0176 45.6534 22.0081L45.6523 22.007C45.3516 21.7336 45.3352 21.5487 45.4839 21.5487C46.5459 22.544 47.3313 23.8216 47.7206 25.2609L47.7338 25.3167C47.8311 25.6765 47.8869 26.09 47.8869 26.5165C47.8869 26.9005 47.842 27.2745 47.7567 27.6322L47.7633 27.5994C47.8442 27.6409 47.9383 27.6726 48.0378 27.6901L48.0444 27.6912C49.4553 28.4208 49.9759 28.9731 49.7255 29.7923V29.7333C49.6434 29.7289 49.5614 29.7333 49.4794 29.7333H49.4575C49.6642 29.0945 49.2092 28.6056 48.0017 28.0598C46.7516 27.513 45.7519 27.6005 45.5823 28.6953C45.5703 28.7489 45.5616 28.8112 45.5583 28.8758V28.879C45.4784 28.9119 45.3833 28.9425 45.2848 28.9644L45.2728 28.9665C44.7172 29.334 44.3213 29.9061 44.1911 30.5733L44.1889 30.5886C44.027 31.3487 43.9253 32.2292 43.9089 33.1294V33.1425V33.1469C43.8094 33.8436 43.6573 34.467 43.4517 35.0642L43.4736 34.992C42.3984 35.8714 41.0116 36.403 39.4989 36.403C38.263 36.403 37.1102 36.0475 36.1378 35.4328L36.1641 35.4481C36.0044 35.1714 35.8217 34.9319 35.6139 34.7186L35.615 34.7197C35.5089 34.5447 35.3842 34.3948 35.2409 34.2658L35.2388 34.2647C35.4652 34.2647 35.6839 34.2308 35.8906 34.1684L35.8742 34.1728C36.0711 34.0798 36.222 33.919 36.3019 33.7222L36.3041 33.7167C36.3238 33.615 36.3358 33.499 36.3358 33.3798C36.3358 32.8931 36.1444 32.4523 35.8316 32.1264L35.8327 32.1275C35.1556 31.2951 34.3463 30.6017 33.4308 30.0712L33.3892 30.0494C32.6553 29.625 32.0997 28.9611 31.8252 28.1659L31.8175 28.1419C31.7158 27.794 31.6567 27.3937 31.6567 26.9803C31.6567 26.5942 31.7081 26.2201 31.8033 25.8636L31.7967 25.8931C32.2091 24.4559 32.8041 23.2014 33.5686 22.0694L33.538 22.1164C33.6845 22.0278 33.5883 22.3012 32.9802 23.4475C32.4617 24.2273 32.1522 25.1866 32.1522 26.218C32.1522 27.1367 32.3972 27.9975 32.8259 28.7401L32.8128 28.7161C32.8697 27.2844 33.1902 25.9412 33.725 24.7141L33.6977 24.7851C34.8516 22.7048 35.7255 20.2887 36.1859 17.7283L36.2078 17.585C36.2734 17.6342 36.5042 17.7698 36.6027 17.8606C36.9002 18.0422 37.1222 18.3156 37.4088 18.4961C37.7008 18.7805 38.1011 18.9555 38.5408 18.9555C38.5638 18.9555 38.5867 18.9555 38.6097 18.9544H38.6064C38.66 18.9587 38.7092 18.9631 38.7563 18.9631C39.2583 18.9533 39.7264 18.8187 40.1333 18.5891L40.1191 18.5967C40.515 18.4141 40.83 18.1406 41.1308 18.0498H41.1373C41.7225 17.8912 42.2125 17.5533 42.5592 17.0994L42.5636 17.0928H42.5625ZM38.7355 14.1648C38.7388 14.1648 38.742 14.1648 38.7453 14.1648C39.3677 14.1648 39.9419 14.3694 40.4045 14.715L40.3969 14.7095C40.8103 14.9655 41.2872 15.1831 41.7914 15.3373L41.8352 15.3483H41.8395C42.1086 15.4686 42.3306 15.6556 42.4892 15.8886L42.4925 15.8941V15.7147C42.5428 15.8153 42.5734 15.9345 42.5734 16.0603C42.5734 16.1675 42.5516 16.2692 42.5133 16.3622L42.5155 16.3567C42.2005 16.9112 41.6897 17.3236 41.0794 17.503L41.0619 17.5073V17.5095C40.6955 17.6944 40.3772 17.9645 40.0031 18.145C39.6203 18.3747 39.1598 18.5103 38.6666 18.5103C38.6502 18.5103 38.6338 18.5103 38.6173 18.5103H38.6195C38.5955 18.5114 38.567 18.5125 38.5386 18.5125C38.3483 18.5125 38.1645 18.4786 37.9961 18.4151L38.007 18.4184C37.8331 18.3233 37.6898 18.2336 37.5509 18.1373L37.5663 18.1483C37.318 17.9306 37.0445 17.7217 36.758 17.5303L36.7295 17.5128V17.5062H36.723C36.3128 17.2886 35.9902 16.955 35.7911 16.5481L35.7856 16.535C35.7561 16.4617 35.7397 16.3764 35.7397 16.2878C35.7397 16.0494 35.8622 15.8394 36.047 15.7169L36.0492 15.7158C36.3555 15.5309 36.5688 15.345 36.7098 15.2564C36.852 15.1558 36.9056 15.1175 36.9505 15.077H36.9527V15.0726C37.2458 14.7019 37.6341 14.4175 38.0814 14.2567L38.0989 14.2512C38.2892 14.1966 38.508 14.1648 38.7344 14.1626L38.7355 14.1648ZM36.863 11.833H36.9122C37.1178 11.8373 37.307 11.9062 37.4602 12.0189L37.458 12.0167C37.6538 12.1906 37.8134 12.4017 37.9228 12.6401L37.9272 12.6522C38.0508 12.9201 38.1273 13.2319 38.1361 13.56V13.5633V13.5687C38.1405 13.6191 38.1427 13.677 38.1427 13.735C38.1427 13.8039 38.1394 13.8728 38.1328 13.9406L38.1339 13.9319V14.0412C38.0934 14.0511 38.0573 14.0653 38.0202 14.0741C37.8113 14.1605 37.6352 14.2523 37.4678 14.3562L37.4831 14.3475C37.4919 14.2873 37.4963 14.2184 37.4963 14.1484C37.4963 14.0905 37.493 14.0325 37.4864 13.9756L37.4875 13.9822V13.9614C37.4678 13.793 37.4284 13.6387 37.3705 13.4933L37.3748 13.5053C37.33 13.3609 37.2513 13.2384 37.1484 13.1411C37.0883 13.0864 37.0084 13.0525 36.9198 13.0525C36.9122 13.0525 36.9045 13.0525 36.8969 13.0536H36.898H36.8695C36.7569 13.0656 36.6628 13.1356 36.6158 13.2319L36.6147 13.2341C36.5305 13.3358 36.4725 13.4616 36.4506 13.5994V13.6037C36.4255 13.6978 36.4123 13.8061 36.4123 13.9176C36.4123 13.9658 36.4145 14.0139 36.42 14.0609V14.0555V14.0762C36.4375 14.2447 36.4769 14.4 36.5338 14.5444L36.5294 14.5323C36.5753 14.6767 36.653 14.8003 36.7558 14.8987C36.7689 14.9119 36.7842 14.9228 36.8017 14.9316H36.8028C36.712 14.9895 36.6333 15.0508 36.5611 15.1186L36.5622 15.1175C36.513 15.1612 36.4528 15.1941 36.3861 15.2094L36.3828 15.2105C36.2483 15.0497 36.1236 14.8692 36.0164 14.6789L36.0077 14.6614C35.8841 14.3934 35.8075 14.0828 35.7955 13.7536V13.7492C35.7911 13.6967 35.7889 13.6355 35.7889 13.5731C35.7889 13.3095 35.8316 13.0558 35.9092 12.8184L35.9048 12.8359C35.9858 12.5537 36.1181 12.3098 36.2942 12.102L36.292 12.1053C36.4309 11.9412 36.6344 11.8373 36.863 11.8319H36.8641L36.863 11.833ZM40.912 11.752H40.9295C40.9306 11.752 40.9317 11.752 40.9339 11.752C41.2347 11.752 41.5103 11.8537 41.7313 12.0244L41.728 12.0222C41.9784 12.2158 42.1797 12.4597 42.3208 12.7386L42.3263 12.7506C42.4586 13.0416 42.5406 13.3795 42.5527 13.7361V13.7405C42.5527 13.7131 42.5603 13.6858 42.5603 13.6584V13.8017L42.5548 13.7733L42.5494 13.7405C42.5461 14.0905 42.4717 14.4208 42.3383 14.7216L42.3448 14.7062C42.277 14.8845 42.1786 15.0376 42.0539 15.1645C42.0211 15.1448 41.9806 15.1262 41.9402 15.1098L41.9336 15.1076C41.7859 15.0617 41.6569 14.9994 41.5398 14.9228L41.5453 14.9261C41.4611 14.8911 41.3605 14.8605 41.2566 14.8375L41.2445 14.8353C41.3331 14.7522 41.4152 14.6636 41.4906 14.5695L41.495 14.5641C41.5639 14.4022 41.6066 14.2151 41.6153 14.0183V14.015V13.9876C41.6153 13.9789 41.6153 13.9701 41.6153 13.9603C41.6153 13.7744 41.5847 13.5961 41.5278 13.4298L41.5311 13.4419C41.4622 13.268 41.378 13.1181 41.2773 12.9814L41.2817 12.9869C41.1866 12.8906 41.0608 12.825 40.9197 12.8064H40.9164H40.8945C40.8934 12.8064 40.8913 12.8064 40.8902 12.8064C40.7458 12.8064 40.6167 12.8775 40.538 12.9858L40.5369 12.9869C40.41 13.1105 40.3138 13.2636 40.2591 13.4353L40.2569 13.443C40.188 13.6037 40.1431 13.7908 40.1344 13.9855V13.9887V14.015C40.1366 14.1462 40.1464 14.2731 40.1639 14.3967L40.1617 14.3803C39.8981 14.2884 39.5634 14.1955 39.3316 14.1047C39.3184 14.0248 39.3097 13.9308 39.3075 13.8345V13.8312V13.8039C39.3064 13.782 39.3064 13.7569 39.3064 13.7317C39.3064 13.3773 39.3819 13.0416 39.5186 12.7386L39.512 12.7539C39.628 12.4487 39.8325 12.1983 40.0939 12.0287L40.0994 12.0255C40.3225 11.8548 40.6058 11.752 40.912 11.752ZM40.1891 7.09811C39.9769 7.09811 39.7581 7.10905 39.5328 7.12655C33.7567 7.58155 35.2891 13.6967 35.2005 15.7344C35.1458 17.2941 34.6164 18.7192 33.7513 19.8819L33.7655 19.8622C32.2266 21.6144 30.9709 23.6619 30.1003 25.903L30.0533 26.0419C29.7711 26.7911 29.607 27.6562 29.607 28.5597C29.607 28.8714 29.6267 29.1787 29.6639 29.4795L29.6606 29.4434C29.5994 29.4937 29.548 29.555 29.5119 29.625L29.5108 29.6283C29.1553 29.9947 28.8961 30.4486 28.6041 30.7745C28.2945 31.0119 27.9314 31.1989 27.5377 31.3148L27.5147 31.3203C27.0072 31.4723 26.5938 31.8037 26.3389 32.2401L26.3334 32.25C26.2197 32.4819 26.153 32.7542 26.153 33.043C26.153 33.0539 26.153 33.0637 26.153 33.0747C26.1552 33.335 26.1814 33.5865 26.2328 33.8315L26.2284 33.8064C26.2897 34.0459 26.3247 34.3215 26.3247 34.6048C26.3247 34.7908 26.3094 34.9734 26.2798 35.1517L26.282 35.132C26.0994 35.4744 25.9933 35.8812 25.9933 36.3133C25.9933 36.6173 26.0458 36.9083 26.1431 37.1784L26.1377 37.1609C26.4363 37.5853 26.888 37.885 27.4108 37.9801L27.4228 37.9823C28.8163 38.0994 30.1036 38.3903 31.3177 38.8355L31.2148 38.8026C31.9783 39.2565 32.8981 39.5245 33.8792 39.5245C34.2008 39.5245 34.5158 39.4961 34.822 39.4403L34.7903 39.4447C35.5198 39.2795 36.1148 38.8037 36.4353 38.1661L36.4419 38.1519C37.2447 38.1475 38.123 37.7844 39.5306 37.6958C40.4855 37.617 41.682 38.0611 43.0525 37.9692C43.093 38.1431 43.1466 38.2951 43.2144 38.4384L43.2078 38.4242L43.2122 38.4286C43.6322 39.308 44.5138 39.9051 45.5353 39.9051C45.6239 39.9051 45.7114 39.9008 45.7978 39.892L45.7869 39.8931C47.0458 39.7072 48.1264 39.0531 48.8636 38.118L48.8713 38.1081C49.7933 37.2681 50.8695 36.5758 52.0486 36.0814L52.1219 36.054C52.5944 35.8451 52.9334 35.4142 53.0078 34.8958L53.0089 34.8881C52.9444 34.129 52.5802 33.4673 52.0377 33.0112L52.0333 33.008V32.8756L52.0289 32.8712C51.7948 32.5103 51.6308 32.0815 51.5684 31.6222L51.5663 31.6058C51.5083 31.0447 51.2622 30.5492 50.8936 30.1762H50.8892C50.8083 30.103 50.7208 30.0844 50.6322 29.9914C50.56 29.94 50.4703 29.9083 50.373 29.9039C50.5863 29.2455 50.7088 28.4886 50.7088 27.7022C50.7088 26.674 50.4977 25.6951 50.117 24.807L50.1356 24.8551C49.3656 23.0264 48.3648 21.4525 47.1475 20.0766L47.1628 20.0951C45.9542 18.9117 45.1634 17.305 45.0322 15.5156L45.0311 15.4926C45.0672 12.5516 45.3538 7.11015 40.1869 7.10249L40.1891 7.09811Z" fill="#D9D9D9"/>
</svg>
