<svg width="183" height="45" viewBox="0 0 183 45" fill="none" xmlns="http://www.w3.org/2000/svg">
<rect width="183" height="45" rx="5" fill="#8B6AD3"/>
<path d="M87.384 15.008V33H85.018V19.584L79.038 33H77.374L71.368 19.558V33H69.002V15.008H71.55L78.206 29.88L84.862 15.008H87.384ZM103.669 18.752L95.0885 39.708H92.6445L95.4525 32.844L89.7065 18.752H92.3325L96.8045 30.296L101.225 18.752H103.669ZM111.793 33.182C110.597 33.182 109.522 32.974 108.569 32.558C107.633 32.1247 106.896 31.5353 106.359 30.79C105.822 30.0273 105.544 29.152 105.527 28.164H108.049C108.136 29.0133 108.482 29.7327 109.089 30.322C109.713 30.894 110.614 31.18 111.793 31.18C112.92 31.18 113.804 30.9027 114.445 30.348C115.104 29.776 115.433 29.048 115.433 28.164C115.433 27.4707 115.242 26.9073 114.861 26.474C114.48 26.0407 114.003 25.7113 113.431 25.486C112.859 25.2607 112.088 25.018 111.117 24.758C109.921 24.446 108.959 24.134 108.231 23.822C107.52 23.51 106.905 23.0247 106.385 22.366C105.882 21.69 105.631 20.7887 105.631 19.662C105.631 18.674 105.882 17.7987 106.385 17.036C106.888 16.2733 107.59 15.684 108.491 15.268C109.41 14.852 110.458 14.644 111.637 14.644C113.336 14.644 114.722 15.0687 115.797 15.918C116.889 16.7673 117.504 17.894 117.643 19.298H115.043C114.956 18.6047 114.592 17.998 113.951 17.478C113.31 16.9407 112.46 16.672 111.403 16.672C110.415 16.672 109.609 16.932 108.985 17.452C108.361 17.9547 108.049 18.6653 108.049 19.584C108.049 20.2427 108.231 20.78 108.595 21.196C108.976 21.612 109.436 21.9327 109.973 22.158C110.528 22.366 111.299 22.6087 112.287 22.886C113.483 23.2153 114.445 23.5447 115.173 23.874C115.901 24.186 116.525 24.68 117.045 25.356C117.565 26.0147 117.825 26.916 117.825 28.06C117.825 28.944 117.591 29.776 117.123 30.556C116.655 31.336 115.962 31.9687 115.043 32.454C114.124 32.9393 113.041 33.182 111.793 33.182ZM135.841 36.432L132.227 32.818C131.343 33.0607 130.441 33.182 129.523 33.182C127.841 33.182 126.307 32.792 124.921 32.012C123.534 31.2147 122.433 30.114 121.619 28.71C120.821 27.2887 120.423 25.694 120.423 23.926C120.423 22.158 120.821 20.572 121.619 19.168C122.433 17.7467 123.534 16.646 124.921 15.866C126.307 15.0687 127.841 14.67 129.523 14.67C131.221 14.67 132.764 15.0687 134.151 15.866C135.537 16.646 136.629 17.738 137.427 19.142C138.224 20.546 138.623 22.1407 138.623 23.926C138.623 25.6593 138.241 27.2193 137.479 28.606C136.716 29.9927 135.667 31.0847 134.333 31.882L138.909 36.432H135.841ZM122.841 23.926C122.841 25.3647 123.127 26.63 123.699 27.722C124.288 28.814 125.085 29.6547 126.091 30.244C127.113 30.8333 128.257 31.128 129.523 31.128C130.788 31.128 131.923 30.8333 132.929 30.244C133.951 29.6547 134.749 28.814 135.321 27.722C135.91 26.63 136.205 25.3647 136.205 23.926C136.205 22.47 135.91 21.2047 135.321 20.13C134.749 19.038 133.96 18.1973 132.955 17.608C131.949 17.0187 130.805 16.724 129.523 16.724C128.24 16.724 127.096 17.0187 126.091 17.608C125.085 18.1973 124.288 19.038 123.699 20.13C123.127 21.2047 122.841 22.47 122.841 23.926ZM144.163 31.076H150.507V33H141.797V14.878H144.163V31.076Z" fill="white"/>
<mask id="path-3-inside-1_1_38" fill="white">
<path d="M58.6306 36.2698L57.9859 35.6647C57.6673 35.2509 57.3284 34.8846 56.9591 34.5507L56.9527 34.5457C56.5736 34.2065 56.1797 33.8839 55.771 33.578C55.4436 33.3563 54.9934 33.0892 54.4206 32.7766C53.9497 32.5678 53.5816 32.2015 53.3823 31.7464L53.3773 31.7339L53.3163 31.7039C53.5854 31.6776 53.8316 31.6289 54.0677 31.5601L54.0385 31.5676L54.762 31.3713C55.0615 31.2788 55.408 31.2188 55.7672 31.205H55.7749C56.1531 31.19 56.5097 31.13 56.8499 31.0313L56.8182 31.0388C56.9823 30.9988 57.1511 30.9533 57.3246 30.9025C57.4981 30.8516 57.6466 30.8062 57.7701 30.7662V30.5549C57.6474 30.374 57.4989 30.1673 57.3246 29.9348C57.1583 29.7122 56.9717 29.5184 56.7623 29.3497L56.756 29.3447C56.2237 28.8812 55.6725 28.4328 55.1022 27.9994C54.5995 27.613 54.0296 27.2192 53.4382 26.8541L53.3519 26.8041C53.0396 26.6016 52.6817 26.414 52.3047 26.2603L52.2616 26.2453C51.8825 26.0936 51.5089 25.9273 51.1408 25.7464C51.0177 25.6864 50.8743 25.6339 50.7258 25.5976L50.7118 25.5951C50.5633 25.5651 50.4364 25.4901 50.3438 25.3838L50.3425 25.3826C50.1673 25.155 50.0138 24.8962 49.8919 24.6212L49.8818 24.5962C49.7591 24.3136 49.6262 24.0423 49.4832 23.7822C49.1761 23.1971 48.8791 22.6024 48.5922 21.9981C48.3054 21.3938 48.0299 20.7887 47.7659 20.1827C47.5823 19.7793 47.4135 19.3763 47.2595 18.9737C47.0894 18.5312 46.8978 18.1523 46.6744 17.796L46.6909 17.8248C46.1426 16.9046 45.5955 16.1194 45.0015 15.373L45.0371 15.4205C44.4494 14.6904 43.8402 14.0377 43.1852 13.4326L43.1751 13.4238C42.529 12.8262 41.8335 12.2561 41.1037 11.7285L41.0415 11.6847C40.2833 11.1421 39.4541 10.6078 38.5538 10.0819C38.192 9.87185 37.7719 9.70056 37.3289 9.59054L37.2959 9.58304L35.8833 9.23547L35.0849 9.17545C34.8192 9.15545 34.5531 9.14545 34.2866 9.14545C34.0987 9.04793 33.9375 8.93165 33.7954 8.79662C33.6557 8.66535 33.5047 8.54157 33.3473 8.4278L33.3346 8.41905C32.5667 7.9777 31.6745 7.57387 30.7416 7.2563L30.6337 7.2238C30.3887 7.08252 30.0943 7 29.7807 7C29.5574 7 29.3429 7.04251 29.1474 7.11877L29.1588 7.11502C28.6765 7.30381 28.3084 7.68764 28.1498 8.16524L28.146 8.17775C28.0533 8.39279 28 8.64159 28 8.90415C28 9.36424 28.165 9.78558 28.4404 10.1144L28.4379 10.1106C28.8982 10.7149 29.2511 11.19 29.4964 11.5359C29.6801 11.7785 29.8696 12.0306 30.0651 12.2924C30.244 12.5274 30.4027 12.7962 30.5309 13.08L30.541 13.1063C30.6121 13.2551 30.6743 13.4326 30.72 13.6151L30.7238 13.6351C30.7644 13.8068 30.8156 13.9935 30.8774 14.1952C31.061 14.6587 31.2349 15.1338 31.399 15.6205C31.578 16.1519 31.776 16.602 32.0057 17.0308L31.9816 16.9808C32.1043 17.2025 32.2274 17.4193 32.351 17.631C32.4745 17.8427 32.6074 18.0494 32.7495 18.2511C32.832 18.3736 32.9361 18.4749 33.0554 18.5537L33.0592 18.5562C33.1849 18.6462 33.2674 18.7875 33.2737 18.9475C33.129 19.1575 33.0313 19.4101 32.9983 19.6814L32.997 19.6889C32.9526 20.0052 32.8891 20.2865 32.8028 20.5578L32.813 20.5203C32.5299 21.353 32.3675 22.3132 32.3675 23.3096C32.3675 23.6322 32.384 23.9498 32.4182 24.2636L32.4144 24.2248C32.4906 25.4226 32.8574 26.5228 33.4451 27.4755L33.4273 27.4443C33.6773 27.8131 33.9451 28.1344 34.2409 28.4282C34.4541 28.6633 34.7638 28.8108 35.109 28.8108C35.302 28.8108 35.4847 28.7645 35.6447 28.682L35.6383 28.6845C36.0825 28.527 36.3986 28.1269 36.4214 27.6506V27.6481C36.4824 27.0554 36.5737 26.5253 36.6994 26.0077L36.6829 26.0915C36.7134 26.0127 36.7311 25.9227 36.7311 25.8277C36.7311 25.8089 36.7299 25.7902 36.7286 25.7714V25.7739C36.7184 25.6831 36.7747 25.5972 36.8974 25.5164V25.5764C37.0201 25.8589 37.1479 26.1411 37.2807 26.4228C37.4136 26.7045 37.5515 26.9867 37.6945 27.2692C38.0689 27.8306 38.4662 28.3207 38.9028 28.772L38.899 28.7683C39.3369 29.2334 39.8141 29.651 40.3294 30.0198L40.3574 30.0385C40.6264 30.2411 40.8625 30.4599 41.0757 30.6987L41.0808 30.7037C41.2814 30.9362 41.5212 31.1275 41.7916 31.2713L41.8043 31.2776V31.2476H41.8652C41.8157 31.1388 41.7358 31.0513 41.6367 30.9912L41.6342 30.99C41.5339 30.935 41.4476 30.88 41.3664 30.82L41.3727 30.8237C41.1891 30.6428 40.9996 30.4411 40.8041 30.2186C40.6087 29.996 40.4297 29.7843 40.2672 29.5835C39.8374 28.9983 39.4274 28.387 39.0373 27.7493C38.6473 27.1117 38.2788 26.4636 37.9318 25.8052C37.7677 25.4826 37.609 25.15 37.4559 24.8075C37.3027 24.4649 37.1542 24.1323 37.0104 23.8098C36.9482 23.686 36.905 23.5434 36.8885 23.3922V23.3859C36.8809 23.2421 36.7971 23.1184 36.6753 23.0546L36.6727 23.0533C36.5192 23.3109 36.3491 23.5334 36.1549 23.7347L36.1562 23.7335C35.9543 23.9423 35.7893 24.1886 35.6713 24.4586L35.665 24.4749C35.486 24.9025 35.3553 25.3988 35.2981 25.9177L35.2956 25.9414C35.2347 26.4757 35.1733 27.025 35.1116 27.5893L35.0506 27.6193L35.0202 27.6493C34.6902 27.583 34.4186 27.3755 34.2713 27.0954L34.2688 27.0892C34.1148 26.7966 33.9769 26.5091 33.855 26.2265C33.5402 25.4301 33.3448 24.5086 33.3181 23.5459V23.5347C33.3067 23.3822 33.3016 23.2034 33.3016 23.0246C33.3016 22.1919 33.4349 21.3892 33.6811 20.6366L33.6659 20.6916C33.7268 20.4699 33.8597 20.0965 34.0644 19.5714C34.2692 19.0463 34.3103 18.6833 34.1876 18.4824C34.1241 18.2761 34.0061 18.1023 33.8512 17.9698L33.8499 17.9685C33.6951 17.836 33.5542 17.6972 33.4247 17.5497L33.4209 17.5447C33.2779 17.3413 33.14 17.1246 33.0072 16.8946C32.8743 16.6645 32.7567 16.4378 32.6543 16.2144C32.4449 15.7368 32.2304 15.1379 32.0527 14.5228L32.0248 14.4115C31.823 13.7051 31.5983 13.1075 31.3318 12.5324L31.3648 12.6124C31.2239 12.2974 31.0601 12.0248 30.8698 11.776L30.8774 11.786C30.6709 11.5143 30.4864 11.2571 30.324 11.0146C30.1175 10.7529 29.9127 10.5007 29.7097 10.2582C29.5028 10.0119 29.3187 9.73432 29.169 9.43676L29.1575 9.41175C29.0966 9.29048 29.0433 9.1492 29.0065 9.00292L29.004 8.98916C28.99 8.94541 28.9824 8.89414 28.9824 8.84288C28.9824 8.74036 29.0129 8.64409 29.0662 8.56408L29.0649 8.56658C29.0789 8.49656 29.1119 8.4353 29.1575 8.38529C29.2071 8.34153 29.2705 8.30902 29.3391 8.29527H29.3416C29.4495 8.22651 29.5802 8.18525 29.7224 8.18525C29.829 8.18525 29.9318 8.209 30.0219 8.25151L30.0181 8.25026C30.2961 8.32778 30.5207 8.40529 30.7403 8.49406L30.6946 8.47781C31.083 8.63951 31.4413 8.79579 31.7697 8.94666C32.1479 9.12419 32.4703 9.31173 32.7749 9.52053L32.752 9.50552C32.9162 9.60638 33.0799 9.71723 33.2432 9.83809C33.4066 9.95895 33.5804 10.0802 33.7649 10.2019H34.1952C34.5226 10.2019 34.8704 10.2173 35.2385 10.2482C35.6104 10.2769 35.9543 10.3457 36.2818 10.4532L36.2514 10.4445C36.8619 10.6233 37.3861 10.8345 37.8836 11.0884L37.8316 11.0646C38.3333 11.3163 38.8093 11.5835 39.2595 11.866C40.007 12.3249 40.6531 12.795 41.2611 13.3088L41.2395 13.2913C41.8741 13.8264 42.4503 14.3753 42.991 14.9554L43.0037 14.9704C43.5317 15.538 44.0356 16.1544 44.4964 16.8008L44.5357 16.8596C44.9596 17.4497 45.3874 18.1323 45.7719 18.84L45.8253 18.9462C45.9281 19.1388 46.0321 19.3751 46.1223 19.6164L46.1362 19.6576C46.2183 19.8894 46.3101 20.1269 46.4116 20.3703C46.6367 20.8746 46.8779 21.3834 47.1351 21.8969C47.3923 22.4103 47.6335 22.9096 47.8586 23.3947L48.5338 24.8462C48.7712 25.3538 49.0364 25.7914 49.3449 26.1952L49.3309 26.1765C49.5886 26.4478 49.9325 26.6378 50.3184 26.7041L50.3285 26.7054C50.7956 26.8204 51.1891 26.9504 51.5698 27.1042L51.5102 27.0829C51.6917 27.1642 51.9252 27.2505 52.1651 27.3267L52.2159 27.3405C52.485 27.4218 52.7185 27.5293 52.933 27.6643L52.9216 27.6581C53.3366 27.8869 53.6882 28.1119 54.0233 28.357L53.9966 28.3382C54.3444 28.5899 54.6922 28.8275 55.04 29.0508C55.2041 29.1717 55.4795 29.348 55.8662 29.5797C56.2529 29.8114 56.4577 30.0281 56.4806 30.2298C56.3359 30.2248 56.1645 30.2211 55.9932 30.2211C55.3687 30.2211 54.7544 30.2611 54.1528 30.3386L54.2238 30.3311C53.5435 30.4211 52.9267 30.5849 52.3466 30.8187L52.3974 30.8012C52.254 30.8625 52.0826 30.9187 51.9049 30.9625L51.8808 30.9675C51.7006 30.9937 51.561 31.1363 51.5432 31.3138C51.6206 31.4088 51.6828 31.5201 51.7247 31.6401L51.7272 31.6476C51.7704 31.7752 51.8224 31.8852 51.8859 31.9877L51.8821 31.9802C52.0331 32.244 52.1956 32.4716 52.3784 32.6816L52.3733 32.6754C52.5522 32.8929 52.7541 33.0817 52.9774 33.243L52.9863 33.2492C53.1928 33.4109 53.4077 33.5772 53.6311 33.7481C53.8354 33.9056 54.0665 34.0606 54.3063 34.2007L54.3368 34.2169C54.6973 34.4345 55.1161 34.642 55.5527 34.8158L55.6111 34.8358C56.0858 35.0233 56.4932 35.2409 56.8715 35.4997L56.8512 35.4859C57.0974 35.6268 57.3428 35.7831 57.5873 35.9548C57.8319 36.1265 58.0671 36.2928 58.293 36.4536C58.3857 36.5437 58.4669 36.6437 58.5355 36.7524L58.5393 36.7587C58.6548 36.8887 58.8147 36.9775 58.9962 37H59V36.94C58.8883 36.8562 58.8058 36.7399 58.7665 36.6062L58.7652 36.6012C58.7335 36.4736 58.6865 36.3624 58.623 36.2598L58.6256 36.2648L58.6306 36.2698ZM35.0532 12.2586C34.889 12.2586 34.7355 12.2636 34.5925 12.2736C34.4465 12.2836 34.3107 12.3099 34.1825 12.3524L34.1939 12.3486V12.3786H34.2548C34.3369 12.4995 34.4401 12.6353 34.5645 12.7862C34.6889 12.9371 34.8015 13.0834 34.9021 13.225L35.3933 14.2228L35.4543 14.1927C35.5977 14.0902 35.7081 13.9527 35.7741 13.7914L35.7767 13.7852C35.8427 13.6114 35.8807 13.4088 35.8807 13.1988C35.8807 13.1763 35.8807 13.1538 35.8795 13.1313V13.135C35.8223 13.08 35.7754 13.015 35.7424 12.9425L35.7411 12.9387L35.6383 12.7112C35.571 12.6062 35.4771 12.5237 35.3667 12.4711L35.3629 12.4699C35.2436 12.4136 35.142 12.3424 35.0532 12.2586Z"/>
</mask>
<path d="M58.6306 36.2698L57.9859 35.6647C57.6673 35.2509 57.3284 34.8846 56.9591 34.5507L56.9527 34.5457C56.5736 34.2065 56.1797 33.8839 55.771 33.578C55.4436 33.3563 54.9934 33.0892 54.4206 32.7766C53.9497 32.5678 53.5816 32.2015 53.3823 31.7464L53.3773 31.7339L53.3163 31.7039C53.5854 31.6776 53.8316 31.6289 54.0677 31.5601L54.0385 31.5676L54.762 31.3713C55.0615 31.2788 55.408 31.2188 55.7672 31.205H55.7749C56.1531 31.19 56.5097 31.13 56.8499 31.0313L56.8182 31.0388C56.9823 30.9988 57.1511 30.9533 57.3246 30.9025C57.4981 30.8516 57.6466 30.8062 57.7701 30.7662V30.5549C57.6474 30.374 57.4989 30.1673 57.3246 29.9348C57.1583 29.7122 56.9717 29.5184 56.7623 29.3497L56.756 29.3447C56.2237 28.8812 55.6725 28.4328 55.1022 27.9994C54.5995 27.613 54.0296 27.2192 53.4382 26.8541L53.3519 26.8041C53.0396 26.6016 52.6817 26.414 52.3047 26.2603L52.2616 26.2453C51.8825 26.0936 51.5089 25.9273 51.1408 25.7464C51.0177 25.6864 50.8743 25.6339 50.7258 25.5976L50.7118 25.5951C50.5633 25.5651 50.4364 25.4901 50.3438 25.3838L50.3425 25.3826C50.1673 25.155 50.0138 24.8962 49.8919 24.6212L49.8818 24.5962C49.7591 24.3136 49.6262 24.0423 49.4832 23.7822C49.1761 23.1971 48.8791 22.6024 48.5922 21.9981C48.3054 21.3938 48.0299 20.7887 47.7659 20.1827C47.5823 19.7793 47.4135 19.3763 47.2595 18.9737C47.0894 18.5312 46.8978 18.1523 46.6744 17.796L46.6909 17.8248C46.1426 16.9046 45.5955 16.1194 45.0015 15.373L45.0371 15.4205C44.4494 14.6904 43.8402 14.0377 43.1852 13.4326L43.1751 13.4238C42.529 12.8262 41.8335 12.2561 41.1037 11.7285L41.0415 11.6847C40.2833 11.1421 39.4541 10.6078 38.5538 10.0819C38.192 9.87185 37.7719 9.70056 37.3289 9.59054L37.2959 9.58304L35.8833 9.23547L35.0849 9.17545C34.8192 9.15545 34.5531 9.14545 34.2866 9.14545C34.0987 9.04793 33.9375 8.93165 33.7954 8.79662C33.6557 8.66535 33.5047 8.54157 33.3473 8.4278L33.3346 8.41905C32.5667 7.9777 31.6745 7.57387 30.7416 7.2563L30.6337 7.2238C30.3887 7.08252 30.0943 7 29.7807 7C29.5574 7 29.3429 7.04251 29.1474 7.11877L29.1588 7.11502C28.6765 7.30381 28.3084 7.68764 28.1498 8.16524L28.146 8.17775C28.0533 8.39279 28 8.64159 28 8.90415C28 9.36424 28.165 9.78558 28.4404 10.1144L28.4379 10.1106C28.8982 10.7149 29.2511 11.19 29.4964 11.5359C29.6801 11.7785 29.8696 12.0306 30.0651 12.2924C30.244 12.5274 30.4027 12.7962 30.5309 13.08L30.541 13.1063C30.6121 13.2551 30.6743 13.4326 30.72 13.6151L30.7238 13.6351C30.7644 13.8068 30.8156 13.9935 30.8774 14.1952C31.061 14.6587 31.2349 15.1338 31.399 15.6205C31.578 16.1519 31.776 16.602 32.0057 17.0308L31.9816 16.9808C32.1043 17.2025 32.2274 17.4193 32.351 17.631C32.4745 17.8427 32.6074 18.0494 32.7495 18.2511C32.832 18.3736 32.9361 18.4749 33.0554 18.5537L33.0592 18.5562C33.1849 18.6462 33.2674 18.7875 33.2737 18.9475C33.129 19.1575 33.0313 19.4101 32.9983 19.6814L32.997 19.6889C32.9526 20.0052 32.8891 20.2865 32.8028 20.5578L32.813 20.5203C32.5299 21.353 32.3675 22.3132 32.3675 23.3096C32.3675 23.6322 32.384 23.9498 32.4182 24.2636L32.4144 24.2248C32.4906 25.4226 32.8574 26.5228 33.4451 27.4755L33.4273 27.4443C33.6773 27.8131 33.9451 28.1344 34.2409 28.4282C34.4541 28.6633 34.7638 28.8108 35.109 28.8108C35.302 28.8108 35.4847 28.7645 35.6447 28.682L35.6383 28.6845C36.0825 28.527 36.3986 28.1269 36.4214 27.6506V27.6481C36.4824 27.0554 36.5737 26.5253 36.6994 26.0077L36.6829 26.0915C36.7134 26.0127 36.7311 25.9227 36.7311 25.8277C36.7311 25.8089 36.7299 25.7902 36.7286 25.7714V25.7739C36.7184 25.6831 36.7747 25.5972 36.8974 25.5164V25.5764C37.0201 25.8589 37.1479 26.1411 37.2807 26.4228C37.4136 26.7045 37.5515 26.9867 37.6945 27.2692C38.0689 27.8306 38.4662 28.3207 38.9028 28.772L38.899 28.7683C39.3369 29.2334 39.8141 29.651 40.3294 30.0198L40.3574 30.0385C40.6264 30.2411 40.8625 30.4599 41.0757 30.6987L41.0808 30.7037C41.2814 30.9362 41.5212 31.1275 41.7916 31.2713L41.8043 31.2776V31.2476H41.8652C41.8157 31.1388 41.7358 31.0513 41.6367 30.9912L41.6342 30.99C41.5339 30.935 41.4476 30.88 41.3664 30.82L41.3727 30.8237C41.1891 30.6428 40.9996 30.4411 40.8041 30.2186C40.6087 29.996 40.4297 29.7843 40.2672 29.5835C39.8374 28.9983 39.4274 28.387 39.0373 27.7493C38.6473 27.1117 38.2788 26.4636 37.9318 25.8052C37.7677 25.4826 37.609 25.15 37.4559 24.8075C37.3027 24.4649 37.1542 24.1323 37.0104 23.8098C36.9482 23.686 36.905 23.5434 36.8885 23.3922V23.3859C36.8809 23.2421 36.7971 23.1184 36.6753 23.0546L36.6727 23.0533C36.5192 23.3109 36.3491 23.5334 36.1549 23.7347L36.1562 23.7335C35.9543 23.9423 35.7893 24.1886 35.6713 24.4586L35.665 24.4749C35.486 24.9025 35.3553 25.3988 35.2981 25.9177L35.2956 25.9414C35.2347 26.4757 35.1733 27.025 35.1116 27.5893L35.0506 27.6193L35.0202 27.6493C34.6902 27.583 34.4186 27.3755 34.2713 27.0954L34.2688 27.0892C34.1148 26.7966 33.9769 26.5091 33.855 26.2265C33.5402 25.4301 33.3448 24.5086 33.3181 23.5459V23.5347C33.3067 23.3822 33.3016 23.2034 33.3016 23.0246C33.3016 22.1919 33.4349 21.3892 33.6811 20.6366L33.6659 20.6916C33.7268 20.4699 33.8597 20.0965 34.0644 19.5714C34.2692 19.0463 34.3103 18.6833 34.1876 18.4824C34.1241 18.2761 34.0061 18.1023 33.8512 17.9698L33.8499 17.9685C33.6951 17.836 33.5542 17.6972 33.4247 17.5497L33.4209 17.5447C33.2779 17.3413 33.14 17.1246 33.0072 16.8946C32.8743 16.6645 32.7567 16.4378 32.6543 16.2144C32.4449 15.7368 32.2304 15.1379 32.0527 14.5228L32.0248 14.4115C31.823 13.7051 31.5983 13.1075 31.3318 12.5324L31.3648 12.6124C31.2239 12.2974 31.0601 12.0248 30.8698 11.776L30.8774 11.786C30.6709 11.5143 30.4864 11.2571 30.324 11.0146C30.1175 10.7529 29.9127 10.5007 29.7097 10.2582C29.5028 10.0119 29.3187 9.73432 29.169 9.43676L29.1575 9.41175C29.0966 9.29048 29.0433 9.1492 29.0065 9.00292L29.004 8.98916C28.99 8.94541 28.9824 8.89414 28.9824 8.84288C28.9824 8.74036 29.0129 8.64409 29.0662 8.56408L29.0649 8.56658C29.0789 8.49656 29.1119 8.4353 29.1575 8.38529C29.2071 8.34153 29.2705 8.30902 29.3391 8.29527H29.3416C29.4495 8.22651 29.5802 8.18525 29.7224 8.18525C29.829 8.18525 29.9318 8.209 30.0219 8.25151L30.0181 8.25026C30.2961 8.32778 30.5207 8.40529 30.7403 8.49406L30.6946 8.47781C31.083 8.63951 31.4413 8.79579 31.7697 8.94666C32.1479 9.12419 32.4703 9.31173 32.7749 9.52053L32.752 9.50552C32.9162 9.60638 33.0799 9.71723 33.2432 9.83809C33.4066 9.95895 33.5804 10.0802 33.7649 10.2019H34.1952C34.5226 10.2019 34.8704 10.2173 35.2385 10.2482C35.6104 10.2769 35.9543 10.3457 36.2818 10.4532L36.2514 10.4445C36.8619 10.6233 37.3861 10.8345 37.8836 11.0884L37.8316 11.0646C38.3333 11.3163 38.8093 11.5835 39.2595 11.866C40.007 12.3249 40.6531 12.795 41.2611 13.3088L41.2395 13.2913C41.8741 13.8264 42.4503 14.3753 42.991 14.9554L43.0037 14.9704C43.5317 15.538 44.0356 16.1544 44.4964 16.8008L44.5357 16.8596C44.9596 17.4497 45.3874 18.1323 45.7719 18.84L45.8253 18.9462C45.9281 19.1388 46.0321 19.3751 46.1223 19.6164L46.1362 19.6576C46.2183 19.8894 46.3101 20.1269 46.4116 20.3703C46.6367 20.8746 46.8779 21.3834 47.1351 21.8969C47.3923 22.4103 47.6335 22.9096 47.8586 23.3947L48.5338 24.8462C48.7712 25.3538 49.0364 25.7914 49.3449 26.1952L49.3309 26.1765C49.5886 26.4478 49.9325 26.6378 50.3184 26.7041L50.3285 26.7054C50.7956 26.8204 51.1891 26.9504 51.5698 27.1042L51.5102 27.0829C51.6917 27.1642 51.9252 27.2505 52.1651 27.3267L52.2159 27.3405C52.485 27.4218 52.7185 27.5293 52.933 27.6643L52.9216 27.6581C53.3366 27.8869 53.6882 28.1119 54.0233 28.357L53.9966 28.3382C54.3444 28.5899 54.6922 28.8275 55.04 29.0508C55.2041 29.1717 55.4795 29.348 55.8662 29.5797C56.2529 29.8114 56.4577 30.0281 56.4806 30.2298C56.3359 30.2248 56.1645 30.2211 55.9932 30.2211C55.3687 30.2211 54.7544 30.2611 54.1528 30.3386L54.2238 30.3311C53.5435 30.4211 52.9267 30.5849 52.3466 30.8187L52.3974 30.8012C52.254 30.8625 52.0826 30.9187 51.9049 30.9625L51.8808 30.9675C51.7006 30.9937 51.561 31.1363 51.5432 31.3138C51.6206 31.4088 51.6828 31.5201 51.7247 31.6401L51.7272 31.6476C51.7704 31.7752 51.8224 31.8852 51.8859 31.9877L51.8821 31.9802C52.0331 32.244 52.1956 32.4716 52.3784 32.6816L52.3733 32.6754C52.5522 32.8929 52.7541 33.0817 52.9774 33.243L52.9863 33.2492C53.1928 33.4109 53.4077 33.5772 53.6311 33.7481C53.8354 33.9056 54.0665 34.0606 54.3063 34.2007L54.3368 34.2169C54.6973 34.4345 55.1161 34.642 55.5527 34.8158L55.6111 34.8358C56.0858 35.0233 56.4932 35.2409 56.8715 35.4997L56.8512 35.4859C57.0974 35.6268 57.3428 35.7831 57.5873 35.9548C57.8319 36.1265 58.0671 36.2928 58.293 36.4536C58.3857 36.5437 58.4669 36.6437 58.5355 36.7524L58.5393 36.7587C58.6548 36.8887 58.8147 36.9775 58.9962 37H59V36.94C58.8883 36.8562 58.8058 36.7399 58.7665 36.6062L58.7652 36.6012C58.7335 36.4736 58.6865 36.3624 58.623 36.2598L58.6256 36.2648L58.6306 36.2698ZM35.0532 12.2586C34.889 12.2586 34.7355 12.2636 34.5925 12.2736C34.4465 12.2836 34.3107 12.3099 34.1825 12.3524L34.1939 12.3486V12.3786H34.2548C34.3369 12.4995 34.4401 12.6353 34.5645 12.7862C34.6889 12.9371 34.8015 13.0834 34.9021 13.225L35.3933 14.2228L35.4543 14.1927C35.5977 14.0902 35.7081 13.9527 35.7741 13.7914L35.7767 13.7852C35.8427 13.6114 35.8807 13.4088 35.8807 13.1988C35.8807 13.1763 35.8807 13.1538 35.8795 13.1313V13.135C35.8223 13.08 35.7754 13.015 35.7424 12.9425L35.7411 12.9387L35.6383 12.7112C35.571 12.6062 35.4771 12.5237 35.3667 12.4711L35.3629 12.4699C35.2436 12.4136 35.142 12.3424 35.0532 12.2586Z" fill="#D9D9D9" stroke="#D9D9D9" stroke-width="42" mask="url(#path-3-inside-1_1_38)"/>
</svg>
