<svg width="223" height="45" viewBox="0 0 223 45" fill="none" xmlns="http://www.w3.org/2000/svg">
<rect width="223" height="45" rx="5" fill="#8B6AD3"/>
<path d="M81.118 21.182C81.118 22.69 80.598 23.9467 79.558 24.952C78.5353 25.94 76.9667 26.434 74.852 26.434H71.368V34H69.002V15.878H74.852C76.8973 15.878 78.4487 16.372 79.506 17.36C80.5807 18.348 81.118 19.622 81.118 21.182ZM74.852 24.484C76.1693 24.484 77.14 24.198 77.764 23.626C78.388 23.054 78.7 22.2393 78.7 21.182C78.7 18.946 77.4173 17.828 74.852 17.828H71.368V24.484H74.852ZM90.2726 34.234C88.938 34.234 87.7246 33.9307 86.6326 33.324C85.558 32.7173 84.7086 31.8593 84.0846 30.75C83.478 29.6233 83.1746 28.3233 83.1746 26.85C83.1746 25.394 83.4866 24.1113 84.1106 23.002C84.752 21.8753 85.6186 21.0173 86.7106 20.428C87.8026 19.8213 89.0246 19.518 90.3766 19.518C91.7286 19.518 92.9506 19.8213 94.0426 20.428C95.1346 21.0173 95.9926 21.8667 96.6166 22.976C97.258 24.0853 97.5786 25.3767 97.5786 26.85C97.5786 28.3233 97.2493 29.6233 96.5906 30.75C95.9493 31.8593 95.074 32.7173 93.9646 33.324C92.8553 33.9307 91.6246 34.234 90.2726 34.234ZM90.2726 32.154C91.122 32.154 91.9193 31.9547 92.6646 31.556C93.41 31.1573 94.008 30.5593 94.4586 29.762C94.9266 28.9647 95.1606 27.994 95.1606 26.85C95.1606 25.706 94.9353 24.7353 94.4846 23.938C94.034 23.1407 93.4446 22.5513 92.7166 22.17C91.9886 21.7713 91.2 21.572 90.3506 21.572C89.484 21.572 88.6866 21.7713 87.9586 22.17C87.248 22.5513 86.676 23.1407 86.2426 23.938C85.8093 24.7353 85.5926 25.706 85.5926 26.85C85.5926 28.0113 85.8006 28.9907 86.2166 29.788C86.65 30.5853 87.222 31.1833 87.9326 31.582C88.6433 31.9633 89.4233 32.154 90.2726 32.154ZM105.734 34.234C104.642 34.234 103.662 34.052 102.796 33.688C101.929 33.3067 101.244 32.7867 100.742 32.128C100.239 31.452 99.9615 30.6807 99.9095 29.814H102.354C102.423 30.5247 102.752 31.1053 103.342 31.556C103.948 32.0067 104.737 32.232 105.708 32.232C106.609 32.232 107.32 32.0327 107.84 31.634C108.36 31.2353 108.62 30.7327 108.62 30.126C108.62 29.502 108.342 29.0427 107.788 28.748C107.233 28.436 106.375 28.1327 105.214 27.838C104.156 27.5607 103.29 27.2833 102.614 27.006C101.955 26.7113 101.383 26.2867 100.898 25.732C100.43 25.16 100.196 24.4147 100.196 23.496C100.196 22.768 100.412 22.1007 100.846 21.494C101.279 20.8873 101.894 20.4107 102.692 20.064C103.489 19.7 104.399 19.518 105.422 19.518C106.999 19.518 108.273 19.9167 109.244 20.714C110.214 21.5113 110.734 22.6033 110.804 23.99H108.438C108.386 23.2447 108.082 22.6467 107.528 22.196C106.99 21.7453 106.262 21.52 105.344 21.52C104.494 21.52 103.818 21.702 103.316 22.066C102.813 22.43 102.562 22.9067 102.562 23.496C102.562 23.964 102.709 24.354 103.004 24.666C103.316 24.9607 103.697 25.2033 104.148 25.394C104.616 25.5673 105.257 25.7667 106.072 25.992C107.094 26.2693 107.926 26.5467 108.568 26.824C109.209 27.084 109.755 27.4827 110.206 28.02C110.674 28.5573 110.916 29.2593 110.934 30.126C110.934 30.906 110.717 31.608 110.284 32.232C109.85 32.856 109.235 33.35 108.438 33.714C107.658 34.0607 106.756 34.234 105.734 34.234ZM117.159 21.702V30.1C117.159 30.7933 117.307 31.2873 117.601 31.582C117.896 31.8593 118.407 31.998 119.135 31.998H120.877V34H118.745C117.428 34 116.44 33.6967 115.781 33.09C115.123 32.4833 114.793 31.4867 114.793 30.1V21.702H112.947V19.752H114.793V16.164H117.159V19.752H120.877V21.702H117.159ZM129.62 19.518C130.851 19.518 131.926 19.7867 132.844 20.324C133.78 20.8613 134.474 21.5373 134.924 22.352V19.752H137.316V34.312C137.316 35.612 137.039 36.7647 136.484 37.77C135.93 38.7927 135.132 39.59 134.092 40.162C133.07 40.734 131.874 41.02 130.504 41.02C128.632 41.02 127.072 40.578 125.824 39.694C124.576 38.81 123.84 37.6053 123.614 36.08H125.954C126.214 36.9467 126.752 37.64 127.566 38.16C128.381 38.6973 129.36 38.966 130.504 38.966C131.804 38.966 132.862 38.5587 133.676 37.744C134.508 36.9293 134.924 35.7853 134.924 34.312V31.322C134.456 32.154 133.763 32.8473 132.844 33.402C131.926 33.9567 130.851 34.234 129.62 34.234C128.355 34.234 127.202 33.922 126.162 33.298C125.14 32.674 124.334 31.7987 123.744 30.672C123.155 29.5453 122.86 28.2627 122.86 26.824C122.86 25.368 123.155 24.094 123.744 23.002C124.334 21.8927 125.14 21.0347 126.162 20.428C127.202 19.8213 128.355 19.518 129.62 19.518ZM134.924 26.85C134.924 25.7753 134.708 24.8393 134.274 24.042C133.841 23.2447 133.252 22.638 132.506 22.222C131.778 21.7887 130.972 21.572 130.088 21.572C129.204 21.572 128.398 21.78 127.67 22.196C126.942 22.612 126.362 23.2187 125.928 24.016C125.495 24.8133 125.278 25.7493 125.278 26.824C125.278 27.916 125.495 28.8693 125.928 29.684C126.362 30.4813 126.942 31.0967 127.67 31.53C128.398 31.946 129.204 32.154 130.088 32.154C130.972 32.154 131.778 31.946 132.506 31.53C133.252 31.0967 133.841 30.4813 134.274 29.684C134.708 28.8693 134.924 27.9247 134.924 26.85ZM143.681 22.066C144.097 21.2513 144.686 20.6187 145.449 20.168C146.229 19.7173 147.173 19.492 148.283 19.492V21.936H147.659C145.007 21.936 143.681 23.3747 143.681 26.252V34H141.315V19.752H143.681V22.066ZM164.014 26.33C164.014 26.7807 163.988 27.2573 163.936 27.76H152.548C152.634 29.164 153.111 30.2647 153.978 31.062C154.862 31.842 155.928 32.232 157.176 32.232C158.198 32.232 159.048 31.998 159.724 31.53C160.417 31.0447 160.902 30.4033 161.18 29.606H163.728C163.346 30.9753 162.584 32.0933 161.44 32.96C160.296 33.8093 158.874 34.234 157.176 34.234C155.824 34.234 154.61 33.9307 153.536 33.324C152.478 32.7173 151.646 31.8593 151.04 30.75C150.433 29.6233 150.13 28.3233 150.13 26.85C150.13 25.3767 150.424 24.0853 151.014 22.976C151.603 21.8667 152.426 21.0173 153.484 20.428C154.558 19.8213 155.789 19.518 157.176 19.518C158.528 19.518 159.724 19.8127 160.764 20.402C161.804 20.9913 162.601 21.806 163.156 22.846C163.728 23.8687 164.014 25.03 164.014 26.33ZM161.57 25.836C161.57 24.9347 161.37 24.1633 160.972 23.522C160.573 22.8633 160.027 22.3693 159.334 22.04C158.658 21.6933 157.904 21.52 157.072 21.52C155.876 21.52 154.853 21.9013 154.004 22.664C153.172 23.4267 152.695 24.484 152.574 25.836H161.57ZM172.181 34.234C171.089 34.234 170.109 34.052 169.243 33.688C168.376 33.3067 167.691 32.7867 167.189 32.128C166.686 31.452 166.409 30.6807 166.357 29.814H168.801C168.87 30.5247 169.199 31.1053 169.789 31.556C170.395 32.0067 171.184 32.232 172.155 32.232C173.056 32.232 173.767 32.0327 174.287 31.634C174.807 31.2353 175.067 30.7327 175.067 30.126C175.067 29.502 174.789 29.0427 174.235 28.748C173.68 28.436 172.822 28.1327 171.661 27.838C170.603 27.5607 169.737 27.2833 169.061 27.006C168.402 26.7113 167.83 26.2867 167.345 25.732C166.877 25.16 166.643 24.4147 166.643 23.496C166.643 22.768 166.859 22.1007 167.293 21.494C167.726 20.8873 168.341 20.4107 169.139 20.064C169.936 19.7 170.846 19.518 171.869 19.518C173.446 19.518 174.72 19.9167 175.691 20.714C176.661 21.5113 177.181 22.6033 177.251 23.99H174.885C174.833 23.2447 174.529 22.6467 173.975 22.196C173.437 21.7453 172.709 21.52 171.791 21.52C170.941 21.52 170.265 21.702 169.763 22.066C169.26 22.43 169.009 22.9067 169.009 23.496C169.009 23.964 169.156 24.354 169.451 24.666C169.763 24.9607 170.144 25.2033 170.595 25.394C171.063 25.5673 171.704 25.7667 172.519 25.992C173.541 26.2693 174.373 26.5467 175.015 26.824C175.656 27.084 176.202 27.4827 176.653 28.02C177.121 28.5573 177.363 29.2593 177.381 30.126C177.381 30.906 177.164 31.608 176.731 32.232C176.297 32.856 175.682 33.35 174.885 33.714C174.105 34.0607 173.203 34.234 172.181 34.234ZM179.837 26.824C179.837 25.368 180.131 24.094 180.721 23.002C181.31 21.8927 182.116 21.0347 183.139 20.428C184.179 19.8213 185.34 19.518 186.623 19.518C187.853 19.518 188.928 19.7953 189.847 20.35C190.783 20.8873 191.467 21.5547 191.901 22.352V19.752H194.293V40.76H191.901V31.374C191.45 32.1713 190.757 32.8473 189.821 33.402C188.885 33.9567 187.793 34.234 186.545 34.234C185.297 34.234 184.161 33.922 183.139 33.298C182.116 32.674 181.31 31.7987 180.721 30.672C180.131 29.5453 179.837 28.2627 179.837 26.824ZM191.901 26.85C191.901 25.7753 191.684 24.8393 191.251 24.042C190.817 23.2447 190.228 22.638 189.483 22.222C188.755 21.7887 187.949 21.572 187.065 21.572C186.181 21.572 185.375 21.78 184.647 22.196C183.919 22.612 183.338 23.2187 182.905 24.016C182.471 24.8133 182.255 25.7493 182.255 26.824C182.255 27.916 182.471 28.8693 182.905 29.684C183.338 30.4813 183.919 31.0967 184.647 31.53C185.375 31.946 186.181 32.154 187.065 32.154C187.949 32.154 188.755 31.946 189.483 31.53C190.228 31.0967 190.817 30.4813 191.251 29.684C191.684 28.8693 191.901 27.9247 191.901 26.85ZM200.657 14.76V34H198.291V14.76H200.657Z" fill="white"/>
<path d="M48.4814 16.3802C48.5509 15.9303 48.616 15.4995 48.6242 15.0249C47.4909 14.8854 46.1903 14.9171 45.6768 15.6512C44.6778 17.0788 46.6289 20.5776 47.462 22.0716C47.6761 22.4555 47.8309 22.7328 47.902 22.9056C47.9807 23.0968 48.0668 23.2693 48.1556 23.4275C48.7288 22.208 48.5809 20.9723 48.4368 19.7719C48.3654 19.1777 48.2913 18.5631 48.3107 17.9721C48.3299 17.3646 48.4071 16.8641 48.4814 16.3802ZM47.5269 16.1025C47.4348 16.1994 47.2403 16.3677 46.9749 16.4045C46.9408 16.4092 46.906 16.4117 46.8714 16.4117C46.4802 16.4117 46.1426 16.1064 46.1146 15.9085C46.0825 15.6697 46.472 15.4881 46.8741 15.4321C46.9621 15.4199 47.0496 15.4137 47.1335 15.4137C47.4809 15.4137 47.7111 15.5167 47.7342 15.6825C47.7492 15.7897 47.668 15.9545 47.5269 16.1025ZM43.5358 7.24302C44.2518 7.0947 45.2308 6.95631 46.3271 6.98036C49.1047 7.04182 51.3015 8.08086 52.8571 10.0687C54.0504 11.5932 52.7368 18.5309 48.9331 24.5158C48.8957 24.4681 48.8574 24.4199 48.8178 24.3706C48.8021 24.3507 48.786 24.3305 48.7696 24.3101C49.7525 22.687 49.5602 21.0813 49.3892 19.6575C49.3189 19.0731 49.2527 18.5212 49.2696 18.0029C49.2871 17.4531 49.3597 16.982 49.43 16.5262C49.5164 15.9647 49.6044 15.3838 49.5799 14.6989C49.5981 14.6271 49.6055 14.5423 49.5959 14.4414C49.5341 13.7844 48.7841 11.8189 47.2556 10.0395C46.4197 9.06648 45.2004 7.9776 43.5358 7.24302ZM33.0189 24.703C33.128 24.8169 33.2419 24.9237 33.3596 25.0244C32.8904 25.5268 31.8705 26.6381 30.785 27.9438C30.017 28.8674 29.4865 28.6908 29.3121 28.6325C28.1755 28.2533 26.8567 25.851 25.694 22.0414C24.6879 18.7453 24.0998 15.4308 24.0534 14.5013C23.9064 11.5619 24.6189 9.51327 26.1712 8.41242C28.6972 6.62084 32.8508 7.69325 34.5197 8.23715C34.4956 8.26073 34.4707 8.28288 34.4471 8.30686C31.7084 11.0728 31.7734 15.7983 31.7802 16.0871C31.7798 16.1984 31.7892 16.3561 31.802 16.5733C31.8491 17.368 31.9368 18.8472 31.7025 20.5226C31.4849 22.0793 31.9646 23.6029 33.0189 24.703ZM48.324 25.3012C47.7813 25.4578 46.8071 25.8191 46.8959 27.625C46.8245 28.5305 46.3151 32.7728 46.0565 34.2722C45.7152 36.2527 44.9861 36.9904 42.9375 37.4296C40.8129 37.885 40.0612 36.8008 39.5654 35.5619C39.2456 34.7617 39.0886 31.1546 39.1998 27.1712C39.2014 27.1183 39.1938 27.0671 39.1791 27.0191C39.1665 26.9262 39.1469 26.8322 39.1197 26.7375C38.9541 26.1577 38.5498 25.6731 38.0649 25.472C37.9131 25.4091 37.6837 25.3143 37.4015 25.3143C37.2973 25.3143 37.1947 25.3274 37.0937 25.3536C37.1844 24.9803 37.3415 24.5592 37.5117 24.1028L37.5832 23.9108C37.6636 23.6942 37.7647 23.47 37.8715 23.2324C38.4486 21.9504 39.239 20.1941 38.3812 16.2268C38.0598 14.7408 36.9867 14.0153 35.3602 14.1837C34.385 14.2847 33.493 14.6782 33.0479 14.9037C32.9519 14.9524 32.8637 14.9995 32.7817 15.0452C32.9045 13.5502 33.3717 10.7566 35.1289 8.98192C36.2342 7.86541 37.7064 7.31401 39.502 7.34366C43.0353 7.40168 45.3011 9.21494 46.5799 10.726C47.6818 12.0281 48.2784 13.3397 48.5165 14.0471C46.7265 13.865 45.5079 14.2186 44.8906 15.1012C43.5472 17.0214 45.6253 20.7478 46.624 22.5389C46.807 22.8673 46.9653 23.1507 47.0149 23.2714C47.3399 24.0595 47.7611 24.5858 48.0689 24.9699C48.163 25.0877 48.2542 25.202 48.324 25.3012ZM38.1976 27.0014C38.2369 27.139 38.2812 27.4 38.1364 27.6027C37.4064 28.6248 36.4015 29.1433 35.1497 29.1433C34.7381 29.1433 34.301 29.086 33.8502 28.9732C33.5866 28.9073 33.3494 28.7929 33.2102 28.6981C33.3264 28.6433 33.5333 28.569 33.892 28.4951C35.6285 28.1374 35.8966 27.8852 36.4822 27.1417C36.6165 26.9712 36.7688 26.778 36.9797 26.5423C37.139 26.3642 37.281 26.2737 37.4016 26.2737C37.4862 26.2737 37.5817 26.3102 37.6976 26.3582C37.9086 26.4459 38.1143 26.7102 38.1976 27.0014ZM53.1481 26.4056C53.1554 26.404 53.1628 26.4023 53.1698 26.4011C52.9039 26.6498 52.4492 26.9832 51.8039 27.2829C51.2492 27.5404 50.3213 27.7335 49.4395 27.7749C48.4656 27.8201 47.9697 27.666 47.8532 27.5706C47.7987 26.4455 48.2176 26.3278 48.6609 26.2033C48.7303 26.1837 48.7985 26.1647 48.8638 26.1418C48.9047 26.1747 48.9494 26.2079 48.9985 26.2401C49.7812 26.7568 51.1774 26.8124 53.1481 26.4056ZM36.6127 23.7674L36.6839 23.5768C36.7756 23.3297 36.883 23.0913 36.9968 22.8385C37.5482 21.6133 38.2346 20.0883 37.4435 16.4295C37.2906 15.7227 36.9229 15.3121 36.3195 15.1738C34.9974 14.8709 33.1433 15.8643 32.7432 16.219C32.747 16.2991 32.753 16.4007 32.7597 16.5165C32.8089 17.3444 32.9003 18.8856 32.6528 20.6554C32.4761 21.9193 32.8621 23.1526 33.7116 24.0388C34.3799 24.7361 35.2584 25.1219 36.1616 25.1246C36.2655 24.6986 36.4329 24.2502 36.6127 23.7674ZM35.3679 16.3766C35.3059 16.2945 35.205 16.1351 35.2254 15.9912C35.2543 15.7802 35.5083 15.6536 35.9048 15.6536C35.9926 15.6536 36.0836 15.6601 36.1755 15.673C36.6034 15.7325 37.045 15.9352 37.0025 16.2394C36.9705 16.4698 36.6056 16.8116 36.1673 16.8116C36.129 16.8116 36.0903 16.8089 36.0526 16.8035C35.7992 16.7685 35.5431 16.6089 35.3679 16.3766ZM55.4326 25.784C55.2899 25.1367 54.7037 24.3807 53.5213 24.3807C53.284 24.3807 53.0269 24.4099 52.7351 24.4703C52.1744 24.5858 51.6743 24.6578 51.2444 24.6845C52.7501 22.1029 53.9615 19.1964 54.6642 16.4764C55.3144 13.9587 55.8064 10.5956 54.4579 8.87231C52.4754 6.33899 49.5763 5 46.0737 5C44.0997 5 42.4875 5.44104 41.9993 5.5903C41.2295 5.45603 40.4007 5.38079 39.5353 5.36675C39.4775 5.3658 39.4203 5.36539 39.3633 5.36539C37.8059 5.36539 36.4102 5.7191 35.214 6.4168C34.1246 6.05201 32.0214 5.4613 29.8309 5.4613C27.3669 5.4613 25.4263 6.18784 24.0632 7.62098C22.554 9.20764 21.8669 11.576 22.0212 14.6602C22.0858 15.9535 22.831 19.8182 23.8979 23.1741C25.5461 28.3595 27.3617 30.7742 29.6115 30.7742C30.3158 30.7742 30.9843 30.5277 31.6004 30.0412C32.1407 30.6299 32.9248 30.8957 33.356 31.0037C33.9678 31.1568 34.571 31.2344 35.149 31.2344C35.9215 31.2344 36.649 31.0995 37.3145 30.8331C37.3188 30.9778 37.3228 31.1148 37.3261 31.2385C37.3341 31.5196 37.3417 31.7953 37.3521 32.0531C37.4223 33.8059 37.5422 35.1696 37.8984 36.1313C37.9172 36.1817 37.9423 36.2588 37.9695 36.3422C38.1252 36.8195 38.3605 37.5403 38.9017 38.1947C39.6151 39.0572 40.6318 39.5132 41.8414 39.5132C42.2277 39.5132 42.6415 39.4666 43.0716 39.3743C44.3716 39.0958 45.8485 38.6703 46.9227 37.1409C47.9298 35.7069 48.4183 33.5612 48.5068 30.1837L48.5458 29.8513L48.7332 29.8666C48.852 29.872 48.9748 29.8745 49.0985 29.8745C50.3596 29.8745 51.7571 29.604 52.6594 29.185C53.4091 28.8368 55.8255 27.5629 55.4326 25.784ZM52.2082 28.153C51.4323 28.5131 50.1961 28.7409 49.1243 28.7409C48.6103 28.7409 48.1349 28.688 47.7655 28.5731C47.5906 30.181 47.2187 33.1792 47.0022 34.4357C46.5968 36.7851 45.5498 37.8508 43.1386 38.3679C42.728 38.4556 42.3548 38.4949 42.0159 38.4951C39.7052 38.4954 38.974 36.6663 38.6747 35.9183C38.3091 35.004 38.1821 32.0041 38.2078 28.9595C37.3783 29.7103 36.3383 30.1029 35.1497 30.1029C34.6596 30.1029 34.1442 30.0362 33.6176 29.9043C33.4653 29.8662 32.1293 29.5077 32.1471 28.6535C32.1633 27.872 33.2786 27.642 33.6985 27.5554C35.1745 27.2513 35.2699 27.1304 35.7285 26.5482C35.8212 26.4303 35.9302 26.2924 36.063 26.1349C36.0615 26.1175 36.0596 26.1004 36.0585 26.0829C35.3966 26.0652 34.7497 25.8887 34.1607 25.5726C33.7622 25.9968 32.6808 27.1641 31.5229 28.5573C30.8256 29.3955 30.1556 29.6419 29.609 29.6419C29.3861 29.6421 29.1838 29.6011 29.0083 29.5424C27.5101 29.0428 26.0861 26.6133 24.7762 22.3216C23.7809 19.0609 23.1504 15.6563 23.0951 14.5493C22.9305 11.2596 23.7794 8.9312 25.6181 7.62841C28.9103 5.29596 34.23 7.08707 35.3905 7.5219C36.5347 6.7418 37.916 6.35919 39.5176 6.38438C40.3902 6.3987 41.1914 6.51095 41.9264 6.69372C42.2757 6.54047 44.0772 5.99548 46.207 6.01892C49.3069 6.05188 51.8678 7.24768 53.6126 9.47727C54.7901 10.982 54.0131 14.6452 53.624 16.1502C52.8155 19.2808 51.3166 22.6359 49.4946 25.4119C49.7703 25.6146 50.6102 25.9497 52.9539 25.4658C53.7433 25.3029 54.2185 25.4468 54.3661 25.893C54.6513 26.7554 53.0795 27.7486 52.2082 28.153Z" fill="#D9D9D9"/>
</svg>
