<svg width="179" height="45" viewBox="0 0 179 45" fill="none" xmlns="http://www.w3.org/2000/svg">
<rect width="179" height="45" rx="5" fill="#8B6AD3"/>
<path d="M71.544 33L67.228 25.59H64.368V33H62.002V14.878H67.852C69.2213 14.878 70.374 15.112 71.31 15.58C72.2633 16.048 72.974 16.6807 73.442 17.478C73.91 18.2753 74.144 19.1853 74.144 20.208C74.144 21.456 73.78 22.5567 73.052 23.51C72.3413 24.4633 71.2667 25.096 69.828 25.408L74.378 33H71.544ZM64.368 23.692H67.852C69.1347 23.692 70.0967 23.38 70.738 22.756C71.3793 22.1147 71.7 21.2653 71.7 20.208C71.7 19.1333 71.3793 18.3013 70.738 17.712C70.114 17.1227 69.152 16.828 67.852 16.828H64.368V23.692ZM90.8204 25.33C90.8204 25.7807 90.7944 26.2573 90.7424 26.76H79.3544C79.441 28.164 79.9177 29.2647 80.7844 30.062C81.6684 30.842 82.7344 31.232 83.9824 31.232C85.005 31.232 85.8544 30.998 86.5304 30.53C87.2237 30.0447 87.709 29.4033 87.9864 28.606H90.5344C90.153 29.9753 89.3904 31.0933 88.2464 31.96C87.1024 32.8093 85.681 33.234 83.9824 33.234C82.6304 33.234 81.417 32.9307 80.3424 32.324C79.285 31.7173 78.453 30.8593 77.8464 29.75C77.2397 28.6233 76.9364 27.3233 76.9364 25.85C76.9364 24.3767 77.231 23.0853 77.8204 21.976C78.4097 20.8667 79.233 20.0173 80.2904 19.428C81.365 18.8213 82.5957 18.518 83.9824 18.518C85.3344 18.518 86.5304 18.8127 87.5704 19.402C88.6104 19.9913 89.4077 20.806 89.9624 21.846C90.5344 22.8687 90.8204 24.03 90.8204 25.33ZM88.3764 24.836C88.3764 23.9347 88.177 23.1633 87.7784 22.522C87.3797 21.8633 86.8337 21.3693 86.1404 21.04C85.4644 20.6933 84.7104 20.52 83.8784 20.52C82.6824 20.52 81.6597 20.9013 80.8104 21.664C79.9784 22.4267 79.5017 23.484 79.3804 24.836H88.3764ZM93.0594 25.824C93.0594 24.368 93.3541 23.094 93.9434 22.002C94.5327 20.8927 95.3387 20.0347 96.3614 19.428C97.4014 18.8213 98.5541 18.518 99.8194 18.518C101.067 18.518 102.151 18.7867 103.069 19.324C103.988 19.8613 104.673 20.5373 105.123 21.352V18.752H107.515V33H105.123V30.348C104.655 31.18 103.953 31.8733 103.017 32.428C102.099 32.9653 101.024 33.234 99.7934 33.234C98.5281 33.234 97.3841 32.922 96.3614 32.298C95.3387 31.674 94.5327 30.7987 93.9434 29.672C93.3541 28.5453 93.0594 27.2627 93.0594 25.824ZM105.123 25.85C105.123 24.7753 104.907 23.8393 104.473 23.042C104.04 22.2447 103.451 21.638 102.705 21.222C101.977 20.7887 101.171 20.572 100.287 20.572C99.4034 20.572 98.5974 20.78 97.8694 21.196C97.1414 21.612 96.5607 22.2187 96.1274 23.016C95.6941 23.8133 95.4774 24.7493 95.4774 25.824C95.4774 26.916 95.6941 27.8693 96.1274 28.684C96.5607 29.4813 97.1414 30.0967 97.8694 30.53C98.5974 30.946 99.4034 31.154 100.287 31.154C101.171 31.154 101.977 30.946 102.705 30.53C103.451 30.0967 104.04 29.4813 104.473 28.684C104.907 27.8693 105.123 26.9247 105.123 25.85ZM110.63 25.85C110.63 24.3767 110.924 23.094 111.514 22.002C112.103 20.8927 112.918 20.0347 113.958 19.428C115.015 18.8213 116.22 18.518 117.572 18.518C119.322 18.518 120.761 18.9427 121.888 19.792C123.032 20.6413 123.786 21.82 124.15 23.328H121.602C121.359 22.4613 120.882 21.7767 120.172 21.274C119.478 20.7713 118.612 20.52 117.572 20.52C116.22 20.52 115.128 20.988 114.296 21.924C113.464 22.8427 113.048 24.1513 113.048 25.85C113.048 27.566 113.464 28.892 114.296 29.828C115.128 30.764 116.22 31.232 117.572 31.232C118.612 31.232 119.478 30.9893 120.172 30.504C120.865 30.0187 121.342 29.3253 121.602 28.424H124.15C123.768 29.88 123.006 31.05 121.862 31.934C120.718 32.8007 119.288 33.234 117.572 33.234C116.22 33.234 115.015 32.9307 113.958 32.324C112.918 31.7173 112.103 30.8593 111.514 29.75C110.924 28.6407 110.63 27.3407 110.63 25.85ZM130.193 20.702V29.1C130.193 29.7933 130.34 30.2873 130.635 30.582C130.929 30.8593 131.441 30.998 132.169 30.998H133.911V33H131.779C130.461 33 129.473 32.6967 128.815 32.09C128.156 31.4833 127.827 30.4867 127.827 29.1V20.702H125.981V18.752H127.827V15.164H130.193V18.752H133.911V20.702H130.193ZM137.531 33.156C137.081 33.156 136.699 33 136.387 32.688C136.075 32.376 135.919 31.9947 135.919 31.544C135.919 31.0933 136.075 30.712 136.387 30.4C136.699 30.088 137.081 29.932 137.531 29.932C137.965 29.932 138.329 30.088 138.623 30.4C138.935 30.712 139.091 31.0933 139.091 31.544C139.091 31.9947 138.935 32.376 138.623 32.688C138.329 33 137.965 33.156 137.531 33.156ZM143.51 16.438C143.06 16.438 142.678 16.282 142.366 15.97C142.072 15.658 141.924 15.2767 141.924 14.826C141.924 14.3753 142.072 13.994 142.366 13.682C142.678 13.37 143.06 13.214 143.51 13.214C143.961 13.214 144.334 13.37 144.628 13.682C144.94 13.994 145.096 14.3753 145.096 14.826C145.096 15.2767 144.94 15.658 144.628 15.97C144.334 16.282 143.961 16.438 143.51 16.438ZM144.68 36.094C144.68 37.3593 144.36 38.2867 143.718 38.876C143.077 39.4653 142.141 39.76 140.91 39.76H139.532V37.758H140.52C141.179 37.758 141.638 37.628 141.898 37.368C142.176 37.108 142.314 36.666 142.314 36.042V18.752H144.68V36.094ZM153.73 33.234C152.638 33.234 151.658 33.052 150.792 32.688C149.925 32.3067 149.24 31.7867 148.738 31.128C148.235 30.452 147.958 29.6807 147.906 28.814H150.35C150.419 29.5247 150.748 30.1053 151.338 30.556C151.944 31.0067 152.733 31.232 153.704 31.232C154.605 31.232 155.316 31.0327 155.836 30.634C156.356 30.2353 156.616 29.7327 156.616 29.126C156.616 28.502 156.338 28.0427 155.784 27.748C155.229 27.436 154.371 27.1327 153.21 26.838C152.152 26.5607 151.286 26.2833 150.61 26.006C149.951 25.7113 149.379 25.2867 148.894 24.732C148.426 24.16 148.192 23.4147 148.192 22.496C148.192 21.768 148.408 21.1007 148.842 20.494C149.275 19.8873 149.89 19.4107 150.688 19.064C151.485 18.7 152.395 18.518 153.418 18.518C154.995 18.518 156.269 18.9167 157.24 19.714C158.21 20.5113 158.73 21.6033 158.8 22.99H156.434C156.382 22.2447 156.078 21.6467 155.524 21.196C154.986 20.7453 154.258 20.52 153.34 20.52C152.49 20.52 151.814 20.702 151.312 21.066C150.809 21.43 150.558 21.9067 150.558 22.496C150.558 22.964 150.705 23.354 151 23.666C151.312 23.9607 151.693 24.2033 152.144 24.394C152.612 24.5673 153.253 24.7667 154.068 24.992C155.09 25.2693 155.922 25.5467 156.564 25.824C157.205 26.084 157.751 26.4827 158.202 27.02C158.67 27.5573 158.912 28.2593 158.93 29.126C158.93 29.906 158.713 30.608 158.28 31.232C157.846 31.856 157.231 32.35 156.434 32.714C155.654 33.0607 154.752 33.234 153.73 33.234Z" fill="white"/>
<path d="M31.8125 19.5223C32.4582 19.5223 33.0895 19.7134 33.6269 20.0715C34.1643 20.4295 34.5837 20.9386 34.8324 21.5345C35.0811 22.1305 35.1479 22.7866 35.0244 23.4205C34.901 24.0543 34.5928 24.6374 34.1386 25.0965C33.6844 25.5555 33.1046 25.8699 32.4721 26.0001C31.8396 26.1303 31.1828 26.0705 30.5842 25.8281C29.9857 25.5858 29.4722 25.1718 29.1084 24.6383C28.7447 24.1047 28.5469 23.4755 28.54 22.8298C28.5377 22.3978 28.6205 21.9695 28.7837 21.5694C28.9469 21.1694 29.1873 20.8054 29.4912 20.4983C29.7951 20.1912 30.1565 19.9469 30.5548 19.7794C30.9531 19.612 31.3804 19.5246 31.8125 19.5223ZM23.71 36.8298C24.8125 37.4948 27.21 36.4798 30.01 33.8548C29.0742 32.7913 28.1922 31.6816 27.3675 30.5298C25.956 30.3717 24.554 30.1381 23.1675 29.8298C22.275 33.5748 22.6075 36.1473 23.71 36.8298ZM24.9525 26.7848L24.445 25.8923C24.2472 26.3838 24.0777 26.8863 23.9375 27.3973C24.41 27.5023 24.935 27.5898 25.4775 27.6773L24.9525 26.7848ZM36.3975 25.4548L37.815 22.8298L36.3975 20.2048C35.8725 19.2773 35.3125 18.4548 34.805 17.6323C33.86 17.5798 32.8625 17.5798 31.8125 17.5798C30.7625 17.5798 29.765 17.5798 28.82 17.5798C28.3125 18.4023 27.7525 19.2248 27.2275 20.1523L25.81 22.8298L27.2275 25.4548C27.7525 26.3823 28.3125 27.2048 28.82 28.0273C29.765 28.0273 30.7625 28.0273 31.8125 28.0273C32.8625 28.0273 33.86 28.0273 34.805 28.0273C35.3125 27.2048 35.8725 26.3823 36.3975 25.4548ZM31.8125 13.6948C31.48 14.0798 31.13 14.4823 30.78 14.9548H32.845C32.495 14.4823 32.145 14.0798 31.8125 13.6948ZM31.8125 31.9648C32.145 31.5798 32.495 31.1773 32.845 30.7048H30.78C31.13 31.1773 31.48 31.5798 31.8125 31.9648ZM39.8975 8.82981C38.8125 8.16481 36.3975 9.17981 33.615 11.8048C34.5508 12.8683 35.4328 13.978 36.2575 15.1298C37.6677 15.2648 39.0697 15.4751 40.4575 15.7598C41.35 12.0148 41.0175 9.44231 39.8975 8.75981M38.6725 18.8048L39.18 19.6973C39.3778 19.2058 39.5473 18.7033 39.6875 18.1923C39.215 18.0873 38.69 17.9998 38.1475 17.9123L38.6725 18.8048ZM41.21 6.55481C43.7825 8.02481 44.0625 11.8923 42.96 16.4073C47.405 17.7198 50.6075 19.9073 50.6075 22.8473C50.6075 25.7873 47.405 27.9748 42.96 29.2873C44.045 33.8023 43.765 37.6698 41.21 39.1398C38.655 40.6098 35.1725 38.9298 31.8125 35.7273C28.4525 38.9298 24.97 40.6098 22.3975 39.1398C19.825 37.6698 19.5625 33.8898 20.6475 29.2873C16.2025 27.9748 13 25.7873 13 22.8473C13 19.9073 16.2025 17.7023 20.6475 16.3898C19.5625 11.8748 19.8425 8.00731 22.3975 6.53731C24.9525 5.06731 28.4525 6.74731 31.8125 9.94981C35.1725 6.74731 38.655 5.06731 41.21 6.53731M40.7025 22.8298C41.3103 24.1181 41.8477 25.4383 42.3125 26.7848C45.9875 25.6823 48.0525 24.1073 48.0525 22.8298C48.0525 21.5523 45.935 19.9773 42.3125 18.8748C41.8477 20.2213 41.3103 21.5416 40.7025 22.8298ZM22.9225 22.8298C22.3147 21.5416 21.7773 20.2213 21.3125 18.8748C17.6375 19.9773 15.5725 21.5523 15.5725 22.8298C15.5725 24.1073 17.69 25.6823 21.3125 26.7848C21.7773 25.4383 22.3147 24.1181 22.9225 22.8298ZM38.6725 26.7848L38.1475 27.6773C38.69 27.6773 39.215 27.5023 39.6875 27.3973C39.5473 26.8863 39.3778 26.3838 39.18 25.8923L38.6725 26.7848ZM33.5625 33.8548C36.345 36.4798 38.8125 37.4948 39.845 36.8298C40.8775 36.1648 41.2975 33.6448 40.405 29.8298C39.0172 30.1145 37.6152 30.3248 36.205 30.4598C35.3822 31.6355 34.5002 32.7686 33.5625 33.8548ZM24.9525 18.8748L25.4775 17.9823C24.935 17.9823 24.41 18.1573 23.9375 18.2623C24.0777 18.7733 24.2472 19.2758 24.445 19.7673L24.9525 18.8748ZM30.0625 11.8048C27.2275 9.17981 24.8125 8.16481 23.71 8.82981C22.6075 9.49481 22.275 12.0148 23.1675 15.8298C24.5553 15.5451 25.9573 15.3348 27.3675 15.1998C28.2073 14.0229 29.1068 12.8898 30.0625 11.8048Z" fill="white"/>
</svg>
