<svg width="157" height="45" viewBox="0 0 157 45" fill="none" xmlns="http://www.w3.org/2000/svg">
<rect width="157" height="45" rx="5" fill="#8B6AD3"/>
<path d="M74.748 33.182C73.552 33.182 72.4773 32.974 71.524 32.558C70.588 32.1247 69.8513 31.5353 69.314 30.79C68.7767 30.0273 68.4993 29.152 68.482 28.164H71.004C71.0907 29.0133 71.4373 29.7327 72.044 30.322C72.668 30.894 73.5693 31.18 74.748 31.18C75.8747 31.18 76.7587 30.9027 77.4 30.348C78.0587 29.776 78.388 29.048 78.388 28.164C78.388 27.4707 78.1973 26.9073 77.816 26.474C77.4347 26.0407 76.958 25.7113 76.386 25.486C75.814 25.2607 75.0427 25.018 74.072 24.758C72.876 24.446 71.914 24.134 71.186 23.822C70.4753 23.51 69.86 23.0247 69.34 22.366C68.8373 21.69 68.586 20.7887 68.586 19.662C68.586 18.674 68.8373 17.7987 69.34 17.036C69.8427 16.2733 70.5447 15.684 71.446 15.268C72.3647 14.852 73.4133 14.644 74.592 14.644C76.2907 14.644 77.6773 15.0687 78.752 15.918C79.844 16.7673 80.4593 17.894 80.598 19.298H77.998C77.9113 18.6047 77.5473 17.998 76.906 17.478C76.2647 16.9407 75.4153 16.672 74.358 16.672C73.37 16.672 72.564 16.932 71.94 17.452C71.316 17.9547 71.004 18.6653 71.004 19.584C71.004 20.2427 71.186 20.78 71.55 21.196C71.9313 21.612 72.3907 21.9327 72.928 22.158C73.4827 22.366 74.254 22.6087 75.242 22.886C76.438 23.2153 77.4 23.5447 78.128 23.874C78.856 24.186 79.48 24.68 80 25.356C80.52 26.0147 80.78 26.916 80.78 28.06C80.78 28.944 80.546 29.776 80.078 30.556C79.61 31.336 78.9167 31.9687 77.998 32.454C77.0793 32.9393 75.996 33.182 74.748 33.182ZM83.3778 25.824C83.3778 24.368 83.6724 23.094 84.2618 22.002C84.8511 20.8927 85.6571 20.0347 86.6798 19.428C87.7198 18.8213 88.8724 18.518 90.1378 18.518C91.3858 18.518 92.4691 18.7867 93.3878 19.324C94.3064 19.8613 94.9911 20.5373 95.4418 21.352V18.752H97.8338V33H95.4418V30.348C94.9738 31.18 94.2718 31.8733 93.3358 32.428C92.4171 32.9653 91.3424 33.234 90.1118 33.234C88.8464 33.234 87.7024 32.922 86.6798 32.298C85.6571 31.674 84.8511 30.7987 84.2618 29.672C83.6724 28.5453 83.3778 27.2627 83.3778 25.824ZM95.4418 25.85C95.4418 24.7753 95.2251 23.8393 94.7918 23.042C94.3584 22.2447 93.7691 21.638 93.0238 21.222C92.2958 20.7887 91.4898 20.572 90.6058 20.572C89.7218 20.572 88.9158 20.78 88.1878 21.196C87.4598 21.612 86.8791 22.2187 86.4458 23.016C86.0124 23.8133 85.7958 24.7493 85.7958 25.824C85.7958 26.916 86.0124 27.8693 86.4458 28.684C86.8791 29.4813 87.4598 30.0967 88.1878 30.53C88.9158 30.946 89.7218 31.154 90.6058 31.154C91.4898 31.154 92.2958 30.946 93.0238 30.53C93.7691 30.0967 94.3584 29.4813 94.7918 28.684C95.2251 27.8693 95.4418 26.9247 95.4418 25.85ZM106.876 33.234C105.784 33.234 104.805 33.052 103.938 32.688C103.071 32.3067 102.387 31.7867 101.884 31.128C101.381 30.452 101.104 29.6807 101.052 28.814H103.496C103.565 29.5247 103.895 30.1053 104.484 30.556C105.091 31.0067 105.879 31.232 106.85 31.232C107.751 31.232 108.462 31.0327 108.982 30.634C109.502 30.2353 109.762 29.7327 109.762 29.126C109.762 28.502 109.485 28.0427 108.93 27.748C108.375 27.436 107.517 27.1327 106.356 26.838C105.299 26.5607 104.432 26.2833 103.756 26.006C103.097 25.7113 102.525 25.2867 102.04 24.732C101.572 24.16 101.338 23.4147 101.338 22.496C101.338 21.768 101.555 21.1007 101.988 20.494C102.421 19.8873 103.037 19.4107 103.834 19.064C104.631 18.7 105.541 18.518 106.564 18.518C108.141 18.518 109.415 18.9167 110.386 19.714C111.357 20.5113 111.877 21.6033 111.946 22.99H109.58C109.528 22.2447 109.225 21.6467 108.67 21.196C108.133 20.7453 107.405 20.52 106.486 20.52C105.637 20.52 104.961 20.702 104.458 21.066C103.955 21.43 103.704 21.9067 103.704 22.496C103.704 22.964 103.851 23.354 104.146 23.666C104.458 23.9607 104.839 24.2033 105.29 24.394C105.758 24.5673 106.399 24.7667 107.214 24.992C108.237 25.2693 109.069 25.5467 109.71 25.824C110.351 26.084 110.897 26.4827 111.348 27.02C111.816 27.5573 112.059 28.2593 112.076 29.126C112.076 29.906 111.859 30.608 111.426 31.232C110.993 31.856 110.377 32.35 109.58 32.714C108.8 33.0607 107.899 33.234 106.876 33.234ZM120.46 33.234C119.368 33.234 118.389 33.052 117.522 32.688C116.655 32.3067 115.971 31.7867 115.468 31.128C114.965 30.452 114.688 29.6807 114.636 28.814H117.08C117.149 29.5247 117.479 30.1053 118.068 30.556C118.675 31.0067 119.463 31.232 120.434 31.232C121.335 31.232 122.046 31.0327 122.566 30.634C123.086 30.2353 123.346 29.7327 123.346 29.126C123.346 28.502 123.069 28.0427 122.514 27.748C121.959 27.436 121.101 27.1327 119.94 26.838C118.883 26.5607 118.016 26.2833 117.34 26.006C116.681 25.7113 116.109 25.2867 115.624 24.732C115.156 24.16 114.922 23.4147 114.922 22.496C114.922 21.768 115.139 21.1007 115.572 20.494C116.005 19.8873 116.621 19.4107 117.418 19.064C118.215 18.7 119.125 18.518 120.148 18.518C121.725 18.518 122.999 18.9167 123.97 19.714C124.941 20.5113 125.461 21.6033 125.53 22.99H123.164C123.112 22.2447 122.809 21.6467 122.254 21.196C121.717 20.7453 120.989 20.52 120.07 20.52C119.221 20.52 118.545 20.702 118.042 21.066C117.539 21.43 117.288 21.9067 117.288 22.496C117.288 22.964 117.435 23.354 117.73 23.666C118.042 23.9607 118.423 24.2033 118.874 24.394C119.342 24.5673 119.983 24.7667 120.798 24.992C121.821 25.2693 122.653 25.5467 123.294 25.824C123.935 26.084 124.481 26.4827 124.932 27.02C125.4 27.5573 125.643 28.2593 125.66 29.126C125.66 29.906 125.443 30.608 125.01 31.232C124.577 31.856 123.961 32.35 123.164 32.714C122.384 33.0607 121.483 33.234 120.46 33.234Z" fill="white"/>
<path d="M54.3042 23.6756C52.8738 23.6831 51.6307 24.0275 50.5898 24.5368C50.2078 23.7804 49.8259 23.1064 49.7585 22.6122C49.6836 22.0355 49.5937 21.6835 49.6836 20.9946C49.7735 20.3056 50.1779 19.3246 50.1704 19.2497C50.1629 19.1748 50.0805 18.8228 49.2568 18.8153C48.433 18.8078 47.7215 18.9726 47.6392 19.1898C47.5568 19.4069 47.3995 19.9012 47.2947 20.4104C47.1524 21.1593 45.6471 23.8328 44.7859 25.2332C44.5088 24.6866 44.2692 24.2073 44.2168 23.8253C44.1419 23.2487 44.052 22.8967 44.1419 22.2078C44.2318 21.5188 44.6362 20.5378 44.6287 20.4629C44.6212 20.388 44.5388 20.036 43.715 20.0285C42.8913 20.021 42.1798 20.1858 42.0975 20.403C42.0151 20.6201 41.9252 21.1294 41.753 21.6236C41.5807 22.1179 39.5812 26.5812 39.057 27.7345C38.7874 28.3261 38.5552 28.7979 38.3905 29.1199C38.3905 29.1199 38.383 29.1424 38.3605 29.1798C38.2182 29.4569 38.1359 29.6067 38.1359 29.6067C38.1359 29.6067 38.1359 29.6067 38.1359 29.6142C38.0235 29.8164 37.9037 30.0036 37.8438 30.0036C37.7989 30.0036 37.7165 29.4644 37.8588 28.7305C38.1583 27.1803 38.8698 24.7689 38.8623 24.6866C38.8623 24.6416 38.9971 24.2223 38.398 24.0051C37.8139 23.7879 37.6042 24.1474 37.5517 24.1474C37.4993 24.1474 37.4619 24.2747 37.4619 24.2747C37.4619 24.2747 38.1134 21.5637 36.2187 21.5637C35.0355 21.5637 33.4029 22.8593 32.5942 24.0275C32.0849 24.3046 30.999 24.8962 29.8383 25.5328C29.3964 25.7799 28.9396 26.0271 28.5128 26.2592C28.4828 26.2293 28.4528 26.1918 28.4229 26.1619C26.1313 23.713 21.8926 21.9831 22.0724 18.6955C22.1398 17.4973 22.5517 14.352 30.2127 10.5327C36.5183 7.42485 41.5358 8.28606 42.4045 10.1957C43.6476 12.9216 39.716 17.9841 33.2007 18.718C30.7145 18.9951 29.4114 18.0365 29.0819 17.677C28.7374 17.3026 28.685 17.2801 28.5577 17.355C28.348 17.4673 28.4828 17.8043 28.5577 17.999C28.7524 18.5083 29.5537 19.4069 30.9092 19.8488C32.1074 20.2382 35.0205 20.4554 38.5478 19.0924C42.4944 17.5647 45.5797 13.3185 44.6736 9.76136C43.7675 6.15175 37.7764 4.96103 32.1074 6.97552C28.7374 8.17373 25.0829 10.0609 22.4543 12.5172C19.3315 15.4379 18.8372 17.9766 19.0394 19.04C19.7658 22.8144 24.9705 25.2707 27.0524 27.0905C26.9476 27.1504 26.8502 27.2028 26.7679 27.2477C25.7269 27.7645 21.7578 29.8389 20.7693 32.0331C19.646 34.5194 20.9491 36.3017 21.8103 36.5413C24.4838 37.2827 27.2322 35.9497 28.7075 33.748C30.1828 31.5463 30.003 28.6856 29.3215 27.375C29.3141 27.3601 29.3066 27.3451 29.2916 27.3301C29.5612 27.1728 29.8383 27.0081 30.1079 26.8508C30.6396 26.5363 31.1638 26.2442 31.6131 26.0046C31.3585 26.701 31.1713 27.5323 31.0814 28.7305C30.9691 30.1384 31.5457 31.9657 32.3021 32.6846C32.6391 32.9991 33.036 33.0066 33.2906 33.0066C34.1743 33.0066 34.5712 32.2727 35.013 31.404C35.5522 30.3406 36.039 29.105 36.039 29.105C36.039 29.105 35.4324 32.445 37.0799 32.445C37.6791 32.445 38.2856 31.6661 38.5552 31.2692V31.2767C38.5552 31.2767 38.5702 31.2542 38.6002 31.2018C38.6601 31.1045 38.6975 31.0446 38.6975 31.0446V31.0296C38.9372 30.6102 39.4764 29.6591 40.2777 28.079C41.3111 26.042 42.3071 23.4958 42.3071 23.4958C42.3071 23.4958 42.397 24.1174 42.704 25.1509C42.8838 25.7575 43.2582 26.424 43.5578 27.068C43.3181 27.405 43.1684 27.5922 43.1684 27.5922C43.1684 27.5922 43.1684 27.5922 43.1758 27.5997C42.9811 27.8543 42.7714 28.1314 42.5393 28.401C41.723 29.3746 40.7495 30.4904 40.6147 30.8124C40.4574 31.1943 40.4948 31.4714 40.7944 31.6961C41.0116 31.8608 41.401 31.8833 41.7979 31.8608C42.5318 31.8084 43.0485 31.6287 43.3032 31.5164C43.7001 31.3741 44.1644 31.1569 44.5987 30.8349C45.4 30.2433 45.8868 29.397 45.8419 28.2812C45.8194 27.6671 45.6172 27.053 45.3701 26.4764C45.445 26.3715 45.5124 26.2667 45.5872 26.1619C46.8528 24.3121 47.8339 22.2826 47.8339 22.2826C47.8339 22.2826 47.9237 22.9042 48.2308 23.9377C48.3806 24.4619 48.6876 25.031 48.9572 25.5852C47.7665 26.5513 47.0326 27.6746 46.7705 28.4085C46.2987 29.7715 46.6656 30.3855 47.3621 30.5278C47.6766 30.5952 48.1259 30.4454 48.4555 30.3032C48.8748 30.1684 49.3691 29.9362 49.8409 29.5917C50.6422 29.0001 51.4135 28.1763 51.3686 27.0605C51.3461 26.5513 51.2113 26.0495 51.0241 25.5627C52.0351 25.1434 53.3382 24.9112 55.0007 25.1059C58.5653 25.5253 59.2693 27.7495 59.1345 28.6856C58.9997 29.6217 58.2508 30.1309 58.0037 30.2882C57.7566 30.4454 57.6742 30.4979 57.6966 30.6102C57.7266 30.775 57.8464 30.7675 58.0561 30.7375C58.3482 30.6851 59.9283 29.9811 59.9957 28.2587C60.108 26.057 58.0112 23.6531 54.3042 23.6756ZM26.8053 32.9467C25.6221 34.2348 23.9745 34.7216 23.2631 34.3097C22.4992 33.8678 22.7988 31.9657 24.2516 30.6027C25.1353 29.7715 26.2736 29.0001 27.03 28.5283C27.2022 28.4235 27.4568 28.2737 27.7639 28.0865C27.8163 28.0565 27.8462 28.0415 27.8462 28.0415C27.9062 28.0041 27.9661 27.9667 28.026 27.9292C28.5577 29.8763 28.0484 31.5912 26.8053 32.9467ZM35.4174 27.0905C35.0055 28.094 34.1443 30.6626 33.6201 30.5203C33.1708 30.4005 32.8937 28.4534 33.5303 26.5288C33.8523 25.5627 34.5338 24.4095 34.9307 23.9601C35.5747 23.2412 36.2861 23.0016 36.4584 23.2936C36.6756 23.6756 35.6721 26.4614 35.4174 27.0905ZM42.5243 30.4904C42.3521 30.5802 42.1873 30.6402 42.1124 30.5952C42.06 30.5653 42.1873 30.4454 42.1873 30.4454C42.1873 30.4454 43.0785 29.4869 43.4305 29.0525C43.6327 28.7979 43.8723 28.4984 44.1269 28.1614V28.2587C44.1269 29.4045 43.0186 30.1759 42.5243 30.4904ZM48.0061 29.2398C47.8788 29.1499 47.9013 28.8503 48.3281 27.9142C48.4929 27.5473 48.8823 26.9332 49.5488 26.3416C49.6237 26.5812 49.6761 26.8134 49.6686 27.0306C49.6612 28.4759 48.6277 29.0151 48.0061 29.2398Z" fill="#D9D9D9"/>
</svg>
