<svg width="231" height="45" viewBox="0 0 231 45" fill="none" xmlns="http://www.w3.org/2000/svg">
<rect width="231" height="45" rx="5" fill="#8B6AD3"/>
<path d="M67.748 33.182C66.552 33.182 65.4773 32.974 64.524 32.558C63.588 32.1247 62.8513 31.5353 62.314 30.79C61.7767 30.0273 61.4993 29.152 61.482 28.164H64.004C64.0907 29.0133 64.4373 29.7327 65.044 30.322C65.668 30.894 66.5693 31.18 67.748 31.18C68.8747 31.18 69.7587 30.9027 70.4 30.348C71.0587 29.776 71.388 29.048 71.388 28.164C71.388 27.4707 71.1973 26.9073 70.816 26.474C70.4347 26.0407 69.958 25.7113 69.386 25.486C68.814 25.2607 68.0427 25.018 67.072 24.758C65.876 24.446 64.914 24.134 64.186 23.822C63.4753 23.51 62.86 23.0247 62.34 22.366C61.8373 21.69 61.586 20.7887 61.586 19.662C61.586 18.674 61.8373 17.7987 62.34 17.036C62.8427 16.2733 63.5447 15.684 64.446 15.268C65.3647 14.852 66.4133 14.644 67.592 14.644C69.2907 14.644 70.6773 15.0687 71.752 15.918C72.844 16.7673 73.4593 17.894 73.598 19.298H70.998C70.9113 18.6047 70.5473 17.998 69.906 17.478C69.2647 16.9407 68.4153 16.672 67.358 16.672C66.37 16.672 65.564 16.932 64.94 17.452C64.316 17.9547 64.004 18.6653 64.004 19.584C64.004 20.2427 64.186 20.78 64.55 21.196C64.9313 21.612 65.3907 21.9327 65.928 22.158C66.4827 22.366 67.254 22.6087 68.242 22.886C69.438 23.2153 70.4 23.5447 71.128 23.874C71.856 24.186 72.48 24.68 73 25.356C73.52 26.0147 73.78 26.916 73.78 28.06C73.78 28.944 73.546 29.776 73.078 30.556C72.61 31.336 71.9167 31.9687 70.998 32.454C70.0793 32.9393 68.996 33.182 67.748 33.182ZM79.6278 21.378C80.0958 20.5633 80.7891 19.8873 81.7078 19.35C82.6438 18.7953 83.7271 18.518 84.9578 18.518C86.2231 18.518 87.3671 18.8213 88.3898 19.428C89.4298 20.0347 90.2444 20.8927 90.8338 22.002C91.4231 23.094 91.7178 24.368 91.7178 25.824C91.7178 27.2627 91.4231 28.5453 90.8338 29.672C90.2444 30.7987 89.4298 31.674 88.3898 32.298C87.3671 32.922 86.2231 33.234 84.9578 33.234C83.7444 33.234 82.6698 32.9653 81.7338 32.428C80.8151 31.8733 80.1131 31.1887 79.6278 30.374V39.76H77.2618V18.752H79.6278V21.378ZM89.2998 25.824C89.2998 24.7493 89.0831 23.8133 88.6498 23.016C88.2164 22.2187 87.6271 21.612 86.8818 21.196C86.1538 20.78 85.3478 20.572 84.4638 20.572C83.5971 20.572 82.7911 20.7887 82.0458 21.222C81.3178 21.638 80.7284 22.2533 80.2778 23.068C79.8444 23.8653 79.6278 24.7927 79.6278 25.85C79.6278 26.9247 79.8444 27.8693 80.2778 28.684C80.7284 29.4813 81.3178 30.0967 82.0458 30.53C82.7911 30.946 83.5971 31.154 84.4638 31.154C85.3478 31.154 86.1538 30.946 86.8818 30.53C87.6271 30.0967 88.2164 29.4813 88.6498 28.684C89.0831 27.8693 89.2998 26.916 89.2998 25.824ZM97.1981 21.066C97.6141 20.2513 98.2034 19.6187 98.9661 19.168C99.7461 18.7173 100.691 18.492 101.8 18.492V20.936H101.176C98.5241 20.936 97.1981 22.3747 97.1981 25.252V33H94.8321V18.752H97.1981V21.066ZM105.753 16.438C105.303 16.438 104.921 16.282 104.609 15.97C104.297 15.658 104.141 15.2767 104.141 14.826C104.141 14.3753 104.297 13.994 104.609 13.682C104.921 13.37 105.303 13.214 105.753 13.214C106.187 13.214 106.551 13.37 106.845 13.682C107.157 13.994 107.313 14.3753 107.313 14.826C107.313 15.2767 107.157 15.658 106.845 15.97C106.551 16.282 106.187 16.438 105.753 16.438ZM106.897 18.752V33H104.531V18.752H106.897ZM117.872 18.492C119.605 18.492 121.009 19.0207 122.084 20.078C123.158 21.118 123.696 22.626 123.696 24.602V33H121.356V24.94C121.356 23.5187 121 22.4353 120.29 21.69C119.579 20.9273 118.608 20.546 117.378 20.546C116.13 20.546 115.133 20.936 114.388 21.716C113.66 22.496 113.296 23.6313 113.296 25.122V33H110.93V18.752H113.296V20.78C113.764 20.052 114.396 19.4887 115.194 19.09C116.008 18.6913 116.901 18.492 117.872 18.492ZM133.437 18.518C134.667 18.518 135.742 18.7867 136.661 19.324C137.597 19.8613 138.29 20.5373 138.741 21.352V18.752H141.133V33.312C141.133 34.612 140.855 35.7647 140.301 36.77C139.746 37.7927 138.949 38.59 137.909 39.162C136.886 39.734 135.69 40.02 134.321 40.02C132.449 40.02 130.889 39.578 129.641 38.694C128.393 37.81 127.656 36.6053 127.431 35.08H129.771C130.031 35.9467 130.568 36.64 131.383 37.16C132.197 37.6973 133.177 37.966 134.321 37.966C135.621 37.966 136.678 37.5587 137.493 36.744C138.325 35.9293 138.741 34.7853 138.741 33.312V30.322C138.273 31.154 137.579 31.8473 136.661 32.402C135.742 32.9567 134.667 33.234 133.437 33.234C132.171 33.234 131.019 32.922 129.979 32.298C128.956 31.674 128.15 30.7987 127.561 29.672C126.971 28.5453 126.677 27.2627 126.677 25.824C126.677 24.368 126.971 23.094 127.561 22.002C128.15 20.8927 128.956 20.0347 129.979 19.428C131.019 18.8213 132.171 18.518 133.437 18.518ZM138.741 25.85C138.741 24.7753 138.524 23.8393 138.091 23.042C137.657 22.2447 137.068 21.638 136.323 21.222C135.595 20.7887 134.789 20.572 133.905 20.572C133.021 20.572 132.215 20.78 131.487 21.196C130.759 21.612 130.178 22.2187 129.745 23.016C129.311 23.8133 129.095 24.7493 129.095 25.824C129.095 26.916 129.311 27.8693 129.745 28.684C130.178 29.4813 130.759 30.0967 131.487 30.53C132.215 30.946 133.021 31.154 133.905 31.154C134.789 31.154 135.595 30.946 136.323 30.53C137.068 30.0967 137.657 29.4813 138.091 28.684C138.524 27.8693 138.741 26.9247 138.741 25.85ZM161.137 23.666C161.795 23.77 162.393 24.0387 162.931 24.472C163.485 24.9053 163.919 25.4427 164.231 26.084C164.56 26.7253 164.725 27.41 164.725 28.138C164.725 29.0567 164.491 29.8887 164.023 30.634C163.555 31.362 162.87 31.9427 161.969 32.376C161.085 32.792 160.036 33 158.823 33H152.063V14.878H158.563C159.793 14.878 160.842 15.086 161.709 15.502C162.575 15.9007 163.225 16.4467 163.659 17.14C164.092 17.8333 164.309 18.6133 164.309 19.48C164.309 20.5547 164.014 21.4473 163.425 22.158C162.853 22.8513 162.09 23.354 161.137 23.666ZM154.429 22.704H158.407C159.516 22.704 160.374 22.444 160.981 21.924C161.587 21.404 161.891 20.6847 161.891 19.766C161.891 18.8473 161.587 18.128 160.981 17.608C160.374 17.088 159.499 16.828 158.355 16.828H154.429V22.704ZM158.615 31.05C159.793 31.05 160.712 30.7727 161.371 30.218C162.029 29.6633 162.359 28.892 162.359 27.904C162.359 26.8987 162.012 26.11 161.319 25.538C160.625 24.9487 159.698 24.654 158.537 24.654H154.429V31.05H158.615ZM174.222 33.234C172.887 33.234 171.674 32.9307 170.582 32.324C169.507 31.7173 168.658 30.8593 168.034 29.75C167.427 28.6233 167.124 27.3233 167.124 25.85C167.124 24.394 167.436 23.1113 168.06 22.002C168.701 20.8753 169.568 20.0173 170.66 19.428C171.752 18.8213 172.974 18.518 174.326 18.518C175.678 18.518 176.9 18.8213 177.992 19.428C179.084 20.0173 179.942 20.8667 180.566 21.976C181.207 23.0853 181.528 24.3767 181.528 25.85C181.528 27.3233 181.199 28.6233 180.54 29.75C179.899 30.8593 179.023 31.7173 177.914 32.324C176.805 32.9307 175.574 33.234 174.222 33.234ZM174.222 31.154C175.071 31.154 175.869 30.9547 176.614 30.556C177.359 30.1573 177.957 29.5593 178.408 28.762C178.876 27.9647 179.11 26.994 179.11 25.85C179.11 24.706 178.885 23.7353 178.434 22.938C177.983 22.1407 177.394 21.5513 176.666 21.17C175.938 20.7713 175.149 20.572 174.3 20.572C173.433 20.572 172.636 20.7713 171.908 21.17C171.197 21.5513 170.625 22.1407 170.192 22.938C169.759 23.7353 169.542 24.706 169.542 25.85C169.542 27.0113 169.75 27.9907 170.166 28.788C170.599 29.5853 171.171 30.1833 171.882 30.582C172.593 30.9633 173.373 31.154 174.222 31.154ZM190.853 33.234C189.518 33.234 188.305 32.9307 187.213 32.324C186.138 31.7173 185.289 30.8593 184.665 29.75C184.058 28.6233 183.755 27.3233 183.755 25.85C183.755 24.394 184.067 23.1113 184.691 22.002C185.332 20.8753 186.199 20.0173 187.291 19.428C188.383 18.8213 189.605 18.518 190.957 18.518C192.309 18.518 193.531 18.8213 194.623 19.428C195.715 20.0173 196.573 20.8667 197.197 21.976C197.838 23.0853 198.159 24.3767 198.159 25.85C198.159 27.3233 197.829 28.6233 197.171 29.75C196.529 30.8593 195.654 31.7173 194.545 32.324C193.435 32.9307 192.205 33.234 190.853 33.234ZM190.853 31.154C191.702 31.154 192.499 30.9547 193.245 30.556C193.99 30.1573 194.588 29.5593 195.039 28.762C195.507 27.9647 195.741 26.994 195.741 25.85C195.741 24.706 195.515 23.7353 195.065 22.938C194.614 22.1407 194.025 21.5513 193.297 21.17C192.569 20.7713 191.78 20.572 190.931 20.572C190.064 20.572 189.267 20.7713 188.539 21.17C187.828 21.5513 187.256 22.1407 186.823 22.938C186.389 23.7353 186.173 24.706 186.173 25.85C186.173 27.0113 186.381 27.9907 186.797 28.788C187.23 29.5853 187.802 30.1833 188.513 30.582C189.223 30.9633 190.003 31.154 190.853 31.154ZM204.156 20.702V29.1C204.156 29.7933 204.303 30.2873 204.598 30.582C204.892 30.8593 205.404 30.998 206.132 30.998H207.874V33H205.742C204.424 33 203.436 32.6967 202.778 32.09C202.119 31.4833 201.79 30.4867 201.79 29.1V20.702H199.944V18.752H201.79V15.164H204.156V18.752H207.874V20.702H204.156Z" fill="white"/>
<path d="M45.94 28.856C42.648 33.2413 35.6187 31.7613 31.1107 31.9733C31.1107 31.9733 30.312 32.0187 29.5093 32.1507C29.5093 32.1507 29.8133 32.0213 30.2013 31.8867C33.3667 30.792 34.8627 30.572 36.7867 29.584C40.4 27.7333 43.9973 23.7 44.7293 19.5107C43.3533 23.54 39.1693 27.008 35.36 28.416C32.7533 29.3787 28.0373 30.3147 28.036 30.3147C27.9719 30.2819 27.9084 30.2481 27.8453 30.2133C24.6387 28.6533 24.5453 21.7067 30.3707 19.468C32.9253 18.4867 35.3667 19.0253 38.128 18.368C41.072 17.668 44.4827 15.4613 45.868 12.576C47.4213 17.1867 49.288 24.3973 45.94 28.856ZM45.996 11.1493C45.6236 12.0423 45.1469 12.8882 44.576 13.6693C43.3349 12.3902 41.8495 11.3734 40.208 10.6791C38.5665 9.98493 36.8023 9.62748 35.02 9.62801C27.656 9.62801 21.6667 15.6173 21.6667 22.98C21.6658 24.8166 22.045 26.6335 22.7805 28.3163C23.5159 29.9992 24.5916 31.5117 25.94 32.7587L26.2333 33.0173C26.0195 32.8032 25.8995 32.5129 25.8997 32.2103C25.8999 31.9076 26.0203 31.6175 26.2343 31.4036C26.4484 31.1897 26.7387 31.0696 27.0413 31.0696C27.3439 31.0697 27.6341 31.1899 27.8481 31.4039C28.0621 31.6179 28.1823 31.9081 28.1824 32.2107C28.1824 32.5133 28.0623 32.8036 27.8484 33.0177C27.6345 33.2317 27.3444 33.3521 27.0417 33.3523C26.7391 33.3525 26.4488 33.2325 26.2347 33.0187L26.4333 33.1947C28.8339 35.2242 31.8765 36.3364 35.02 36.3333C42.0573 36.3333 47.8373 30.856 48.332 23.944C48.6973 20.5587 47.6973 16.26 45.996 11.1493Z" fill="white"/>
</svg>
