<svg width="143" height="45" viewBox="0 0 143 45" fill="none" xmlns="http://www.w3.org/2000/svg">
<rect width="143" height="45" rx="5" fill="#8B6AD3"/>
<path d="M74.748 33.182C73.552 33.182 72.4773 32.974 71.524 32.558C70.588 32.1247 69.8513 31.5353 69.314 30.79C68.7767 30.0273 68.4993 29.152 68.482 28.164H71.004C71.0907 29.0133 71.4373 29.7327 72.044 30.322C72.668 30.894 73.5693 31.18 74.748 31.18C75.8747 31.18 76.7587 30.9027 77.4 30.348C78.0587 29.776 78.388 29.048 78.388 28.164C78.388 27.4707 78.1973 26.9073 77.816 26.474C77.4347 26.0407 76.958 25.7113 76.386 25.486C75.814 25.2607 75.0427 25.018 74.072 24.758C72.876 24.446 71.914 24.134 71.186 23.822C70.4753 23.51 69.86 23.0247 69.34 22.366C68.8373 21.69 68.586 20.7887 68.586 19.662C68.586 18.674 68.8373 17.7987 69.34 17.036C69.8427 16.2733 70.5447 15.684 71.446 15.268C72.3647 14.852 73.4133 14.644 74.592 14.644C76.2907 14.644 77.6773 15.0687 78.752 15.918C79.844 16.7673 80.4593 17.894 80.598 19.298H77.998C77.9113 18.6047 77.5473 17.998 76.906 17.478C76.2647 16.9407 75.4153 16.672 74.358 16.672C73.37 16.672 72.564 16.932 71.94 17.452C71.316 17.9547 71.004 18.6653 71.004 19.584C71.004 20.2427 71.186 20.78 71.55 21.196C71.9313 21.612 72.3907 21.9327 72.928 22.158C73.4827 22.366 74.254 22.6087 75.242 22.886C76.438 23.2153 77.4 23.5447 78.128 23.874C78.856 24.186 79.48 24.68 80 25.356C80.52 26.0147 80.78 26.916 80.78 28.06C80.78 28.944 80.546 29.776 80.078 30.556C79.61 31.336 78.9167 31.9687 77.998 32.454C77.0793 32.9393 75.996 33.182 74.748 33.182ZM98.7958 36.432L95.1818 32.818C94.2978 33.0607 93.3964 33.182 92.4778 33.182C90.7964 33.182 89.2624 32.792 87.8758 32.012C86.4891 31.2147 85.3884 30.114 84.5738 28.71C83.7764 27.2887 83.3778 25.694 83.3778 23.926C83.3778 22.158 83.7764 20.572 84.5738 19.168C85.3884 17.7467 86.4891 16.646 87.8758 15.866C89.2624 15.0687 90.7964 14.67 92.4778 14.67C94.1764 14.67 95.7191 15.0687 97.1058 15.866C98.4924 16.646 99.5844 17.738 100.382 19.142C101.179 20.546 101.578 22.1407 101.578 23.926C101.578 25.6593 101.196 27.2193 100.434 28.606C99.6711 29.9927 98.6224 31.0847 97.2878 31.882L101.864 36.432H98.7958ZM85.7958 23.926C85.7958 25.3647 86.0818 26.63 86.6538 27.722C87.2431 28.814 88.0404 29.6547 89.0458 30.244C90.0684 30.8333 91.2124 31.128 92.4778 31.128C93.7431 31.128 94.8784 30.8333 95.8838 30.244C96.9064 29.6547 97.7038 28.814 98.2758 27.722C98.8651 26.63 99.1598 25.3647 99.1598 23.926C99.1598 22.47 98.8651 21.2047 98.2758 20.13C97.7038 19.038 96.9151 18.1973 95.9098 17.608C94.9044 17.0187 93.7604 16.724 92.4778 16.724C91.1951 16.724 90.0511 17.0187 89.0458 17.608C88.0404 18.1973 87.2431 19.038 86.6538 20.13C86.0818 21.2047 85.7958 22.47 85.7958 23.926ZM107.118 31.076H113.462V33H104.752V14.878H107.118V31.076Z" fill="white"/>
<path d="M40.3762 20.3545C39.2336 20.3545 38.575 21.4744 38.575 22.8587C38.5638 24.2641 39.2448 25.3406 40.365 25.3406C41.4958 25.3406 42.1555 24.275 42.1555 22.8257C42.1555 21.4744 41.5181 20.3545 40.3762 20.3545Z" fill="#D9D9D9"/>
<path d="M50.1471 18.1181H49.5351V15.1646C49.5351 15.146 49.5321 15.1276 49.5297 15.1088C49.5287 14.9916 49.4914 14.8765 49.4111 14.7852L44.4961 9.17096C44.4947 9.16952 44.4931 9.16891 44.4922 9.16747C44.4629 9.13474 44.4287 9.10749 44.3926 9.08397C44.3819 9.07681 44.3711 9.07081 44.3599 9.06449C44.3286 9.04752 44.2954 9.03324 44.2613 9.02297C44.252 9.02055 44.2437 9.01674 44.2345 9.01432C44.1973 9.00549 44.1587 9 44.1198 9H32.0405C31.4889 9 31.0409 9.44862 31.0409 9.9997V18.1181H30.4289C29.64 18.1181 29 18.7576 29 19.547V26.9772C29 27.7658 29.64 28.406 30.4289 28.406H31.0409V33.4923C31.0409 34.0435 31.4889 34.492 32.0405 34.492H48.5354C49.0865 34.492 49.5351 34.0435 49.5351 33.4923V28.406H50.1471C50.9364 28.406 51.5758 27.7658 51.5758 26.9772V19.547C51.5759 18.7577 50.9364 18.1181 50.1471 18.1181ZM32.0405 9.9997H43.6199V15.1143C43.6199 15.3906 43.8439 15.6141 44.1197 15.6141H48.5354V18.1183H32.0405V9.9997ZM43.9557 26.5262L43.4725 27.8226C42.4186 27.5149 41.54 27.1959 40.5514 26.7791C40.3874 26.7131 40.2112 26.68 40.0356 26.6693C38.366 26.5599 36.8066 25.3294 36.8066 22.9136C36.8066 20.6954 38.2124 19.0257 40.4196 19.0257C42.6827 19.0257 43.923 20.7391 43.923 22.7599C43.923 24.4403 43.1435 25.6257 42.1662 26.0652V26.1091C42.7373 26.2736 43.3739 26.4056 43.9557 26.5262ZM30.9319 26.208L31.2726 24.8242C31.7231 25.0548 32.4142 25.2851 33.1285 25.2851C33.8968 25.2851 34.3034 24.9671 34.3034 24.4842C34.3034 24.0226 33.9519 23.759 33.0625 23.4407C31.8324 23.0122 31.0309 22.3315 31.0309 21.2549C31.0309 19.992 32.0854 19.0256 33.8312 19.0256C34.666 19.0256 35.2811 19.2019 35.7199 19.399L35.347 20.7501C35.0506 20.6071 34.5236 20.3984 33.7988 20.3984C33.0735 20.3984 32.7219 20.7276 32.7219 21.1124C32.7219 21.5844 33.1392 21.7934 34.0949 22.1561C35.4018 22.6393 36.0166 23.3195 36.0166 24.3629C36.0166 25.6042 35.0608 26.658 33.0293 26.658C32.1841 26.6575 31.3497 26.4379 30.9319 26.208ZM48.5354 33.2214H32.0405V28.406H48.5354V33.2214ZM49.6444 26.548H45.0204V19.1463H46.7015V25.1426H49.6444V26.548Z" fill="#D9D9D9"/>
</svg>
