<svg width="157" height="45" viewBox="0 0 157 45" fill="none" xmlns="http://www.w3.org/2000/svg">
<rect width="157" height="45" rx="5" fill="#8B6AD3"/>
<path d="M76.978 15.878L70.14 34H67.41L60.572 15.878H63.094L68.788 31.504L74.482 15.878H76.978ZM92.2083 19.752V34H89.8423V31.894C89.3916 32.622 88.759 33.194 87.9443 33.61C87.147 34.0087 86.263 34.208 85.2923 34.208C84.183 34.208 83.1863 33.9827 82.3023 33.532C81.4183 33.064 80.7163 32.3707 80.1963 31.452C79.6936 30.5333 79.4423 29.4153 79.4423 28.098V19.752H81.7823V27.786C81.7823 29.19 82.1376 30.2733 82.8483 31.036C83.559 31.7813 84.5296 32.154 85.7603 32.154C87.0256 32.154 88.0223 31.764 88.7503 30.984C89.4783 30.204 89.8423 29.0687 89.8423 27.578V19.752H92.2083ZM109.203 26.33C109.203 26.7807 109.177 27.2573 109.125 27.76H97.7372C97.8238 29.164 98.3005 30.2647 99.1672 31.062C100.051 31.842 101.117 32.232 102.365 32.232C103.388 32.232 104.237 31.998 104.913 31.53C105.607 31.0447 106.092 30.4033 106.369 29.606H108.917C108.536 30.9753 107.773 32.0933 106.629 32.96C105.485 33.8093 104.064 34.234 102.365 34.234C101.013 34.234 99.7998 33.9307 98.7252 33.324C97.6678 32.7173 96.8358 31.8593 96.2292 30.75C95.6225 29.6233 95.3192 28.3233 95.3192 26.85C95.3192 25.3767 95.6138 24.0853 96.2032 22.976C96.7925 21.8667 97.6158 21.0173 98.6732 20.428C99.7478 19.8213 100.979 19.518 102.365 19.518C103.717 19.518 104.913 19.8127 105.953 20.402C106.993 20.9913 107.791 21.806 108.345 22.846C108.917 23.8687 109.203 25.03 109.203 26.33ZM106.759 25.836C106.759 24.9347 106.56 24.1633 106.161 23.522C105.763 22.8633 105.217 22.3693 104.523 22.04C103.847 21.6933 103.093 21.52 102.261 21.52C101.065 21.52 100.043 21.9013 99.1932 22.664C98.3612 23.4267 97.8845 24.484 97.7632 25.836H106.759ZM113.08 34.156C112.63 34.156 112.248 34 111.936 33.688C111.624 33.376 111.468 32.9947 111.468 32.544C111.468 32.0933 111.624 31.712 111.936 31.4C112.248 31.088 112.63 30.932 113.08 30.932C113.514 30.932 113.878 31.088 114.172 31.4C114.484 31.712 114.64 32.0933 114.64 32.544C114.64 32.9947 114.484 33.376 114.172 33.688C113.878 34 113.514 34.156 113.08 34.156ZM119.059 17.438C118.609 17.438 118.227 17.282 117.915 16.97C117.621 16.658 117.473 16.2767 117.473 15.826C117.473 15.3753 117.621 14.994 117.915 14.682C118.227 14.37 118.609 14.214 119.059 14.214C119.51 14.214 119.883 14.37 120.177 14.682C120.489 14.994 120.645 15.3753 120.645 15.826C120.645 16.2767 120.489 16.658 120.177 16.97C119.883 17.282 119.51 17.438 119.059 17.438ZM120.229 37.094C120.229 38.3593 119.909 39.2867 119.267 39.876C118.626 40.4653 117.69 40.76 116.459 40.76H115.081V38.758H116.069C116.728 38.758 117.187 38.628 117.447 38.368C117.725 38.108 117.863 37.666 117.863 37.042V19.752H120.229V37.094ZM129.278 34.234C128.186 34.234 127.207 34.052 126.34 33.688C125.474 33.3067 124.789 32.7867 124.286 32.128C123.784 31.452 123.506 30.6807 123.454 29.814H125.898C125.968 30.5247 126.297 31.1053 126.886 31.556C127.493 32.0067 128.282 32.232 129.252 32.232C130.154 32.232 130.864 32.0327 131.384 31.634C131.904 31.2353 132.164 30.7327 132.164 30.126C132.164 29.502 131.887 29.0427 131.332 28.748C130.778 28.436 129.92 28.1327 128.758 27.838C127.701 27.5607 126.834 27.2833 126.158 27.006C125.5 26.7113 124.928 26.2867 124.442 25.732C123.974 25.16 123.74 24.4147 123.74 23.496C123.74 22.768 123.957 22.1007 124.39 21.494C124.824 20.8873 125.439 20.4107 126.236 20.064C127.034 19.7 127.944 19.518 128.966 19.518C130.544 19.518 131.818 19.9167 132.788 20.714C133.759 21.5113 134.279 22.6033 134.348 23.99H131.982C131.93 23.2447 131.627 22.6467 131.072 22.196C130.535 21.7453 129.807 21.52 128.888 21.52C128.039 21.52 127.363 21.702 126.86 22.066C126.358 22.43 126.106 22.9067 126.106 23.496C126.106 23.964 126.254 24.354 126.548 24.666C126.86 24.9607 127.242 25.2033 127.692 25.394C128.16 25.5673 128.802 25.7667 129.616 25.992C130.639 26.2693 131.471 26.5467 132.112 26.824C132.754 27.084 133.3 27.4827 133.75 28.02C134.218 28.5573 134.461 29.2593 134.478 30.126C134.478 30.906 134.262 31.608 133.828 32.232C133.395 32.856 132.78 33.35 131.982 33.714C131.202 34.0607 130.301 34.234 129.278 34.234Z" fill="white"/>
<g clip-path="url(#clip0_1_73)">
<path d="M50.0786 7.83334H44.25L40 14.775L36.3571 7.83334H23L40 37.5833L57 7.83334H50.0786ZM27.25 10.3125H31.3786L40 25.6833L48.6214 10.3125H52.75L40 32.625L27.25 10.3125Z" fill="#D9D9D9"/>
</g>
<defs>
<clipPath id="clip0_1_73">
<rect width="34" height="34" fill="white" transform="translate(23 5)"/>
</clipPath>
</defs>
</svg>
