<svg width="223" height="45" viewBox="0 0 223 45" fill="none" xmlns="http://www.w3.org/2000/svg">
<rect width="223" height="45" rx="5" fill="#8B6AD3"/>
<path d="M46.9213 13.0654C44.398 10.5537 40.9122 9 37.0614 9C29.361 9 23.1173 15.2138 23.1173 22.8796C23.1173 25.4304 23.8086 27.8198 25.014 29.8739L24.9784 29.8086L23 37L30.3909 35.07C32.3149 36.1335 34.6103 36.7591 37.053 36.7591H37.0586C44.7591 36.7563 51 30.5416 51 22.8768C51 19.0458 49.441 15.578 46.9204 13.0663L46.9213 13.0654ZM37.0586 34.4146H37.0539C34.8786 34.4146 32.8421 33.817 31.1039 32.7778L31.1564 32.8067L30.7333 32.5574L26.3479 33.7031L27.5177 29.4463L27.2419 29.0103C26.1303 27.2717 25.4699 25.1531 25.4699 22.8805C25.4699 16.5107 30.6583 11.3464 37.0577 11.3464C43.4571 11.3464 48.6455 16.5107 48.6455 22.8805C48.6455 29.2502 43.459 34.4146 37.0586 34.4146ZM43.4149 25.7768C43.0669 25.6032 41.354 24.7656 41.035 24.6489C40.7152 24.5331 40.4825 24.4762 40.2499 24.8235C40.0191 25.1699 39.3512 25.9505 39.1477 26.1821C38.9451 26.4146 38.7406 26.4426 38.3925 26.2698C37.3138 25.8347 36.387 25.2549 35.5812 24.5406L35.5906 24.549C34.8411 23.8581 34.1985 23.0672 33.6798 22.1951L33.6535 22.1466C33.4509 21.8002 33.6319 21.6125 33.8055 21.4398C33.9621 21.2848 34.1544 21.0345 34.328 20.8329C34.4649 20.6657 34.5822 20.4743 34.6713 20.2689L34.6769 20.253C34.7172 20.1718 34.7407 20.0775 34.7407 19.9767C34.7407 19.8543 34.706 19.7404 34.646 19.6433L34.6478 19.6461C34.5597 19.4725 33.8636 17.7656 33.5738 17.071C33.2905 16.395 33.0025 16.4874 32.7895 16.4762C32.5869 16.4669 32.3543 16.465 32.1216 16.465C31.7511 16.4743 31.4219 16.6405 31.1948 16.8973L31.1939 16.8992C30.4416 17.6097 29.9744 18.6116 29.9744 19.7218C29.9744 19.746 29.9744 19.7712 29.9754 19.7955V19.7918C30.0983 21.1615 30.6142 22.3912 31.4078 23.3931L31.3965 23.3791C32.9012 25.6004 34.9067 27.3772 37.2603 28.5742L37.3485 28.6144C37.8625 28.8459 38.5211 29.0934 39.1946 29.3053L39.3344 29.3436C39.749 29.4743 40.2264 29.55 40.7217 29.55C41.006 29.55 41.2855 29.5247 41.5557 29.4771L41.5266 29.4809C42.5294 29.2726 43.3614 28.6704 43.8689 27.8478L43.8773 27.8319C44.0321 27.4902 44.1222 27.0915 44.1222 26.6723C44.1222 26.4995 44.1072 26.3305 44.0781 26.1662L44.0809 26.1839C43.9946 26.0392 43.762 25.9533 43.413 25.7787L43.4149 25.7768Z" fill="#D9D9D9"/>
<path d="M84.778 15.878L79.526 34H76.874L72.662 19.414L68.294 34L65.668 34.026L60.598 15.878H63.12L67.072 31.244L71.44 15.878H74.092L78.252 31.192L82.23 15.878H84.778ZM94.4392 19.492C95.5139 19.492 96.4846 19.726 97.3512 20.194C98.2179 20.6447 98.8939 21.3293 99.3792 22.248C99.8819 23.1667 100.133 24.2847 100.133 25.602V34H97.7932V25.94C97.7932 24.5187 97.4379 23.4353 96.7272 22.69C96.0166 21.9273 95.0459 21.546 93.8152 21.546C92.5672 21.546 91.5706 21.936 90.8252 22.716C90.0972 23.496 89.7332 24.6313 89.7332 26.122V34H87.3672V14.76H89.7332V21.78C90.2012 21.052 90.8426 20.4887 91.6572 20.09C92.4892 19.6913 93.4166 19.492 94.4392 19.492ZM103.114 26.824C103.114 25.368 103.409 24.094 103.998 23.002C104.587 21.8927 105.393 21.0347 106.416 20.428C107.456 19.8213 108.609 19.518 109.874 19.518C111.122 19.518 112.205 19.7867 113.124 20.324C114.043 20.8613 114.727 21.5373 115.178 22.352V19.752H117.57V34H115.178V31.348C114.71 32.18 114.008 32.8733 113.072 33.428C112.153 33.9653 111.079 34.234 109.848 34.234C108.583 34.234 107.439 33.922 106.416 33.298C105.393 32.674 104.587 31.7987 103.998 30.672C103.409 29.5453 103.114 28.2627 103.114 26.824ZM115.178 26.85C115.178 25.7753 114.961 24.8393 114.528 24.042C114.095 23.2447 113.505 22.638 112.76 22.222C112.032 21.7887 111.226 21.572 110.342 21.572C109.458 21.572 108.652 21.78 107.924 22.196C107.196 22.612 106.615 23.2187 106.182 24.016C105.749 24.8133 105.532 25.7493 105.532 26.824C105.532 27.916 105.749 28.8693 106.182 29.684C106.615 30.4813 107.196 31.0967 107.924 31.53C108.652 31.946 109.458 32.154 110.342 32.154C111.226 32.154 112.032 31.946 112.76 31.53C113.505 31.0967 114.095 30.4813 114.528 29.684C114.961 28.8693 115.178 27.9247 115.178 26.85ZM124.454 21.702V30.1C124.454 30.7933 124.602 31.2873 124.896 31.582C125.191 31.8593 125.702 31.998 126.43 31.998H128.172V34H126.04C124.723 34 123.735 33.6967 123.076 33.09C122.418 32.4833 122.088 31.4867 122.088 30.1V21.702H120.242V19.752H122.088V16.164H124.454V19.752H128.172V21.702H124.454ZM136.083 34.234C134.991 34.234 134.012 34.052 133.145 33.688C132.278 33.3067 131.594 32.7867 131.091 32.128C130.588 31.452 130.311 30.6807 130.259 29.814H132.703C132.772 30.5247 133.102 31.1053 133.691 31.556C134.298 32.0067 135.086 32.232 136.057 32.232C136.958 32.232 137.669 32.0327 138.189 31.634C138.709 31.2353 138.969 30.7327 138.969 30.126C138.969 29.502 138.692 29.0427 138.137 28.748C137.582 28.436 136.724 28.1327 135.563 27.838C134.506 27.5607 133.639 27.2833 132.963 27.006C132.304 26.7113 131.732 26.2867 131.247 25.732C130.779 25.16 130.545 24.4147 130.545 23.496C130.545 22.768 130.762 22.1007 131.195 21.494C131.628 20.8873 132.244 20.4107 133.041 20.064C133.838 19.7 134.748 19.518 135.771 19.518C137.348 19.518 138.622 19.9167 139.593 20.714C140.564 21.5113 141.084 22.6033 141.153 23.99H138.787C138.735 23.2447 138.432 22.6467 137.877 22.196C137.34 21.7453 136.612 21.52 135.693 21.52C134.844 21.52 134.168 21.702 133.665 22.066C133.162 22.43 132.911 22.9067 132.911 23.496C132.911 23.964 133.058 24.354 133.353 24.666C133.665 24.9607 134.046 25.2033 134.497 25.394C134.965 25.5673 135.606 25.7667 136.421 25.992C137.444 26.2693 138.276 26.5467 138.917 26.824C139.558 27.084 140.104 27.4827 140.555 28.02C141.023 28.5573 141.266 29.2593 141.283 30.126C141.283 30.906 141.066 31.608 140.633 32.232C140.2 32.856 139.584 33.35 138.787 33.714C138.007 34.0607 137.106 34.234 136.083 34.234ZM143.739 26.824C143.739 25.368 144.034 24.094 144.623 23.002C145.212 21.8927 146.018 21.0347 147.041 20.428C148.081 19.8213 149.234 19.518 150.499 19.518C151.747 19.518 152.83 19.7867 153.749 20.324C154.668 20.8613 155.352 21.5373 155.803 22.352V19.752H158.195V34H155.803V31.348C155.335 32.18 154.633 32.8733 153.697 33.428C152.778 33.9653 151.704 34.234 150.473 34.234C149.208 34.234 148.064 33.922 147.041 33.298C146.018 32.674 145.212 31.7987 144.623 30.672C144.034 29.5453 143.739 28.2627 143.739 26.824ZM155.803 26.85C155.803 25.7753 155.586 24.8393 155.153 24.042C154.72 23.2447 154.13 22.638 153.385 22.222C152.657 21.7887 151.851 21.572 150.967 21.572C150.083 21.572 149.277 21.78 148.549 22.196C147.821 22.612 147.24 23.2187 146.807 24.016C146.374 24.8133 146.157 25.7493 146.157 26.824C146.157 27.916 146.374 28.8693 146.807 29.684C147.24 30.4813 147.821 31.0967 148.549 31.53C149.277 31.946 150.083 32.154 150.967 32.154C151.851 32.154 152.657 31.946 153.385 31.53C154.13 31.0967 154.72 30.4813 155.153 29.684C155.586 28.8693 155.803 27.9247 155.803 26.85ZM164.559 22.378C165.027 21.5633 165.721 20.8873 166.639 20.35C167.575 19.7953 168.659 19.518 169.889 19.518C171.155 19.518 172.299 19.8213 173.321 20.428C174.361 21.0347 175.176 21.8927 175.765 23.002C176.355 24.094 176.649 25.368 176.649 26.824C176.649 28.2627 176.355 29.5453 175.765 30.672C175.176 31.7987 174.361 32.674 173.321 33.298C172.299 33.922 171.155 34.234 169.889 34.234C168.676 34.234 167.601 33.9653 166.665 33.428C165.747 32.8733 165.045 32.1887 164.559 31.374V40.76H162.193V19.752H164.559V22.378ZM174.231 26.824C174.231 25.7493 174.015 24.8133 173.581 24.016C173.148 23.2187 172.559 22.612 171.813 22.196C171.085 21.78 170.279 21.572 169.395 21.572C168.529 21.572 167.723 21.7887 166.977 22.222C166.249 22.638 165.66 23.2533 165.209 24.068C164.776 24.8653 164.559 25.7927 164.559 26.85C164.559 27.9247 164.776 28.8693 165.209 29.684C165.66 30.4813 166.249 31.0967 166.977 31.53C167.723 31.946 168.529 32.154 169.395 32.154C170.279 32.154 171.085 31.946 171.813 31.53C172.559 31.0967 173.148 30.4813 173.581 29.684C174.015 28.8693 174.231 27.916 174.231 26.824ZM182.13 22.378C182.598 21.5633 183.291 20.8873 184.21 20.35C185.146 19.7953 186.229 19.518 187.46 19.518C188.725 19.518 189.869 19.8213 190.892 20.428C191.932 21.0347 192.746 21.8927 193.336 23.002C193.925 24.094 194.22 25.368 194.22 26.824C194.22 28.2627 193.925 29.5453 193.336 30.672C192.746 31.7987 191.932 32.674 190.892 33.298C189.869 33.922 188.725 34.234 187.46 34.234C186.246 34.234 185.172 33.9653 184.236 33.428C183.317 32.8733 182.615 32.1887 182.13 31.374V40.76H179.764V19.752H182.13V22.378ZM191.802 26.824C191.802 25.7493 191.585 24.8133 191.152 24.016C190.718 23.2187 190.129 22.612 189.384 22.196C188.656 21.78 187.85 21.572 186.966 21.572C186.099 21.572 185.293 21.7887 184.548 22.222C183.82 22.638 183.23 23.2533 182.78 24.068C182.346 24.8653 182.13 25.7927 182.13 26.85C182.13 27.9247 182.346 28.8693 182.78 29.684C183.23 30.4813 183.82 31.0967 184.548 31.53C185.293 31.946 186.099 32.154 186.966 32.154C187.85 32.154 188.656 31.946 189.384 31.53C190.129 31.0967 190.718 30.4813 191.152 29.684C191.585 28.8693 191.802 27.916 191.802 26.824Z" fill="white"/>
</svg>
